<?xml version="1.0" encoding="UTF-8" standalone="no"?>
<svg
   xmlns:dc="http://purl.org/dc/elements/1.1/"
   xmlns:cc="http://creativecommons.org/ns#"
   xmlns:rdf="http://www.w3.org/1999/02/22-rdf-syntax-ns#"
   xmlns:svg="http://www.w3.org/2000/svg"
   xmlns="http://www.w3.org/2000/svg"
   xmlns:xlink="http://www.w3.org/1999/xlink"
   xmlns:sodipodi="http://sodipodi.sourceforge.net/DTD/sodipodi-0.dtd"
   xmlns:inkscape="http://www.inkscape.org/namespaces/inkscape"
   viewBox="0 0 32 32"
   version="1.1"
   id="svg6"
   sodipodi:docname="system-shutdown.svg"
   inkscape:version="0.92.4 (5da689c313, 2019-01-14)">
  <metadata
     id="metadata10">
    <rdf:RDF>
      <cc:Work
         rdf:about="">
        <dc:format>image/svg+xml</dc:format>
        <dc:type
           rdf:resource="http://purl.org/dc/dcmitype/StillImage" />
      </cc:Work>
    </rdf:RDF>
  </metadata>
  <sodipodi:namedview
     pagecolor="#ffffff"
     bordercolor="#666666"
     borderopacity="1"
     objecttolerance="10"
     gridtolerance="10"
     guidetolerance="10"
     inkscape:pageopacity="0"
     inkscape:pageshadow="2"
     inkscape:window-width="1920"
     inkscape:window-height="1013"
     id="namedview8"
     showgrid="true"
     inkscape:zoom="11.87372"
     inkscape:cx="18.895112"
     inkscape:cy="12.085416"
     inkscape:window-x="0"
     inkscape:window-y="0"
     inkscape:window-maximized="1"
     inkscape:current-layer="svg6"
     inkscape:lockguides="true">
    <inkscape:grid
       type="xygrid"
       id="grid825" />
  </sodipodi:namedview>
  <defs
     id="defs3051">
    <linearGradient
       id="linearGradient826"
       inkscape:collect="always">
      <stop
         id="stop822"
         offset="0"
         style="stop-color:#4e9fac;stop-opacity:1" />
      <stop
         id="stop824"
         offset="1"
         style="stop-color:#4e51ac;stop-opacity:1" />
    </linearGradient>
    <linearGradient
       inkscape:collect="always"
       id="linearGradient820">
      <stop
         style="stop-color:#2a4c76;stop-opacity:1"
         offset="0"
         id="stop816" />
      <stop
         style="stop-color:#d3dae3;stop-opacity:1"
         offset="1"
         id="stop818" />
    </linearGradient>
    <style
       type="text/css"
       id="current-color-scheme">
      .ColorScheme-Text {
        color:#eff0f1;
      }
      </style>
    <radialGradient
       inkscape:collect="always"
       xlink:href="#linearGradient820"
       id="radialGradient817"
       cx="16"
       cy="16"
       fx="16"
       fy="16"
       r="12"
       gradientUnits="userSpaceOnUse" />
    <linearGradient
       inkscape:collect="always"
       xlink:href="#linearGradient826"
       id="linearGradient829"
       x1="2.7465653"
       y1="16.062994"
       x2="29.246548"
       y2="16.062994"
       gradientUnits="userSpaceOnUse"
       gradientTransform="matrix(1.1320752,0,0,1.1320752,-2.1093316,-2.0845215)" />
  </defs>
  <path
     style="color:#eff0f1;fill:url(#radialGradient817);fill-opacity:1;stroke:none"
     d="M 15,4 V 4.05078 5.054686 13 h 2 V 5.050781 4.046875 4 h -1 z m 3,0.169922 V 5.591 C 22.963705,6.7205624 26.484078,10.773948 26.6,16 26.19486,22.190886 21.612593,26.732154 16,26.6 10.240993,26.464399 5.7057812,22.075132 5.4,16 5.6847547,10.69852 9.124358,6.5529048 14,5.589 V 4.181641 C 8.2314026,5.1567079 4.0067289,10.149579 4,16 4,22.627417 9.372583,28 16,28 22.627417,28 28,22.627417 28,16 27.999,10.145149 23.772961,5.1457305 18,4.169922 Z"
     class="ColorScheme-Text"
     id="path4"
     inkscape:connector-curvature="0"
     sodipodi:nodetypes="cccccccccccccsccccscc" />
  <rect
     ry="14.999994"
     y="1.1"
     x="1"
     height="30"
     width="29.999983"
     id="rect4130"
     style="opacity:0.15;fill:url(#linearGradient829);fill-opacity:1;stroke:none;stroke-width:0.99999881" />
  <path
     d="M 14.939791,1.0149051 C 8.5982645,1.4986921 3.1716615,6.0185891 1.5691525,12.163341 c -0.62729895,2.418609 -0.64259895,5.109253 -0.03027,7.505219 1.579569,6.258276 7.082044,10.846114 13.5141615,11.269606 3.65057,0.241742 7.195573,-0.816397 10.120623,-3.030912 0.793738,-0.597002 2.237137,-2.040701 2.834447,-2.834459 C 32.475095,19.162132 32.021606,10.961378 26.934974,5.6403701 23.798175,2.3680241 19.42177,0.67494414 14.939791,1.0149051 Z m 2.010419,1.884945 c 1.640159,0.136171 3.832338,0.922277 5.192812,1.602519 2.403627,1.201649 4.313981,3.1915595 5.530635,5.6028279 1.65515,3.302944 1.95809,7.877924 0.30294,11.180869 -1.216961,2.410961 -3.536132,5.164639 -5.9471,6.3816 -1.697673,0.850713 -3.914898,1.364171 -6.117593,1.336438 -2.08282,-0.02626 -4.15266,-0.547318 -5.757948,-1.351738 -3.0421815,-1.530538 -5.3746365,-4.30903 -6.4925045,-7.526554 -1.07351,-3.089808 -1.066821,-6.590441 0.38093,-9.497023 0.914525,-1.8364 2.457359,-3.8415689 4.285278,-5.2314089 1.9035505,-1.447343 4.3150155,-2.245228 6.4086485,-2.407258 0.415544,-0.03761 1.133114,-0.123011 1.193701,-0.123011 0.06028,-0.0071 0.521423,-0.0046 1.020201,0.03276 z"
     id="path4-3"
     style="fill:#2a4c76;fill-opacity:1;stroke-width:0.00305998"
     inkscape:connector-curvature="0"
     sodipodi:nodetypes="cccccccccccccscscscccc" />
</svg>
