<?xml version="1.0" encoding="UTF-8" standalone="no"?>
<svg
   xmlns:dc="http://purl.org/dc/elements/1.1/"
   xmlns:cc="http://creativecommons.org/ns#"
   xmlns:rdf="http://www.w3.org/1999/02/22-rdf-syntax-ns#"
   xmlns:svg="http://www.w3.org/2000/svg"
   xmlns="http://www.w3.org/2000/svg"
   xmlns:xlink="http://www.w3.org/1999/xlink"
   xmlns:sodipodi="http://sodipodi.sourceforge.net/DTD/sodipodi-0.dtd"
   xmlns:inkscape="http://www.inkscape.org/namespaces/inkscape"
   viewBox="0 0 32 32"
   version="1.1"
   id="svg6"
   sodipodi:docname="system-reboot.svg"
   inkscape:version="0.92.4 (5da689c313, 2019-01-14)">
  <metadata
     id="metadata10">
    <rdf:RDF>
      <cc:Work
         rdf:about="">
        <dc:format>image/svg+xml</dc:format>
        <dc:type
           rdf:resource="http://purl.org/dc/dcmitype/StillImage" />
      </cc:Work>
    </rdf:RDF>
  </metadata>
  <sodipodi:namedview
     pagecolor="#ffffff"
     bordercolor="#666666"
     borderopacity="1"
     objecttolerance="10"
     gridtolerance="10"
     guidetolerance="10"
     inkscape:pageopacity="0"
     inkscape:pageshadow="2"
     inkscape:window-width="1920"
     inkscape:window-height="1013"
     id="namedview8"
     showgrid="false"
     inkscape:zoom="8.395988"
     inkscape:cx="-11.807788"
     inkscape:cy="22.681167"
     inkscape:window-x="0"
     inkscape:window-y="0"
     inkscape:window-maximized="1"
     inkscape:current-layer="svg6">
    <inkscape:grid
       type="xygrid"
       id="grid825" />
  </sodipodi:namedview>
  <defs
     id="defs3051">
    <linearGradient
       id="linearGradient826"
       inkscape:collect="always">
      <stop
         id="stop822"
         offset="0"
         style="stop-color:#4e9fac;stop-opacity:1" />
      <stop
         id="stop824"
         offset="1"
         style="stop-color:#4e51ac;stop-opacity:1" />
    </linearGradient>
    <linearGradient
       inkscape:collect="always"
       id="linearGradient820">
      <stop
         style="stop-color:#2a4c76;stop-opacity:1"
         offset="0"
         id="stop816" />
      <stop
         style="stop-color:#d3dae3;stop-opacity:1"
         offset="1"
         id="stop818" />
    </linearGradient>
    <style
       type="text/css"
       id="current-color-scheme">
      .ColorScheme-Text {
        color:#eff0f1;
      }
      </style>
    <radialGradient
       inkscape:collect="always"
       xlink:href="#linearGradient820"
       id="radialGradient817"
       cx="16"
       cy="16"
       fx="16"
       fy="16"
       r="12"
       gradientUnits="userSpaceOnUse" />
    <linearGradient
       inkscape:collect="always"
       xlink:href="#linearGradient826"
       id="linearGradient829"
       x1="2.7465653"
       y1="16.062994"
       x2="29.246548"
       y2="16.062994"
       gradientUnits="userSpaceOnUse"
       gradientTransform="matrix(1.132075,0,0,1.132075,-2.1093229,-2.2845232)" />
  </defs>
  <path
     style="color:#eff0f1;fill:url(#radialGradient817);fill-opacity:1;stroke:none"
     d="M 16,4 C 13.859179,4.00462 11.57247,4.7214382 9.7299152,5.8114506 L 15.292969,11.050781 16.418727,9.9211172 12.228626,6.0755756 C 13.616515,5.4633843 14.715725,5.3117847 16.09305,5.3534748 22.400808,5.5395756 26.6,9.9248678 26.6,16 c -0.0045,1.874364 -0.441076,3.390811 -1.357475,5.025886 l 1.0856,1.054192 C 27.417466,20.238665 27.994687,18.139495 28,16 28,9.372583 22.627417,4 16,4 Z M 5.5788246,10.381268 C 4.4888122,12.223823 4.0046166,13.859179 4,16 c 0,6.627417 5.372583,12 12,12 2.140821,-0.0046 4.241429,-0.581863 6.083984,-1.671875 l -5.376953,-5.378906 -1.079233,1.160256 3.952525,3.904547 C 18.192119,26.62782 17.517835,26.694203 16,26.7 9.9248678,26.7 5.5,22.075132 5.5,16 5.50451,14.125636 5.748025,13.167492 6.6644244,11.532417 Z"
     class="ColorScheme-Text"
     id="path4"
     inkscape:connector-curvature="0"
     sodipodi:nodetypes="cccccccccccccccccccccc" />
  <rect
     ry="14.999995"
     y="0.89999807"
     x="1"
     height="30.000002"
     width="29.999985"
     id="rect4130"
     style="opacity:0.15;fill:url(#linearGradient829);fill-opacity:1;stroke:none;stroke-width:0.99999863" />
  <path
     d="M 14.935899,1.0069046 C 8.5943726,1.4906915 3.1677696,6.0105885 1.5652616,12.155342 c -0.62729998,2.418609 -0.64259998,5.109253 -0.03027,7.505218 1.579568,6.258276 7.082043,10.846114 13.5141604,11.269606 3.65057,0.241742 7.195573,-0.816397 10.120623,-3.030912 0.793738,-0.597002 2.237137,-2.040701 2.834447,-2.834459 C 32.471203,19.154132 32.017714,10.953379 26.931082,5.6323695 23.794283,2.3600235 19.417878,0.66694353 14.935899,1.0069046 Z m 2.010419,1.8849449 c 1.640159,0.136171 3.832338,0.922277 5.192812,1.602519 2.403627,1.201649 4.313981,3.1915595 5.530635,5.6028275 1.65515,3.302946 1.95809,7.877926 0.30294,11.18087 -1.216961,2.410961 -3.536132,5.164639 -5.9471,6.3816 -1.697673,0.850713 -3.914898,1.364171 -6.117593,1.336438 -2.08282,-0.02626 -4.15266,-0.547318 -5.757948,-1.351738 -3.0421814,-1.530538 -5.3746364,-4.30903 -6.4925044,-7.526554 -1.07351,-3.089807 -1.066821,-6.59044 0.38093,-9.497023 0.914525,-1.8364006 2.457359,-3.8415695 4.285278,-5.2314095 1.9035504,-1.447343 4.3150154,-2.245228 6.4086484,-2.407258 0.415544,-0.03761 1.133114,-0.123011 1.193701,-0.123011 0.06028,-0.0071 0.521423,-0.0046 1.020201,0.03276 z"
     id="path4-3"
     style="fill:#2a4c76;fill-opacity:1;stroke-width:0.00305998"
     inkscape:connector-curvature="0"
     sodipodi:nodetypes="cccccccccccccscscscccc" />
</svg>
