<?xml version="1.0" encoding="UTF-8" standalone="no"?>
<svg
   xmlns:dc="http://purl.org/dc/elements/1.1/"
   xmlns:cc="http://creativecommons.org/ns#"
   xmlns:rdf="http://www.w3.org/1999/02/22-rdf-syntax-ns#"
   xmlns:svg="http://www.w3.org/2000/svg"
   xmlns="http://www.w3.org/2000/svg"
   xmlns:xlink="http://www.w3.org/1999/xlink"
   xmlns:sodipodi="http://sodipodi.sourceforge.net/DTD/sodipodi-0.dtd"
   xmlns:inkscape="http://www.inkscape.org/namespaces/inkscape"
   viewBox="0 0 32 32"
   version="1.1"
   id="svg6"
   sodipodi:docname="system-log-out.svg"
   inkscape:version="0.92.4 (5da689c313, 2019-01-14)">
  <metadata
     id="metadata10">
    <rdf:RDF>
      <cc:Work
         rdf:about="">
        <dc:format>image/svg+xml</dc:format>
        <dc:type
           rdf:resource="http://purl.org/dc/dcmitype/StillImage" />
      </cc:Work>
    </rdf:RDF>
  </metadata>
  <sodipodi:namedview
     pagecolor="#ffffff"
     bordercolor="#666666"
     borderopacity="1"
     objecttolerance="10"
     gridtolerance="10"
     guidetolerance="10"
     inkscape:pageopacity="0"
     inkscape:pageshadow="2"
     inkscape:window-width="1920"
     inkscape:window-height="1013"
     id="namedview8"
     showgrid="true"
     inkscape:zoom="8.3959879"
     inkscape:cx="3.7606271"
     inkscape:cy="12.486926"
     inkscape:window-x="0"
     inkscape:window-y="0"
     inkscape:window-maximized="1"
     inkscape:current-layer="svg6"
     inkscape:lockguides="true">
    <inkscape:grid
       type="xygrid"
       id="grid825" />
  </sodipodi:namedview>
  <defs
     id="defs3051">
    <linearGradient
       id="linearGradient826"
       inkscape:collect="always">
      <stop
         id="stop822"
         offset="0"
         style="stop-color:#4e9fac;stop-opacity:1" />
      <stop
         id="stop824"
         offset="1"
         style="stop-color:#4e51ac;stop-opacity:1" />
    </linearGradient>
    <linearGradient
       inkscape:collect="always"
       id="linearGradient820">
      <stop
         style="stop-color:#2a4c76;stop-opacity:1"
         offset="0"
         id="stop816" />
      <stop
         style="stop-color:#d3dae3;stop-opacity:1"
         offset="1"
         id="stop818" />
    </linearGradient>
    <style
       type="text/css"
       id="current-color-scheme">
      .ColorScheme-Text {
        color:#eff0f1;
      }
      </style>
    <radialGradient
       inkscape:collect="always"
       xlink:href="#linearGradient820"
       id="radialGradient817"
       cx="16"
       cy="16"
       fx="16"
       fy="16"
       r="12"
       gradientUnits="userSpaceOnUse" />
    <linearGradient
       inkscape:collect="always"
       xlink:href="#linearGradient826"
       id="linearGradient829"
       x1="2.7465653"
       y1="16.062994"
       x2="29.246548"
       y2="16.062994"
       gradientUnits="userSpaceOnUse"
       gradientTransform="matrix(1.1320741,0,0,1.1320741,-2.1093157,-2.2845184)" />
  </defs>
  <path
     style="color:#eff0f1;fill:url(#radialGradient817);fill-opacity:1;stroke:none"
     d="M 16,3.9999997 C 9.3725829,3.9999997 3.9999998,9.3725829 4,16 4,22.627417 9.372583,28 16,28 22.627417,28 28,22.627417 28,16 28,9.3725829 22.627417,3.9999997 16,3.9999997 Z M 16,5.4 C 22.075132,5.4 26.6,9.9248676 26.6,16 26.6,22.075132 22.075132,26.6 16,26.6 9.9248678,26.6 5.4,22.075132 5.4,16 5.3999998,9.9248676 9.9248676,5.4 16,5.4 Z M 19.302626,7.8069496 10.8,16 19.269531,24 20.139576,23.032576 12.761,16 20.2,8.7070309 Z"
     class="ColorScheme-Text"
     id="path4"
     inkscape:connector-curvature="0"
     sodipodi:nodetypes="ssssssssssccccccc" />
  <rect
     ry="14.999995"
     y="0.89999998"
     x="1"
     height="30"
     width="29.999981"
     id="rect4130"
     style="opacity:0.15;fill:url(#linearGradient829);fill-opacity:1;stroke:none;stroke-width:0.99999833" />
  <path
     d="M 14.89979,1 C 8.5582643,1.483787 3.1316613,6.003684 1.5291533,12.148435 c -0.62730001,2.418609 -0.64260001,5.109253 -0.03027,7.505219 1.579568,6.258276 7.082044,10.846114 13.5141597,11.269606 3.65057,0.241742 7.195573,-0.816397 10.120623,-3.030912 0.793738,-0.597002 2.237137,-2.040701 2.834447,-2.834459 C 32.435094,19.147226 31.981605,10.946472 26.894973,5.625465 23.758174,2.353119 19.381769,0.660039 14.89979,1 Z m 2.010419,1.884945 c 1.640159,0.136171 3.832338,0.922277 5.192812,1.602519 2.403627,1.201649 4.313981,3.1915593 5.530635,5.602826 1.65515,3.302945 1.95809,7.877925 0.30294,11.18087 -1.216961,2.410961 -3.536132,5.164639 -5.9471,6.3816 -1.697673,0.850713 -3.914898,1.364171 -6.117593,1.336438 -2.08282,-0.02626 -4.15266,-0.547318 -5.757948,-1.351738 -3.0421797,-1.530538 -5.3746347,-4.30903 -6.4925037,-7.526554 -1.07351,-3.089808 -1.066821,-6.590441 0.38093,-9.497024 0.914526,-1.8363977 2.45736,-3.841567 4.285278,-5.231407 1.9035497,-1.447343 4.3150147,-2.245228 6.4086477,-2.407258 0.415544,-0.03761 1.133114,-0.123011 1.193701,-0.123011 0.06028,-0.0071 0.521423,-0.0046 1.020201,0.03276 z"
     id="path4-3"
     style="fill:#2a4c76;fill-opacity:1;stroke-width:0.00305998"
     inkscape:connector-curvature="0"
     sodipodi:nodetypes="cccccccccccccscscscccc" />
</svg>
