<?xml version="1.0" encoding="UTF-8" standalone="no"?>
<svg
   xmlns:dc="http://purl.org/dc/elements/1.1/"
   xmlns:cc="http://creativecommons.org/ns#"
   xmlns:rdf="http://www.w3.org/1999/02/22-rdf-syntax-ns#"
   xmlns:svg="http://www.w3.org/2000/svg"
   xmlns="http://www.w3.org/2000/svg"
   xmlns:xlink="http://www.w3.org/1999/xlink"
   xmlns:sodipodi="http://sodipodi.sourceforge.net/DTD/sodipodi-0.dtd"
   xmlns:inkscape="http://www.inkscape.org/namespaces/inkscape"
   viewBox="0 0 32 32"
   version="1.1"
   id="svg6"
   sodipodi:docname="system-lock-screen.svg"
   inkscape:version="0.92.4 (5da689c313, 2019-01-14)">
  <metadata
     id="metadata10">
    <rdf:RDF>
      <cc:Work
         rdf:about="">
        <dc:format>image/svg+xml</dc:format>
        <dc:type
           rdf:resource="http://purl.org/dc/dcmitype/StillImage" />
      </cc:Work>
    </rdf:RDF>
  </metadata>
  <sodipodi:namedview
     pagecolor="#ffffff"
     bordercolor="#666666"
     borderopacity="1"
     objecttolerance="10"
     gridtolerance="10"
     guidetolerance="10"
     inkscape:pageopacity="0"
     inkscape:pageshadow="2"
     inkscape:window-width="1920"
     inkscape:window-height="1013"
     id="namedview8"
     showgrid="false"
     inkscape:zoom="11.87372"
     inkscape:cx="-2.7447884"
     inkscape:cy="22.000232"
     inkscape:window-x="0"
     inkscape:window-y="0"
     inkscape:window-maximized="1"
     inkscape:current-layer="svg6"
     inkscape:lockguides="true"
     inkscape:snap-bbox="true">
    <inkscape:grid
       type="xygrid"
       id="grid825" />
  </sodipodi:namedview>
  <defs
     id="defs3051">
    <linearGradient
       inkscape:collect="always"
       id="linearGradient820">
      <stop
         style="stop-color:#2a4c76;stop-opacity:1"
         offset="0"
         id="stop816" />
      <stop
         style="stop-color:#d3dae3;stop-opacity:1"
         offset="1"
         id="stop818" />
    </linearGradient>
    <style
       type="text/css"
       id="current-color-scheme">
      .ColorScheme-Text {
        color:#eff0f1;
      }
      </style>
    <radialGradient
       inkscape:collect="always"
       xlink:href="#linearGradient820"
       id="radialGradient817"
       cx="16"
       cy="16"
       fx="16"
       fy="16"
       r="12"
       gradientUnits="userSpaceOnUse" />
    <linearGradient
       inkscape:collect="always"
       xlink:href="#linearGradient826"
       id="linearGradient829"
       x1="2.7465653"
       y1="16.062994"
       x2="29.246548"
       y2="16.062994"
       gradientUnits="userSpaceOnUse"
       gradientTransform="matrix(1.1320741,0,0,1.1320741,-2.0863214,-2.0915184)" />
    <linearGradient
       id="linearGradient826"
       inkscape:collect="always">
      <stop
         id="stop822"
         offset="0"
         style="stop-color:#4e9fac;stop-opacity:1" />
      <stop
         id="stop824"
         offset="1"
         style="stop-color:#4e51ac;stop-opacity:1" />
    </linearGradient>
  </defs>
  <path
     style="color:#eff0f1;opacity:0.9;fill:url(#radialGradient817);fill-opacity:1;stroke:none"
     d="M 16,4 C 9.372583,4 4,9.372583 4,16 4,22.627417 9.372583,28 16,28 22.627417,28 28,22.627417 28,16 28,9.372583 22.627417,4 16,4 Z m 0,1.4 C 22.075132,5.4 26.6,9.924868 26.6,16 26.6,22.075132 22.075132,26.6 16,26.6 9.924868,26.6 5.4,22.075132 5.4,16 5.4,9.924868 9.924868,5.4 16,5.4 Z m 0,2.4 c -2.216,0 -4.310662,1.9867648 -4.2,4.2 v 4 h -2 v 1 7.2 H 11 21 22.2 V 16 H 21 20.2 V 12 C 20.2,9.784 18.216,7.8 16,7.8 Z m 0,1.4 c 1.662,0 2.68938,1.364158 2.8,3.3 V 16 h -5.6 v -3.5 c 0,-1.939 1.138,-3.3 2.8,-3.3 z m -4.8,8.1 h 9.6 v 5.5 h -9.6 z"
     class="ColorScheme-Text"
     id="path4"
     inkscape:connector-curvature="0"
     sodipodi:nodetypes="ssssssssssssccccccccccssssccssccccc" />
  <rect
     ry="14.999995"
     y="1.0930001"
     x="1.023"
     height="30"
     width="29.999981"
     id="rect4130"
     style="opacity:0.15;fill:url(#linearGradient829);fill-opacity:1;stroke:none;stroke-width:0.99999833" />
  <path
     d="M 14.91579,1.0359052 C 8.5742644,1.5196922 3.1476612,6.0395892 1.5451528,12.184341 c -0.62729932,2.418609 -0.64259938,5.109253 -0.03027,7.505219 1.5795681,6.258276 7.0820438,10.846114 13.5141602,11.269606 3.65057,0.241742 7.195573,-0.816397 10.120623,-3.030912 0.793738,-0.597002 2.237137,-2.040701 2.834447,-2.834459 C 32.451094,19.183132 31.997605,10.982378 26.910973,5.6613702 23.774174,2.3890242 19.397769,0.69594417 14.91579,1.0359052 Z m 2.010419,1.884945 c 1.640159,0.136171 3.832338,0.922277 5.192812,1.602519 2.403627,1.201649 4.313981,3.1915595 5.530635,5.6028268 1.65515,3.302945 1.95809,7.877925 0.30294,11.18087 -1.216961,2.410961 -3.536132,5.164639 -5.9471,6.3816 -1.697673,0.850713 -3.914898,1.364171 -6.117593,1.336438 -2.08282,-0.02626 -4.15266,-0.547318 -5.757948,-1.351738 C 7.0877746,26.142828 4.7553195,23.364336 3.6374511,20.146812 2.5639409,17.057004 2.5706304,13.556371 4.0183811,10.649788 4.9329067,8.8133891 6.4757407,6.8082202 8.3036589,5.4183802 c 1.9035501,-1.447343 4.3150151,-2.245228 6.4086481,-2.407258 0.415544,-0.03761 1.133114,-0.123011 1.193701,-0.123011 0.06028,-0.0071 0.521423,-0.0046 1.020201,0.03276 z"
     id="path4-3"
     style="fill:#2a4c76;fill-opacity:1;stroke-width:0.00305998"
     inkscape:connector-curvature="0"
     sodipodi:nodetypes="cccccccccccccscscscccc" />
</svg>
