<?xml version="1.0" encoding="UTF-8" standalone="no"?>
<svg
   xmlns:dc="http://purl.org/dc/elements/1.1/"
   xmlns:cc="http://creativecommons.org/ns#"
   xmlns:rdf="http://www.w3.org/1999/02/22-rdf-syntax-ns#"
   xmlns:svg="http://www.w3.org/2000/svg"
   xmlns="http://www.w3.org/2000/svg"
   xmlns:xlink="http://www.w3.org/1999/xlink"
   xmlns:sodipodi="http://sodipodi.sourceforge.net/DTD/sodipodi-0.dtd"
   xmlns:inkscape="http://www.inkscape.org/namespaces/inkscape"
   inkscape:version="1.0 (4035a4fb49, 2020-05-01)"
   sodipodi:docname="bar_meter_horizontal.svg"
   id="svg2318"
   height="45.171284"
   width="103.10357"
   version="1.0">
  <sodipodi:namedview
     inkscape:document-rotation="0"
     inkscape:lockguides="true"
     inkscape:current-layer="svg2318"
     inkscape:window-maximized="1"
     inkscape:window-y="0"
     inkscape:window-x="0"
     inkscape:cy="24.244964"
     inkscape:cx="60.776328"
     inkscape:zoom="49.368912"
     showgrid="false"
     id="namedview76"
     inkscape:window-height="1013"
     inkscape:window-width="1920"
     inkscape:pageshadow="2"
     inkscape:pageopacity="0"
     guidetolerance="10"
     gridtolerance="10"
     objecttolerance="10"
     borderopacity="1"
     bordercolor="#666666"
     pagecolor="#ffffff">
    <inkscape:grid
       originy="-0.16204453"
       originx="0"
       id="grid879"
       type="xygrid" />
  </sodipodi:namedview>
  <metadata
     id="metadata115">
    <rdf:RDF>
      <cc:Work
         rdf:about="">
        <dc:format>image/svg+xml</dc:format>
        <dc:type
           rdf:resource="http://purl.org/dc/dcmitype/StillImage" />
        <dc:title />
      </cc:Work>
    </rdf:RDF>
  </metadata>
  <defs
     id="defs2320">
    <linearGradient
       id="linearGradient4548">
      <stop
         offset="0"
         style="stop-color:#f0f0f0;stop-opacity:1"
         id="stop4550" />
      <stop
         offset="1"
         style="stop-color:#f0f0f0;stop-opacity:0"
         id="stop4552" />
    </linearGradient>
    <linearGradient
       gradientTransform="matrix(2,0,0,1,-48.007582,0)"
       gradientUnits="userSpaceOnUse"
       xlink:href="#linearGradient4548"
       id="linearGradient3349"
       y2="71.451363"
       x2="105.50379"
       y1="26.5"
       x1="105.50379" />
    <linearGradient
       gradientTransform="matrix(2,0,0,1,-48.007582,0)"
       gradientUnits="userSpaceOnUse"
       xlink:href="#linearGradient4548"
       id="linearGradient3521"
       y2="71.451363"
       x2="105.50379"
       y1="26.5"
       x1="105.50379" />
    <linearGradient
       gradientTransform="matrix(2,0,0,1,-48.007582,0)"
       gradientUnits="userSpaceOnUse"
       xlink:href="#linearGradient4548"
       id="linearGradient3527"
       y2="71.451363"
       x2="105.50379"
       y1="26.5"
       x1="105.50379" />
  </defs>
  <g
     id="bar-active-top"
     transform="translate(1.8218308,-33.861672)">
    <path
       inkscape:connector-curvature="0"
       style="fill:none;stroke:none"
       id="path3371"
       d="m 48,54 v 2 h 2.99587 v -2 z" />
    <path
       inkscape:connector-curvature="0"
       style="fill:#070e17;fill-opacity:1;stroke:none"
       id="path3459"
       d="m 48,55 v 1 h 2.99587 v -1 z" />
  </g>
  <g
     id="bar-active-topleft"
     transform="translate(1.8218308,-33.861672)">
    <path
       inkscape:connector-curvature="0"
       style="fill:none;stroke:none"
       id="path3355"
       d="m 46,54 v 2 h 2 v -2 z" />
    <path
       inkscape:connector-curvature="0"
       style="fill:#070e17;fill-opacity:1;stroke:none"
       id="path3457"
       d="m 48,55 c -0.538668,0.03171 -0.946442,0.467126 -1,1 h 1 z" />
  </g>
  <path
     inkscape:connector-curvature="0"
     style="fill:#070e17;fill-opacity:1;stroke:none"
     id="bar-active-center"
     d="m 49.825961,22.138328 v 8 h 2.99587 v -8 z" />
  <g
     id="bar-active-left"
     transform="translate(1.8218308,-33.861672)">
    <path
       inkscape:connector-curvature="0"
       style="opacity:0;fill:url(#linearGradient3349);fill-opacity:1;stroke:none"
       id="path3347"
       d="m 46,56 v 8 h 2 v -8 z" />
    <path
       inkscape:connector-curvature="0"
       style="fill:#070e17;fill-opacity:1;stroke:none"
       id="path3455"
       d="m 47.003791,56 v 8 h 1 v -8 z" />
  </g>
  <g
     id="bar-active-topright"
     transform="matrix(-1,0,0,1,100.82182,-33.861672)">
    <path
       inkscape:connector-curvature="0"
       style="fill:none;stroke:none"
       id="path3381"
       d="m 46,54 v 2 h 2 v -2 z" />
    <path
       inkscape:connector-curvature="0"
       style="fill:#070e17;fill-opacity:1;stroke:none"
       id="path3383"
       d="m 48,55 c -0.538668,0.03171 -0.946442,0.467126 -1,1 h 1 z" />
  </g>
  <g
     style="fill:#a9cfeb;fill-opacity:0.5098038"
     id="bar-active-right"
     transform="matrix(-1,0,0,1,100.82562,-33.861672)">
    <path
       inkscape:connector-curvature="0"
       style="opacity:0;fill:#a9cfeb;fill-opacity:0.5098038;stroke:none"
       id="path3389"
       d="m 46,56 v 8 h 2 v -8 z" />
    <path
       inkscape:connector-curvature="0"
       style="fill:#070e17;fill-opacity:1;stroke:none"
       id="path3391"
       d="m 47.003791,56 v 8 h 1 v -8 z" />
  </g>
  <g
     id="bar-active-bottom"
     transform="translate(1.8218308,-33.861672)">
    <path
       inkscape:connector-curvature="0"
       style="fill:#070e17;fill-opacity:1;stroke:none"
       id="path3463"
       d="M 48.00413,65 V 64 H 51 v 1 z" />
    <path
       inkscape:connector-curvature="0"
       style="fill:none;stroke:none"
       id="path3399"
       d="m 48,66 v -2 h 2.99587 v 2 z" />
  </g>
  <g
     id="bar-active-bottomleft"
     transform="translate(1.8218308,-33.861672)">
    <path
       inkscape:connector-curvature="0"
       style="fill:#070e17;fill-opacity:1;stroke:none"
       id="mar-active-bottomleft"
       d="m 48.003791,65 c -0.538668,-0.03171 -0.946442,-0.467126 -1,-1 h 1 z" />
    <path
       inkscape:connector-curvature="0"
       style="fill:none;stroke:none"
       id="path3405"
       d="m 46,66 v -2 h 2 v 2 z" />
  </g>
  <g
     id="bar-active-bottomright"
     transform="translate(1.8218308,-33.861672)">
    <path
       inkscape:connector-curvature="0"
       style="fill:#070e17;fill-opacity:1;stroke:none"
       id="path3461"
       d="m 51.003791,65 v -1 h 1 c -0.04959,0.537066 -0.458337,0.96811 -1,1 z" />
    <path
       inkscape:connector-curvature="0"
       style="fill:none;stroke:none"
       id="path3411"
       d="m 52.999995,66 v -2 h -2 v 2 z" />
  </g>
  <rect
     style="opacity:0.01000001;fill:#4e9fac;fill-opacity:1;fill-rule:nonzero;stroke:none"
     id="hint-stretch-borders"
     y="24.875805"
     x="29.840935"
     height="3.5355339"
     width="3.4471455" />
  <g
     id="bar-inactive-top"
     transform="translate(10.130335,-33.794672)">
    <path
       inkscape:connector-curvature="0"
       style="fill:none;stroke:none"
       id="path3467"
       d="m 48,54 v 2 h 2.99587 v -2 z" />
    <path
       inkscape:connector-curvature="0"
       style="fill:#2a4c76;fill-opacity:1;stroke:none"
       id="path3469"
       d="m 48,55 v 1 h 2.99587 v -1 z" />
  </g>
  <g
     id="bar-inactive-topleft"
     transform="translate(10.130335,-33.794672)">
    <path
       inkscape:connector-curvature="0"
       style="fill:none;stroke:none"
       id="path3473"
       d="m 46,54 v 2 h 2 v -2 z" />
    <path
       inkscape:connector-curvature="0"
       style="fill:#2a4c76;fill-opacity:1;stroke:none"
       id="path3475"
       d="m 48,55 c -0.538668,0.03171 -0.946442,0.467126 -1,1 h 1 z" />
  </g>
  <path
     inkscape:connector-curvature="0"
     style="fill:#2a4c76;fill-opacity:1;stroke:none"
     id="bar-inactive-center"
     d="m 58.134465,22.205328 v 8 h 2.99587 v -8 z" />
  <g
     id="bar-inactive-left"
     transform="translate(10.130335,-33.794672)">
    <path
       inkscape:connector-curvature="0"
       style="opacity:0;fill:url(#linearGradient3521);fill-opacity:1;stroke:none"
       id="path3481"
       d="m 46,56 v 8 h 2 v -8 z" />
    <path
       inkscape:connector-curvature="0"
       style="fill:#2a4c76;fill-opacity:1;stroke:none"
       id="path3483"
       d="m 47.003791,56 v 8 h 1 v -8 z" />
  </g>
  <g
     id="bar-inactive-topright"
     transform="matrix(-1,0,0,1,109.13033,-33.794672)">
    <path
       inkscape:connector-curvature="0"
       style="fill:none;stroke:none"
       id="path3487"
       d="m 46,54 v 2 h 2 v -2 z" />
    <path
       inkscape:connector-curvature="0"
       style="fill:#2a4c76;fill-opacity:1;stroke:none"
       id="path3489"
       d="m 48,55 c -0.538668,0.03171 -0.946442,0.467126 -1,1 h 1 z" />
  </g>
  <g
     id="bar-inactive-right"
     transform="matrix(-1,0,0,1,109.13413,-33.794672)">
    <path
       inkscape:connector-curvature="0"
       style="opacity:0;fill:url(#linearGradient3527);fill-opacity:1;stroke:none"
       id="path3493"
       d="m 46,56 v 8 h 2 v -8 z" />
    <path
       inkscape:connector-curvature="0"
       style="fill:#2a4c76;fill-opacity:1;stroke:none"
       id="path3495"
       d="m 47.003791,56 v 8 h 1 v -8 z" />
  </g>
  <g
     id="bar-inactive-bottom"
     transform="translate(10.130335,-33.794672)">
    <path
       inkscape:connector-curvature="0"
       style="fill:#2a4c76;fill-opacity:1;stroke:none"
       id="path3499"
       d="M 48.00413,65 V 64 H 51 v 1 z" />
    <path
       inkscape:connector-curvature="0"
       style="fill:none;stroke:none"
       id="path3501"
       d="m 48,66 v -2 h 2.99587 v 2 z" />
  </g>
  <g
     id="bar-inactive-bottomleft"
     transform="translate(10.130335,-33.794672)">
    <path
       inkscape:connector-curvature="0"
       style="fill:#2a4c76;fill-opacity:1;stroke:none"
       id="path3505"
       d="m 48.003791,65 c -0.538668,-0.03171 -0.946442,-0.467126 -1,-1 h 1 z" />
    <path
       inkscape:connector-curvature="0"
       style="fill:none;stroke:none"
       id="path3507"
       d="m 46,66 v -2 h 2 v 2 z" />
  </g>
  <g
     id="bar-inactive-bottomright"
     transform="translate(10.130335,-33.794672)">
    <path
       inkscape:connector-curvature="0"
       style="fill:#2a4c76;fill-opacity:1;stroke:none"
       id="path3511"
       d="m 51.003791,65 v -1 h 1 c -0.04959,0.537066 -0.458337,0.96811 -1,1 z" />
    <path
       inkscape:connector-curvature="0"
       style="fill:none;stroke:none"
       id="path3513"
       d="m 52.999995,66 v -2 h -2 v 2 z" />
  </g>
  <rect
     y="0"
     x="0"
     height="5"
     width="5"
     id="hint-stretch-borders-3"
     style="opacity:0.01000001;fill:#4e9fac;fill-opacity:1;stroke:none" />
  <rect
     y="40.171284"
     x="98.103569"
     height="5"
     width="5"
     id="hint-stretch-borders-6"
     style="opacity:0.01000001;fill:#4e9fac;fill-opacity:1;stroke:none" />
</svg>
