<?xml version="1.0" encoding="UTF-8" standalone="no"?>
<svg
   xmlns:dc="http://purl.org/dc/elements/1.1/"
   xmlns:cc="http://creativecommons.org/ns#"
   xmlns:rdf="http://www.w3.org/1999/02/22-rdf-syntax-ns#"
   xmlns:svg="http://www.w3.org/2000/svg"
   xmlns="http://www.w3.org/2000/svg"
   xmlns:sodipodi="http://sodipodi.sourceforge.net/DTD/sodipodi-0.dtd"
   xmlns:inkscape="http://www.inkscape.org/namespaces/inkscape"
   viewBox="0 0 16 16"
   version="1.1"
   id="svg6"
   sodipodi:docname="office-chart-pie.svg"
   inkscape:version="0.92.4 (5da689c313, 2019-01-14)">
  <metadata
     id="metadata10">
    <rdf:RDF>
      <cc:Work
         rdf:about="">
        <dc:format>image/svg+xml</dc:format>
        <dc:type
           rdf:resource="http://purl.org/dc/dcmitype/StillImage" />
      </cc:Work>
    </rdf:RDF>
  </metadata>
  <sodipodi:namedview
     pagecolor="#ffffff"
     bordercolor="#666666"
     borderopacity="1"
     objecttolerance="10"
     gridtolerance="10"
     guidetolerance="10"
     inkscape:pageopacity="0"
     inkscape:pageshadow="2"
     inkscape:window-width="1920"
     inkscape:window-height="1015"
     id="namedview8"
     showgrid="false"
     inkscape:zoom="14.75"
     inkscape:cx="-16.338983"
     inkscape:cy="8.2033898"
     inkscape:window-x="0"
     inkscape:window-y="0"
     inkscape:window-maximized="1"
     inkscape:current-layer="svg6" />
  <defs
     id="defs3051">
    <style
       type="text/css"
       id="current-color-scheme">
      .ColorScheme-Text {
        color:#eff0f1;
      }
      </style>
  </defs>
  <path
     style="fill:#2a4c76;fill-opacity:1;stroke:none"
     d="M 8 2 A 6.0000019 6.0000148 0 0 0 2 8 A 6.0000019 6.0000148 0 0 0 8 14 A 6.0000019 6.0000148 0 0 0 14 8 A 6.0000019 6.0000148 0 0 0 8 2 z M 8 3 L 8 8 L 13 8 A 5 5 0 0 1 8 13 A 5 5 0 0 1 3 8 A 5 5 0 0 1 8 3 z "
     class="ColorScheme-Text"
     id="path4" />
  <path
     d="m 7.9508496,0.49417058 c 4.1483064,0 7.5549804,3.35830582 7.5549804,7.55498032 0,4.1966761 -3.406674,7.5049991 -7.5549804,7.5049991 -4.148306,0 -7.55498002,-3.356694 -7.55498002,-7.5049991 0,-4.1466944 3.40828602,-7.55498032 7.55498002,-7.55498032 m 0,-0.3450207 c -4.345,0 -7.90000002,3.55500022 -7.90000002,7.90000102 0,4.3449991 3.55500002,7.8999991 7.90000002,7.8999991 4.3450004,0 7.9000004,-3.555 7.9000004,-7.8999991 0,-4.3450008 -3.555,-7.90000102 -7.9000004,-7.90000102 z"
     id="path8"
     style="fill:#2a4c76;fill-opacity:1;stroke-width:0.01612248"
     inkscape:connector-curvature="0" />
</svg>
