<?xml version="1.0" encoding="UTF-8" standalone="no"?>
<svg
   xmlns:dc="http://purl.org/dc/elements/1.1/"
   xmlns:cc="http://creativecommons.org/ns#"
   xmlns:rdf="http://www.w3.org/1999/02/22-rdf-syntax-ns#"
   xmlns:svg="http://www.w3.org/2000/svg"
   xmlns="http://www.w3.org/2000/svg"
   xmlns:sodipodi="http://sodipodi.sourceforge.net/DTD/sodipodi-0.dtd"
   xmlns:inkscape="http://www.inkscape.org/namespaces/inkscape"
   version="1.1"
   x="0px"
   y="0px"
   viewBox="0 0 21.362631 19.999998"
   enable-background="new 0 0 1000 1000"
   xml:space="preserve"
   id="svg8"
   sodipodi:docname="akonadi.svg"
   width="21.362631"
   height="19.999998"
   inkscape:version="0.92.4 (5da689c313, 2019-01-14)"><metadata
   id="defs12" /><sodipodi:namedview
   pagecolor="#ffffff"
   bordercolor="#666666"
   borderopacity="1"
   objecttolerance="10"
   gridtolerance="10"
   guidetolerance="10"
   inkscape:pageopacity="0"
   inkscape:pageshadow="2"
   inkscape:window-width="1920"
   inkscape:window-height="1017"
   id="namedview10"
   showgrid="false"
   inkscape:zoom="7.09475"
   inkscape:cx="-16.950798"
   inkscape:cy="-2.2456382"
   inkscape:window-x="0"
   inkscape:window-y="0"
   inkscape:window-maximized="1"
   inkscape:current-layer="akonadi" />
<g
   id="akonadi"
   transform="translate(-10,-938.75005)"><path
     d="m 19.795754,949.82466 c 0.71806,0.33946 1.031941,0.33946 1.810808,0 l 8.157466,-3.66676 c 0.602302,-0.28055 0.619942,-1.47126 0,-1.8108 l -8.155502,-4.30627 c -0.643502,-0.38054 -1.09277,-0.3591 -1.810815,0 l -8.159422,4.30627 c -0.619954,0.40033 -0.641535,1.47138 0,1.8108 z m 0.906391,-9.05406 8.328159,4.48088 -8.328159,3.51178 -8.332085,-3.51178 z m 0,16.00506 -8.332085,-3.84139 c 0.02944,0.0203 -0.735699,-0.32948 -1.2811,-0.63951 0,0.46493 0.117712,1.31447 0.547356,1.54596 l 8.157476,3.66665 c 0.718042,0.34139 1.031962,0.34139 1.810823,0 l 8.155499,-3.66665 c 0.402184,-0.19046 0.549315,-1.06923 0.549315,-1.54596 -0.523802,0.2608 -1.26735,0.63551 -1.28502,0.63951 z m -0.906391,-3.10958 c 0.71806,0.33938 1.031941,0.33938 1.810808,0 l 8.157466,-3.66682 c 0.402182,-0.18838 0.549329,-1.0692 0.549329,-1.54589 -0.523821,0.26282 -1.267368,0.63567 -1.285021,0.64154 l -8.326191,3.83936 -8.33404,-3.83936 c 0.02942,0.016 -0.73569,-0.32953 -1.281105,-0.64154 0,0.46502 0.117705,1.31645 0.547361,1.54589 z"
     id="path4"
     style="fill:#2a4c76;fill-opacity:1;stroke-width:0.01961869"
     inkscape:connector-curvature="0" /></g>
</svg>
