<?xml version="1.0" encoding="UTF-8" standalone="no"?>
<svg
   xmlns:dc="http://purl.org/dc/elements/1.1/"
   xmlns:cc="http://creativecommons.org/ns#"
   xmlns:rdf="http://www.w3.org/1999/02/22-rdf-syntax-ns#"
   xmlns:svg="http://www.w3.org/2000/svg"
   xmlns="http://www.w3.org/2000/svg"
   xmlns:sodipodi="http://sodipodi.sourceforge.net/DTD/sodipodi-0.dtd"
   xmlns:inkscape="http://www.inkscape.org/namespaces/inkscape"
   version="1.1"
   x="0px"
   y="0px"
   viewBox="0 0 19.997965 19.999996"
   enable-background="new 0 0 1000 1000"
   xml:space="preserve"
   id="svg8"
   sodipodi:docname="akregator.svg"
   width="19.997965"
   height="19.999996"
   inkscape:version="0.92.4 (5da689c313, 2019-01-14)"><metadata
   id="defs12" /><sodipodi:namedview
   pagecolor="#ffffff"
   bordercolor="#666666"
   borderopacity="1"
   objecttolerance="10"
   gridtolerance="10"
   guidetolerance="10"
   inkscape:pageopacity="0"
   inkscape:pageshadow="2"
   inkscape:window-width="1920"
   inkscape:window-height="1017"
   id="namedview10"
   showgrid="false"
   inkscape:zoom="5.6568543"
   inkscape:cx="-13.402636"
   inkscape:cy="-1.4278033"
   inkscape:window-x="0"
   inkscape:window-y="0"
   inkscape:window-maximized="1"
   inkscape:current-layer="svg8" />
<g
   id="akregator"
   transform="matrix(0.01836735,0,0,0.01836735,0.87698692,0.93245853)"><path
     d="m 753.5,911.7 c -13,0 -25.7,-6.2 -33.6,-17.7 -12.7,-18.6 -8,-43.9 10.6,-56.5 71.9,-49.2 127.2,-121.5 155.6,-203.4 7.4,-21.3 30.7,-32.3 51.8,-25.1 21.3,7.3 32.5,30.6 25.1,51.8 -34,98.2 -100.3,184.8 -186.5,243.8 -7.1,4.9 -15.1,7.1 -23,7.1 z m 195.8,-371 C 926.8,540.7 908.6,522.5 908.6,500 908.6,274.7 725.3,91.4 500,91.4 c -22.5,0 -40.7,-18.2 -40.7,-40.7 0,-22.5 18.1,-40.7 40.6,-40.7 270.2,0 490,219.8 490,490 0.1,22.5 -18.1,40.7 -40.6,40.7 z M 500,990 C 229.8,990 10,770.2 10,500 10,295.9 138.6,111.2 329.8,40.4 c 21.1,-7.7 44.5,2.9 52.3,24.1 7.8,21.1 -2.9,44.5 -24.1,52.3 -159.5,59 -266.7,213 -266.7,383.2 0,225.3 183.3,408.6 408.6,408.6 22.5,0 40.7,18.3 40.7,40.7 0.1,22.5 -18.1,40.7 -40.6,40.7 z M 366.6,512.3 c 0,64.9 52.7,117.6 117.6,117.6 64.9,0 117.6,-52.7 117.6,-117.6 0,-64.9 -52.7,-117.6 -117.6,-117.6 -65,0 -117.6,52.7 -117.6,117.6 z m 463.1,26.5 c -16.8,0 -30.4,-13.6 -30.4,-30.4 0,-170.8 -139,-309.9 -309.9,-309.9 -16.8,0 -30.4,-13.6 -30.4,-30.4 0,-16.8 13.6,-30.4 30.4,-30.4 204.4,0.1 370.6,166.3 370.6,370.6 0,16.9 -13.5,30.5 -30.3,30.5 z m -117.4,0 c -16.8,0 -30.4,-13.6 -30.4,-30.4 0,-106.1 -86.3,-192.4 -192.4,-192.4 -16.8,0 -30.4,-13.6 -30.4,-30.4 0,-16.8 13.6,-30.4 30.4,-30.4 139.6,0 253.1,113.6 253.1,253.1 0,16.9 -13.5,30.5 -30.3,30.5 z"
     id="path4"
     style="fill:#d3dae3;fill-opacity:1"
     inkscape:connector-curvature="0" /></g>
</svg>
