<?xml version="1.0" encoding="UTF-8" standalone="no"?>
<!-- Svg Vector Icons : http://www.onlinewebfonts.com/icon -->

<svg
   xmlns:dc="http://purl.org/dc/elements/1.1/"
   xmlns:cc="http://creativecommons.org/ns#"
   xmlns:rdf="http://www.w3.org/1999/02/22-rdf-syntax-ns#"
   xmlns:svg="http://www.w3.org/2000/svg"
   xmlns="http://www.w3.org/2000/svg"
   xmlns:xlink="http://www.w3.org/1999/xlink"
   xmlns:sodipodi="http://sodipodi.sourceforge.net/DTD/sodipodi-0.dtd"
   xmlns:inkscape="http://www.inkscape.org/namespaces/inkscape"
   version="1.1"
   x="0px"
   y="0px"
   viewBox="0 0 24 24"
   enable-background="new 0 0 1000 1000"
   xml:space="preserve"
   id="svg20"
   sodipodi:docname="applications.svg"
   inkscape:version="0.92.4 (5da689c313, 2019-01-14)"
   width="24"
   height="24"><metadata
   id="metadata13"><rdf:RDF><cc:Work
       rdf:about=""><dc:format>image/svg+xml</dc:format><dc:type
         rdf:resource="http://purl.org/dc/dcmitype/StillImage" /><dc:title /></cc:Work></rdf:RDF></metadata><defs
   id="defs24"><linearGradient
     id="e"
     x1="6.7965999"
     x2="23.881001"
     y1="5.7609"
     y2="22.573999"
     gradientUnits="userSpaceOnUse"
     xlink:href="#a" /><linearGradient
     id="a"><stop
       stop-color="#35ff76"
       offset="0"
       id="stop2" /><stop
       stop-color="#357bff"
       offset="1"
       id="stop4" /></linearGradient><linearGradient
     id="c"
     x1="1.9153"
     x2="15.271"
     y1="11.627"
     y2="28.983"
     gradientUnits="userSpaceOnUse"
     xlink:href="#a" /><linearGradient
     id="b"
     x1="10.423"
     x2="23.983"
     y1="7.6949"
     y2="23.830999"
     gradientUnits="userSpaceOnUse"
     xlink:href="#a" /><linearGradient
     id="d"
     x1="16.525"
     x2="31.237"
     y1="0.74574"
     y2="17.356001"
     gradientUnits="userSpaceOnUse"
     xlink:href="#a" /></defs><sodipodi:namedview
   pagecolor="#ffffff"
   bordercolor="#666666"
   borderopacity="1"
   objecttolerance="10"
   gridtolerance="10"
   guidetolerance="10"
   inkscape:pageopacity="0"
   inkscape:pageshadow="2"
   inkscape:window-width="1920"
   inkscape:window-height="1017"
   id="namedview22"
   showgrid="false"
   inkscape:zoom="21.360282"
   inkscape:cx="2.7912069"
   inkscape:cy="10.64456"
   inkscape:window-x="0"
   inkscape:window-y="0"
   inkscape:window-maximized="1"
   inkscape:current-layer="svg20"
   inkscape:lockguides="true"
   units="px"
   width="22px"><inkscape:grid
     type="xygrid"
     id="grid820"
     originx="-63.457702"
     originy="1.6010001" /></sodipodi:namedview>
<g
   id="applications-other"
   transform="matrix(0.01989796,0,0,0.01989796,1.8197644,2.1202201)"><path
     d="M 346.9,500 H 500 V 683.8 H 346.9 Z"
     id="path6"
     style="fill:#d3dae3;fill-opacity:1"
     inkscape:connector-curvature="0" /><path
     d="M 316.3,377.5 H 500 v 91.9 H 316.3 Z"
     id="path8"
     style="fill:#2a4c76;fill-opacity:1"
     inkscape:connector-curvature="0" /><path
     d="m 371.8,280.4 28.4,-18.1 52.6,82.7 -28.4,18.1 z"
     id="path10"
     style="fill:#d3dae3;fill-opacity:1"
     inkscape:connector-curvature="0" /><path
     d="M 530.6,500 H 683.7 V 683.8 H 530.6 Z"
     id="path12"
     style="fill:#d3dae3;fill-opacity:1"
     inkscape:connector-curvature="0" /><path
     d="m 530.6,377.5 h 183.8 v 91.9 H 530.6 Z"
     id="path14"
     style="fill:#2a4c76;fill-opacity:1"
     inkscape:connector-curvature="0" /><path
     d="m 607.5,365.1 -28.4,-18.1 52.6,-82.7 28.4,18.1 z"
     id="path16"
     style="fill:#d3dae3;fill-opacity:1"
     inkscape:connector-curvature="0" /><path
     d="m 471.93083,14.31511 c -95.22977,9.581789 -187.19837,47.341849 -260.58795,106.54759 -24.72022,19.94464 -65.1504,61.53486 -82.97054,85.28843 -52.119654,69.56237 -83.739786,146.98305 -96.570163,236.29667 -3.639795,26.0667 -3.069803,100.02927 1.150422,127.44249 13.409398,87.19519 43.880638,160.59687 95.609311,229.78129 17.63057,23.75423 69.75038,75.88076 93.51072,93.52076 83.9196,62.67297 177.04924,95.81854 280.51877,99.4661 112.09017,4.2169 220.34971,-30.08503 312.71002,-99.079 24.13952,-18.0271 76.26029,-70.15363 94.26937,-94.29039 C 991.58011,689.28371 1025.1111,553.60922 1002.5016,421.35722 988.70094,339.52589 951.72084,257.88828 899.22095,193.29712 880.44075,170.11032 838.29033,129.28449 815.49072,112.23053 748.04251,61.641279 672.3613,30.016999 587.86164,16.984959 563.90145,13.35406 496.4519,11.626319 471.93083,14.31511 Z m 60.07339,50.490245 c 55.57016,5.563461 107.74257,14.385737 159.09184,39.689995 90.62946,44.63575 163.69982,107.20487 208.52919,198.05089 33.34068,67.24991 55.6661,137.78803 53.36584,213.67565 -2.1099,68.80908 -16.11254,121.8249 -46.19207,183.34343 -16.93409,34.46274 -36.17107,59.4679 -49.51649,76.78304 -21.9854,28.52516 -32.96587,38.7004 -86.80376,83.79695 -39.97435,28.01622 -124.9914,62.44462 -174.04146,70.315 -33.71965,5.54974 -107.64573,5.92601 -139.83583,0.945 C 373.82133,918.56273 326.90363,903.6752 264.06438,853.46032 180.51427,786.77719 110.02376,689.28371 91.054082,583.31629 71.326147,473.00994 98.840055,365.17258 154.46319,275.98522 206.8836,191.93319 283.87971,127.9453 382.23909,90.565353 446.8089,66.023209 464.61344,67.936751 532.00422,64.805355 Z"
     id="edit-delete"
     style="fill:#2a4c76;fill-opacity:1;stroke-width:0.10000794"
     inkscape:connector-curvature="0"
     sodipodi:nodetypes="ccccccccccccccccccccscccccscc" /></g>
<g
   id="applications-other-3"
   transform="scale(0.75)"><rect
     x="-2.7562999e-07"
     y="-1.2834001e-09"
     width="32"
     height="32"
     rx="0"
     ry="0"
     style="opacity:0;stroke-width:2;paint-order:fill markers stroke"
     id="rect14" /><g
     id="g24" /></g></svg>