<?xml version="1.0" encoding="UTF-8" standalone="no"?>
<svg
   xmlns:dc="http://purl.org/dc/elements/1.1/"
   xmlns:cc="http://creativecommons.org/ns#"
   xmlns:rdf="http://www.w3.org/1999/02/22-rdf-syntax-ns#"
   xmlns:svg="http://www.w3.org/2000/svg"
   xmlns="http://www.w3.org/2000/svg"
   xmlns:sodipodi="http://sodipodi.sourceforge.net/DTD/sodipodi-0.dtd"
   xmlns:inkscape="http://www.inkscape.org/namespaces/inkscape"
   inkscape:version="1.0 (4035a4fb49, 2020-05-01)"
   sodipodi:docname="applications.svg"
   id="svg17"
   version="1.1"
   height="32"
   width="32">
  <metadata
     id="metadata23">
    <rdf:RDF>
      <cc:Work
         rdf:about="">
        <dc:format>image/svg+xml</dc:format>
        <dc:type
           rdf:resource="http://purl.org/dc/dcmitype/StillImage" />
      </cc:Work>
    </rdf:RDF>
  </metadata>
  <defs
     id="defs21">
    <linearGradient
       gradientTransform="matrix(1.1199999,0,0,1.1199999,-27.239997,-1.9800147)"
       gradientUnits="userSpaceOnUse"
       id="_lgradient_4"
       x1="26.5"
       y1="15.999999"
       x2="51.5"
       y2="15.999999">
      <stop
         offset="0%"
         stop-opacity="1"
         style="stop-color:rgb(255,143,195)"
         id="stop15-3" />
      <stop
         offset="100%"
         stop-opacity="1"
         style="stop-color:rgb(161,161,255)"
         id="stop17-6" />
    </linearGradient>
  </defs>
  <sodipodi:namedview
     inkscape:current-layer="applications-other-3"
     inkscape:window-maximized="1"
     inkscape:window-y="0"
     inkscape:window-x="0"
     inkscape:cy="16"
     inkscape:cx="16"
     inkscape:zoom="10.636102"
     showgrid="false"
     id="namedview19"
     inkscape:window-height="1013"
     inkscape:window-width="1920"
     inkscape:pageshadow="2"
     inkscape:pageopacity="0"
     guidetolerance="10"
     gridtolerance="10"
     objecttolerance="10"
     borderopacity="1"
     inkscape:document-rotation="0"
     bordercolor="#666666"
     pagecolor="#ffffff" />
  <g
     id="applications-other">
    <g
       style="clip-rule:evenodd;fill-rule:evenodd;stroke-linejoin:round;stroke-miterlimit:1.41421"
       id="applications-other-3"
       transform="translate(0.27357099,0.15566293)">
      <path
         style="fill:#ffffc1;fill-opacity:0;stroke-width:1.00213"
         d="M 22,0 V 32 H 54 V 0 Z"
         transform="translate(-21.999998,-1.5e-5)"
         id="rect817"
         inkscape:connector-curvature="0" />
      <g
         transform="matrix(0.0265306,0,0,0.02653061,1.8295708,2.7842988)"
         id="applications-other-36">
        <path
           inkscape:connector-curvature="0"
           style="fill:#d3dae3;fill-opacity:1"
           id="path6"
           d="M 346.9,500 H 500 V 683.8 H 346.9 Z" />
        <path
           inkscape:connector-curvature="0"
           style="fill:#3daee9;fill-opacity:1"
           id="path8"
           d="M 316.3,377.5 H 500 v 91.9 H 316.3 Z" />
        <path
           inkscape:connector-curvature="0"
           style="fill:#d3dae3;fill-opacity:1"
           id="path10"
           d="m 371.8,280.4 28.4,-18.1 52.6,82.7 -28.4,18.1 z" />
        <path
           inkscape:connector-curvature="0"
           style="fill:#d3dae3;fill-opacity:1"
           id="path12"
           d="M 530.6,500 H 683.7 V 683.8 H 530.6 Z" />
        <path
           inkscape:connector-curvature="0"
           style="fill:#3daee9;fill-opacity:1"
           id="path14"
           d="m 530.6,377.5 h 183.8 v 91.9 H 530.6 Z" />
        <path
           inkscape:connector-curvature="0"
           style="fill:#d3dae3;fill-opacity:1"
           id="path16"
           d="m 607.5,365.1 -28.4,-18.1 52.6,-82.7 28.4,18.1 z" />
        <path
           sodipodi:nodetypes="ccccccccccccccccccccscccccscc"
           inkscape:connector-curvature="0"
           style="fill:#2a4c76;fill-opacity:1;stroke-width:0.100008"
           id="edit-delete"
           d="m 475.70006,14.31511 c -95.22977,9.581789 -187.19837,47.341849 -260.58795,106.54759 -24.72022,19.94464 -65.1504,61.53486 -82.97054,85.28843 -52.119656,69.56237 -83.739784,146.98305 -96.570161,236.29667 -3.639795,26.0667 -3.069803,100.02927 1.150422,127.44249 13.409398,87.19519 43.880643,160.59687 95.609309,229.78129 17.63057,23.75423 69.75038,75.88076 93.51072,93.52076 83.9196,62.67297 177.04924,95.81854 280.51877,99.4661 112.09017,4.2169 220.34971,-30.08503 312.71002,-99.079 24.13952,-18.0271 76.26029,-70.15363 94.26937,-94.29039 C 995.34944,689.28371 1028.8804,553.60922 1006.2709,421.35722 992.47024,339.52589 955.49007,257.88828 902.99018,193.29712 884.20998,170.11032 842.05956,129.28449 819.25995,112.23053 751.81174,61.641279 676.13053,30.016999 591.63087,16.984959 567.67068,13.35406 500.22113,11.626319 475.70006,14.31511 Z m 60.07339,50.490245 c 55.57016,5.563461 107.74257,14.385737 159.09184,39.689995 90.62946,44.63575 163.69982,107.20487 208.52919,198.05089 33.34068,67.24991 55.66609,137.78803 53.36584,213.67565 -2.1099,68.80908 -16.11254,121.8249 -46.19207,183.34343 -16.93409,34.46274 -36.17107,59.4679 -49.51649,76.78304 -21.9854,28.52516 -32.96587,38.7004 -86.80376,83.79695 -39.97435,28.01622 -124.9914,62.44462 -174.04146,70.315 -33.71965,5.54974 -107.64573,5.92601 -139.83583,0.945 C 377.59056,918.56273 330.67286,903.6752 267.83361,853.46032 184.2835,786.77719 113.79299,689.28371 94.823318,583.31629 75.095383,473.00994 102.60929,365.17258 158.23242,275.98522 210.65283,191.93319 287.64894,127.9453 386.00832,90.565353 450.57813,66.023209 468.38267,67.936751 535.77345,64.805355 Z" />
      </g>
    </g>
  </g>
</svg>
