<?xml version="1.0" encoding="UTF-8" standalone="no"?>
<svg
   xmlns:dc="http://purl.org/dc/elements/1.1/"
   xmlns:cc="http://creativecommons.org/ns#"
   xmlns:rdf="http://www.w3.org/1999/02/22-rdf-syntax-ns#"
   xmlns:svg="http://www.w3.org/2000/svg"
   xmlns="http://www.w3.org/2000/svg"
   xmlns:sodipodi="http://sodipodi.sourceforge.net/DTD/sodipodi-0.dtd"
   xmlns:inkscape="http://www.inkscape.org/namespaces/inkscape"
   version="1.1"
   x="0px"
   y="0px"
   viewBox="0 0 24 24"
   enable-background="new 0 0 1000 1000"
   xml:space="preserve"
   id="svg16"
   sodipodi:docname="apport.svg"
   width="24"
   height="24"
   inkscape:version="0.92.4 (5da689c313, 2019-01-14)"><defs
   id="defs11" /><metadata
   id="defs20"><rdf:RDF><cc:Work
       rdf:about=""><dc:format>image/svg+xml</dc:format><dc:type
         rdf:resource="http://purl.org/dc/dcmitype/StillImage" /></cc:Work></rdf:RDF></metadata><sodipodi:namedview
   pagecolor="#ffffff"
   bordercolor="#666666"
   borderopacity="1"
   objecttolerance="10"
   gridtolerance="10"
   guidetolerance="10"
   inkscape:pageopacity="0"
   inkscape:pageshadow="2"
   inkscape:window-width="1920"
   inkscape:window-height="1009"
   id="namedview18"
   showgrid="false"
   inkscape:zoom="7.552"
   inkscape:cx="47.005839"
   inkscape:cy="13.022068"
   inkscape:window-x="0"
   inkscape:window-y="0"
   inkscape:window-maximized="1"
   inkscape:current-layer="svg16" />
<g
   id="apport"
   transform="matrix(0.01989786,0,0,0.0198839,2.0810214,2.1933196)"><g
     transform="matrix(0.1,0,0,-0.1,0,511)"
     id="g12"><path
       d="M 4579.4,5002.4 C 3994.6,4952 3398.8,4783.4 2849,4516.1 1490.9,3852.4 509.6,2595.1 203,1129.7 126.3,772.7 100,503.2 100,111.2 c 0,-777.6 155.5,-1458.8 490.7,-2140.1 492.8,-1001 1272.6,-1783 2254,-2262.7 1796.2,-878.4 3920.9,-587 5416.9,742.6 865.2,768.8 1421.6,1804.9 1599,2981.2 52.6,343.9 52.6,1014.2 0,1358.1 -164.3,1088.6 -628.6,2015.2 -1393.1,2781.9 -812.6,817 -1853.1,1309.9 -2998.7,1423.8 -210.3,19.6 -690,24 -889.4,6.4 z M 5424.9,4514 C 7168.5,4338.8 8640.5,3164.7 9192.4,1510.9 10053.3,-1060.7 8412.6,-3789.9 5729.3,-4249.9 4660.4,-4433.9 3506,-4193 2597,-3597.2 1326.6,-2762.6 581.9,-1391.4 581.9,111.2 c 0,1158.7 429.3,2223.3 1237.6,3062.2 939.7,977 2275.8,1474.2 3605.4,1340.6 z"
       id="path4"
       style="fill:#2a4c76;fill-opacity:1"
       inkscape:connector-curvature="0" /><path
       d="M 2108.6,1541.6 1940,1370.7 2185.3,1125.4 2432.8,877.9 2185.3,630.4 1940,385 2115.2,209.8 2290.4,34.6 2535.7,282.1 2783.2,527.4 3028.5,282.1 3276,34.6 l 168.7,170.8 170.8,168.7 -247.5,247.5 -245.3,245.3 245.3,247.5 247.5,245.3 -175.1,175.3 -175.2,175.2 -245.3,-245.3 -247.5,-247.5 -247.5,247.5 -245.3,245.3 z"
       id="path6"
       style="fill:#d3dae3;fill-opacity:1"
       inkscape:connector-curvature="0" /><path
       d="M 6528.9,1535 6353.7,1359.8 6601.2,1112.3 6846.5,867 6601.2,619.5 6353.7,374.2 6524.5,205.5 6693.2,34.7 6938.5,282.2 7186,527.5 7431.3,282.2 7678.8,34.7 7854,209.9 8029.4,385 7784,630.4 l -247.5,247.5 247.5,247.5 245.3,245.3 -168.7,170.8 -170.8,168.7 -245.3,-245.3 -247.5,-247.5 -247.5,247.5 -245.3,245.3 z"
       id="path8"
       style="fill:#d3dae3;fill-opacity:1"
       inkscape:connector-curvature="0" /><path
       d="m 4776.6,-1544.8 c -24.1,-4.4 -98.6,-19.7 -164.3,-32.9 -65.7,-13.1 -214.7,-67.9 -328.6,-122.7 -374.6,-179.6 -665.9,-534.5 -742.6,-900.3 -13.1,-63.5 -24.1,-144.6 -24.1,-179.6 v -65.7 h 238.8 236.6 l 13.1,98.6 c 48.2,350.5 387.7,650.6 810.5,716.3 541,83.2 1075.5,-247.5 1143.4,-709.7 l 15.3,-105.1 h 238.8 238.8 v 65.7 c 0,120.5 -48.2,295.7 -124.9,460 -111.7,236.6 -365.8,486.3 -619.9,611.1 -103,50.4 -240.9,105.2 -306.7,124.9 -120.4,32.9 -541,59.2 -624.2,39.4 z"
       id="path10"
       style="fill:#d3dae3;fill-opacity:1"
       inkscape:connector-curvature="0" /></g></g>
<g
   id="system-shutdown"
   transform="matrix(0.75,0,0,0.75,61.967285,0)"><rect
     ry="0"
     rx="0"
     y="0"
     x="-82.623047"
     height="32"
     width="32"
     id="rect1131"
     style="opacity:0;fill:#000000;fill-opacity:1;fill-rule:evenodd;stroke:none;stroke-width:2;stroke-linecap:round;stroke-linejoin:round;stroke-miterlimit:4;stroke-dasharray:none;stroke-opacity:1;paint-order:fill markers stroke" /><g
     transform="translate(2.3769531,44)"
     id="g1134" /></g></svg>