<?xml version="1.0" encoding="UTF-8" standalone="no"?>
<svg
   xmlns:dc="http://purl.org/dc/elements/1.1/"
   xmlns:cc="http://creativecommons.org/ns#"
   xmlns:rdf="http://www.w3.org/1999/02/22-rdf-syntax-ns#"
   xmlns:svg="http://www.w3.org/2000/svg"
   xmlns="http://www.w3.org/2000/svg"
   xmlns:sodipodi="http://sodipodi.sourceforge.net/DTD/sodipodi-0.dtd"
   xmlns:inkscape="http://www.inkscape.org/namespaces/inkscape"
   version="1.1"
   x="0px"
   y="0px"
   viewBox="0 0 26.214765 25.79684"
   enable-background="new 0 0 1000 1000"
   xml:space="preserve"
   id="svg12"
   sodipodi:docname="bookmarks.svg"
   inkscape:version="0.92.4 (5da689c313, 2019-01-14)"
   width="26.214766"
   height="25.796841"><defs
   id="defs10" /><metadata
   id="defs16"><rdf:RDF><cc:Work
       rdf:about=""><dc:format>image/svg+xml</dc:format><dc:type
         rdf:resource="http://purl.org/dc/dcmitype/StillImage" /></cc:Work></rdf:RDF></metadata><sodipodi:namedview
   pagecolor="#ffffff"
   bordercolor="#666666"
   borderopacity="1"
   objecttolerance="10"
   gridtolerance="10"
   guidetolerance="10"
   inkscape:pageopacity="0"
   inkscape:pageshadow="2"
   inkscape:window-width="1920"
   inkscape:window-height="1017"
   id="namedview14"
   showgrid="false"
   inkscape:zoom="15.227545"
   inkscape:cx="-5.5958508"
   inkscape:cy="7.3576421"
   inkscape:window-x="0"
   inkscape:window-y="0"
   inkscape:window-maximized="1"
   inkscape:current-layer="svg12"
   inkscape:lockguides="true"
   showguides="false"
   inkscape:guide-bbox="true"><inkscape:grid
     type="xygrid"
     id="grid815"
     originx="-1.7753656"
     originy="-2.2861628" /><sodipodi:guide
     position="-5.1079636,18.481541"
     orientation="0,1"
     id="guide823"
     inkscape:locked="true" /></sodipodi:namedview>
<g
   id="bookmarks"
   transform="matrix(0.02131924,0,0,0.02131924,2.5880218,2.4423851)"><path
     d="m 506.1,674.6 c 39.8,6.1 116.4,9.2 140.9,0 15.3,-6.1 27.6,-18.4 36.8,-30.6 15.3,-24.5 21.4,-52.1 24.5,-79.6 3.1,-33.7 -3.1,-67.4 -12.3,-98 -3.1,-9.2 -9.2,-18.4 -18.4,-24.5 -12.3,-9.2 -27.6,-12.3 -42.9,-12.3 -24.5,0 -49,3.1 -73.5,9.2 15.3,-18.4 21.4,-39.8 24.5,-61.3 3.1,-21.4 3.1,-42.9 0,-64.3 0,-6.1 0,-15.3 -6.1,-18.4 -12.3,-15.3 -36.8,-24.5 -49,-18.4 -12.3,6.1 -24.5,91.9 -67.4,134.8 -15.3,15.3 -33.7,30.6 -52.1,45.9 -9.2,39.8 -9.2,82.7 -3.1,122.5 3.1,18.4 6.1,36.8 12.3,52.1 6.1,12.3 18.4,21.4 30.6,27.6 21.5,9.1 36.8,12.2 55.2,15.3 z"
     id="path4"
     style="fill:#d3dae3;fill-opacity:1"
     inkscape:connector-curvature="0" /><path
     d="m 255,463.3 h 85.8 c 30.6,0 36.7,6.1 36.7,36.7 v 116.4 c 0,30.6 -6.1,64.3 -36.7,64.3 H 255 Z"
     id="path6"
     style="fill:#3b6ca7;fill-opacity:1"
     inkscape:connector-curvature="0" /><path
     d="m 496.73359,89.477826 c 39.347,0 70.07531,2.450567 105.12117,12.792954 65.70413,19.38996 130.11542,55.03683 179.0787,99.74411 40.29582,36.79322 68.03319,77.12589 89.40868,123.23907 23.3515,50.37604 38.48134,107.65072 38.48134,174.74586 0,111.03649 -38.20042,196.34519 -103.09602,270.44745 -77.0952,88.03324 -178.60389,141.80602 -308.99395,141.80602 -128.39929,0 -218.60623,-39.86923 -295.63348,-125.84029 C 134.06217,711.59132 87.910012,611.74745 87.910012,499.99982 c 0,-134.99264 70.940118,-253.1421 164.868698,-330.7029 35.36161,-29.19958 69.01284,-46.32578 106.22588,-59.59842 39.71614,-14.165419 83.48938,-20.220674 137.729,-20.220674 m -8e-5,-46.811324 c -251.53344,0 -457.333505,205.800068 -457.333505,457.333318 0,251.53344 205.800065,457.33348 457.333505,457.33348 251.53325,0 457.33328,-205.80004 457.33328,-457.33348 0,-251.53325 -205.80003,-457.333318 -457.33328,-457.333318 z"
     id="path8"
     style="fill:#2a4c76;fill-opacity:1;stroke-width:0.93333358"
     inkscape:connector-curvature="0"
     sodipodi:nodetypes="csssssssssscsssss" /></g>
</svg>