<?xml version="1.0" encoding="UTF-8" standalone="no"?>
<svg
   xmlns:dc="http://purl.org/dc/elements/1.1/"
   xmlns:cc="http://creativecommons.org/ns#"
   xmlns:rdf="http://www.w3.org/1999/02/22-rdf-syntax-ns#"
   xmlns:svg="http://www.w3.org/2000/svg"
   xmlns="http://www.w3.org/2000/svg"
   xmlns:sodipodi="http://sodipodi.sourceforge.net/DTD/sodipodi-0.dtd"
   xmlns:inkscape="http://www.inkscape.org/namespaces/inkscape"
   inkscape:version="1.0 (4035a4fb49, 2020-05-01)"
   sodipodi:docname="bookmarks.svg"
   id="svg11"
   version="1.1"
   height="32"
   width="32">
  <metadata
     id="metadata17">
    <rdf:RDF>
      <cc:Work
         rdf:about="">
        <dc:format>image/svg+xml</dc:format>
        <dc:type
           rdf:resource="http://purl.org/dc/dcmitype/StillImage" />
      </cc:Work>
    </rdf:RDF>
  </metadata>
  <defs
     id="defs15">
    <linearGradient
       gradientUnits="userSpaceOnUse"
       gradientTransform="matrix(19.206691,0,0,28.000107,6.0550056,2.2700061)"
       y2="0.5"
       x2="1"
       y1="0.5"
       x1="0"
       id="_lgradient_1">
      <stop
         id="stop9"
         style="stop-color:rgb(242,55,239)"
         stop-opacity="1"
         offset="0%" />
      <stop
         id="stop11"
         style="stop-color:rgb(252,82,82)"
         stop-opacity="1"
         offset="98.69565217391305%" />
    </linearGradient>
    <linearGradient
       gradientUnits="userSpaceOnUse"
       gradientTransform="matrix(19.206691,0,0,28.000107,6.2711919,2.3832384)"
       y2="0.5"
       x2="1"
       y1="0.5"
       x1="0"
       id="_lgradient_1-3">
      <stop
         id="stop9-6"
         style="stop-color:rgb(242,55,239)"
         stop-opacity="1"
         offset="0%" />
      <stop
         id="stop11-7"
         style="stop-color:rgb(252,82,82)"
         stop-opacity="1"
         offset="98.69565217391305%" />
    </linearGradient>
    <linearGradient
       id="_lgradient_1-36"
       x1="0"
       y1="0.5"
       x2="1"
       y2="0.5"
       gradientTransform="matrix(19.206691,0,0,28.000107,6.2711923,2.3832385)"
       gradientUnits="userSpaceOnUse">
      <stop
         offset="0%"
         stop-opacity="1"
         style="stop-color:#ff005d;stop-opacity:1"
         id="stop9-7" />
      <stop
         offset="98.69565217391305%"
         stop-opacity="1"
         style="stop-color:#ff8b26;stop-opacity:0.98823529"
         id="stop11-5" />
    </linearGradient>
  </defs>
  <sodipodi:namedview
     inkscape:current-layer="bookmarks-5"
     inkscape:window-maximized="1"
     inkscape:window-y="0"
     inkscape:window-x="0"
     inkscape:cy="22.654298"
     inkscape:cx="-4.6115107"
     inkscape:zoom="10.408989"
     showgrid="false"
     id="namedview13"
     inkscape:window-height="1013"
     inkscape:window-width="1920"
     inkscape:pageshadow="2"
     inkscape:pageopacity="0"
     guidetolerance="10"
     gridtolerance="10"
     objecttolerance="10"
     borderopacity="1"
     inkscape:document-rotation="0"
     bordercolor="#666666"
     pagecolor="#ffffff" />
  <g
     id="bookmarks">
    <g
       id="bookmarks-5"
       style="clip-rule:evenodd;fill-rule:evenodd;stroke-linejoin:round;stroke-miterlimit:1.41421"
       transform="translate(0.02534369,0.2700052)">
      <rect
         style="fill:#2020ff;fill-opacity:0"
         id="rect820"
         width="32"
         height="32"
         x="0"
         y="0" />
      <path
         d="m 15.966661,4.1076388 c 1.118474,0 1.991933,0.069664 2.988147,0.3636464 1.867664,0.5511726 3.698604,1.5644569 5.090409,2.8352901 1.145449,1.0458696 1.93389,2.1923677 2.541501,3.5031447 0.663782,1.431985 1.093882,3.060068 1.093882,4.967274 0,3.156299 -1.085895,5.581236 -2.930595,7.687653 -2.19148,2.502383 -5.076934,4.030909 -8.783346,4.030909 -3.649842,0 -6.214019,-1.133282 -8.4035716,-3.57709 -1.9055955,-2.126857 -3.2175015,-4.964977 -3.2175015,-8.141472 0,-3.837262 2.0165176,-7.1957356 4.6865065,-9.4004474 C 10.037272,5.5465313 10.993826,5.0597078 12.051616,4.6824237 13.180574,4.2797622 14.424863,4.1076388 15.966661,4.1076388 m -2e-6,-1.330644 c -7.1500016,0 -13.0000027,5.8500006 -13.0000027,12.9999992 0,7.150002 5.8500011,13.000001 13.0000027,13.000001 7.149997,0 12.999997,-5.849999 12.999997,-13.000001 0,-7.1499986 -5.85,-12.9999992 -12.999997,-12.9999992 z"
         id="path8"
         style="fill:#2a4c76;fill-opacity:1;stroke-width:0.0265293"
         inkscape:connector-curvature="0"
         sodipodi:nodetypes="csssssssssscsssss" />
      <path
         d="m 16.79453,21.340229 c 1.131324,0.17339 3.308749,0.261512 4.005157,0 0.434917,-0.173402 0.784565,-0.523019 1.046088,-0.869813 0.43492,-0.69645 0.608287,-1.480973 0.696412,-2.2627 0.08819,-0.957925 -0.08819,-1.915889 -0.349617,-2.785698 -0.08819,-0.261527 -0.261517,-0.523051 -0.523041,-0.696441 -0.349651,-0.261492 -0.784564,-0.349616 -1.219458,-0.349616 -0.696443,0 -1.392848,0.08819 -2.089291,0.261492 0.434916,-0.523009 0.608318,-1.131337 0.696443,-1.742465 0.08819,-0.608317 0.08819,-1.219483 0,-1.827777 0,-0.173401 0,-0.434915 -0.173403,-0.52304 -0.349637,-0.434926 -1.046078,-0.6964421 -1.392847,-0.523041 -0.349642,0.173393 -0.696443,2.612331 -1.915902,3.831791 -0.434915,0.434915 -0.957956,0.869809 -1.480972,1.304723 -0.261517,1.131337 -0.261517,2.350817 -0.08819,3.482152 0.08819,0.52304 0.173383,1.046059 0.34962,1.480972 0.173398,0.349648 0.523041,0.608318 0.869844,0.784567 0.611138,0.258646 1.046044,0.34677 1.569096,0.434894 z"
         id="path4"
         style="fill:#d3dae3;fill-opacity:1;stroke-width:0.028425"
         inkscape:connector-curvature="0" />
      <path
         d="m 9.3076563,15.079828 h 2.4389367 c 0.8698,0 1.043199,0.173392 1.043199,1.0432 v 3.308749 c 0,0.869845 -0.173399,1.827777 -1.043199,1.827777 H 9.3076563 Z"
         id="path6"
         style="fill:#3daee9;fill-opacity:1;stroke-width:0.028425"
         inkscape:connector-curvature="0" />
    </g>
  </g>
</svg>
