<?xml version="1.0" encoding="UTF-8" standalone="no"?>
<svg
   xmlns:dc="http://purl.org/dc/elements/1.1/"
   xmlns:cc="http://creativecommons.org/ns#"
   xmlns:rdf="http://www.w3.org/1999/02/22-rdf-syntax-ns#"
   xmlns:svg="http://www.w3.org/2000/svg"
   xmlns="http://www.w3.org/2000/svg"
   xmlns:sodipodi="http://sodipodi.sourceforge.net/DTD/sodipodi-0.dtd"
   xmlns:inkscape="http://www.inkscape.org/namespaces/inkscape"
   version="1.1"
   x="0px"
   y="0px"
   viewBox="0 0 41.658639 28.753941"
   enable-background="new 0 0 1000 1000"
   xml:space="preserve"
   id="svg10"
   sodipodi:docname="computer.svg"
   inkscape:version="0.92.4 (5da689c313, 2019-01-14)"
   width="41.658638"
   height="28.753941"><defs
   id="defs10" /><metadata
   id="defs14"><rdf:RDF><cc:Work
       rdf:about=""><dc:format>image/svg+xml</dc:format><dc:type
         rdf:resource="http://purl.org/dc/dcmitype/StillImage" /><dc:title /></cc:Work></rdf:RDF></metadata><sodipodi:namedview
   pagecolor="#ffffff"
   bordercolor="#666666"
   borderopacity="1"
   objecttolerance="10"
   gridtolerance="10"
   guidetolerance="10"
   inkscape:pageopacity="0"
   inkscape:pageshadow="2"
   inkscape:window-width="1920"
   inkscape:window-height="1017"
   id="namedview12"
   showgrid="false"
   inkscape:zoom="5.6568545"
   inkscape:cx="-76.69365"
   inkscape:cy="26.234816"
   inkscape:window-x="0"
   inkscape:window-y="0"
   inkscape:window-maximized="1"
   inkscape:current-layer="svg10"
   inkscape:lockguides="true"
   units="px"><inkscape:grid
     type="xygrid"
     id="grid814"
     originx="20.938941"
     originy="-5.9293351" /></sodipodi:namedview>
<g
   id="computer"
   transform="matrix(0.65,0,0,0.65,-4.027,-619.13515)"><path
     d="m 25,960 c -8.283655,0 -15,6.7165 -15,15 0,8.2835 6.716345,15 15,15 8.283657,0 15,-6.7165 15,-15 0,-8.2835 -6.716343,-15 -15,-15 z m 0,28.35604 c -7.377573,0 -13.356103,-5.9787 -13.356103,-13.35604 0,-7.37734 5.97853,-13.35604 13.356103,-13.35604 7.377581,0 13.356088,5.9787 13.356088,13.35604 0,7.37734 -5.978507,13.35604 -13.356088,13.35604 z"
     id="path4"
     style="fill:#2a4c76;fill-opacity:1;stroke-width:0.03061214"
     inkscape:connector-curvature="0" /><path
     d="M 32.22924,967.563 H 17.83091 c -0.663719,0 -1.20091,0.53707 -1.20091,1.2011 v 8.39874 1.20121 c 0,0.66338 0.537191,1.20052 1.20091,1.20052 h 5.99955 v 1.80009 h -2.9982 c -0.332069,0 -0.599069,0.27 -0.599069,0.59939 v 0.59895 h 9.596618 v -0.59895 c 0,-0.33214 -0.27,-0.59939 -0.599069,-0.59939 h -3.001081 v -1.80009 h 5.999581 c 0.663569,0 1.200951,-0.53714 1.200951,-1.20112 v -1.20061 -8.39874 c 0,-0.66403 -0.537382,-1.2011 -1.200951,-1.2011 z m -7.79698,10.79805 c 0,-0.33218 0.27,-0.59948 0.599049,-0.59948 0.332032,0 0.599291,0.27 0.599291,0.59948 0,0.33188 -0.27,0.59888 -0.599291,0.59888 -0.331769,0 -0.599049,-0.26702 -0.599049,-0.59888 z m -6.60135,-1.20112 v -8.39583 h 14.39835 v 8.39874 H 17.83091 Z"
     id="computer-laptop"
     style="fill:#d3dae3;fill-opacity:1;stroke-width:0.02812658"
     inkscape:connector-curvature="0" /></g>
<path
   d="m 34.437075,17.516082 h -8.048672 c -0.371018,0 -0.671303,0.299944 -0.671303,0.6708 v 4.690598 0.670861 c 0,0.370494 0.300285,0.670479 0.671303,0.670479 h 3.353749 l 0.55714,0.0036 0.01085,0.0025 c -0.0011,-0.0025 -0.01085,-0.0025 -0.01085,-0.0025 l -6e-6,3e-6 v 0 l 0.01085,0.0024 -0.0011,-0.0024 h -0.01029 v 0 l 4.137788,-0.0036 c 0.370934,-3.04e-4 0.671333,-0.299987 0.671333,-0.670807 V 22.87748 18.186881 c 0,-0.370857 -0.300399,-0.6708 -0.671333,-0.6708 z m -4.358514,6.030588 c 0,-0.185529 0.15093,-0.3348 0.334875,-0.3348 0.185597,0 0.335003,0.150782 0.335003,0.3348 0,0.185352 -0.15093,0.33447 -0.335003,0.33447 -0.18546,0 -0.334875,-0.149129 -0.334875,-0.33447 z m -3.690158,-0.670811 v -4.688977 h 8.048685 v 4.690598 h -8.048685 z"
   id="path6-3"
   style="fill:#2a4c76;fill-opacity:1;stroke-width:0.01571555"
   inkscape:connector-curvature="0"
   sodipodi:nodetypes="ssscssccccccccccsscssscsssccccccc" /></svg>