<?xml version="1.0" encoding="UTF-8" standalone="no"?>
<svg
   xmlns:dc="http://purl.org/dc/elements/1.1/"
   xmlns:cc="http://creativecommons.org/ns#"
   xmlns:rdf="http://www.w3.org/1999/02/22-rdf-syntax-ns#"
   xmlns:svg="http://www.w3.org/2000/svg"
   xmlns="http://www.w3.org/2000/svg"
   xmlns:xlink="http://www.w3.org/1999/xlink"
   xmlns:sodipodi="http://sodipodi.sourceforge.net/DTD/sodipodi-0.dtd"
   xmlns:inkscape="http://www.inkscape.org/namespaces/inkscape"
   sodipodi:docname="computer.svg"
   inkscape:version="1.0 (4035a4fb49, 2020-05-01)"
   id="svg8"
   version="1.1"
   viewBox="0 0 30 30"
   height="30mm"
   width="30mm">
  <defs
     id="defs2">
    <linearGradient
       inkscape:collect="always"
       id="linearGradient903">
      <stop
         style="stop-color:#0055d4;stop-opacity:1"
         offset="0"
         id="stop897" />
      <stop
         style="stop-color:#00bcd4;stop-opacity:1"
         offset="1"
         id="stop899" />
    </linearGradient>
    <linearGradient
       id="linearGradient847"
       inkscape:collect="always">
      <stop
         id="stop843"
         offset="0"
         style="stop-color:#008080;stop-opacity:1" />
      <stop
         id="stop845"
         offset="1"
         style="stop-color:#00ccff;stop-opacity:1" />
    </linearGradient>
    <linearGradient
       gradientUnits="userSpaceOnUse"
       y2="942.39111"
       x2="988.54999"
       y1="59.384544"
       x1="20.477444"
       id="linearGradient849"
       xlink:href="#linearGradient903"
       inkscape:collect="always" />
    <linearGradient
       y2="499.95001"
       x2="990"
       y1="499.95001"
       x1="10"
       gradientUnits="userSpaceOnUse"
       id="linearGradient854"
       xlink:href="#linearGradient847"
       inkscape:collect="always" />
    <linearGradient
       y2="499.95001"
       x2="990"
       y1="499.95001"
       x1="10"
       gradientUnits="userSpaceOnUse"
       id="linearGradient862"
       xlink:href="#linearGradient847"
       inkscape:collect="always" />
    <linearGradient
       y2="499.95001"
       x2="990"
       y1="499.95001"
       x1="10"
       gradientUnits="userSpaceOnUse"
       id="linearGradient864"
       xlink:href="#linearGradient847"
       inkscape:collect="always" />
    <linearGradient
       y2="499.95001"
       x2="990"
       y1="499.95001"
       x1="10"
       gradientUnits="userSpaceOnUse"
       id="linearGradient868"
       xlink:href="#linearGradient847"
       inkscape:collect="always" />
    <linearGradient
       y2="499.95001"
       x2="990"
       y1="499.95001"
       x1="10"
       gradientUnits="userSpaceOnUse"
       id="linearGradient870"
       xlink:href="#linearGradient847"
       inkscape:collect="always" />
    <linearGradient
       y2="499.95001"
       x2="990"
       y1="499.95001"
       x1="10"
       gradientUnits="userSpaceOnUse"
       id="linearGradient872"
       xlink:href="#linearGradient847"
       inkscape:collect="always" />
    <linearGradient
       y2="499.95001"
       x2="990"
       y1="499.95001"
       x1="10"
       gradientUnits="userSpaceOnUse"
       id="linearGradient874"
       xlink:href="#linearGradient847"
       inkscape:collect="always" />
    <linearGradient
       y2="499.95001"
       x2="990"
       y1="499.95001"
       x1="10"
       gradientUnits="userSpaceOnUse"
       id="linearGradient876"
       xlink:href="#linearGradient847"
       inkscape:collect="always" />
    <linearGradient
       y2="499.95001"
       x2="990"
       y1="499.95001"
       x1="10"
       gradientUnits="userSpaceOnUse"
       id="linearGradient878"
       xlink:href="#linearGradient847"
       inkscape:collect="always" />
    <linearGradient
       y2="499.95001"
       x2="990"
       y1="499.95001"
       x1="10"
       gradientUnits="userSpaceOnUse"
       id="linearGradient880"
       xlink:href="#linearGradient847"
       inkscape:collect="always" />
    <linearGradient
       y2="499.95001"
       x2="990"
       y1="499.95001"
       x1="10"
       gradientUnits="userSpaceOnUse"
       id="linearGradient882"
       xlink:href="#linearGradient847"
       inkscape:collect="always" />
    <linearGradient
       y2="499.95001"
       x2="990"
       y1="499.95001"
       x1="10"
       gradientUnits="userSpaceOnUse"
       id="linearGradient884"
       xlink:href="#linearGradient847"
       inkscape:collect="always" />
    <linearGradient
       y2="499.95001"
       x2="990"
       y1="499.95001"
       x1="10"
       gradientUnits="userSpaceOnUse"
       id="linearGradient886"
       xlink:href="#linearGradient847"
       inkscape:collect="always" />
    <linearGradient
       y2="499.95001"
       x2="990"
       y1="499.95001"
       x1="10"
       gradientUnits="userSpaceOnUse"
       id="linearGradient888"
       xlink:href="#linearGradient847"
       inkscape:collect="always" />
    <linearGradient
       y2="499.95001"
       x2="990"
       y1="499.95001"
       x1="10"
       gradientUnits="userSpaceOnUse"
       id="linearGradient890"
       xlink:href="#linearGradient847"
       inkscape:collect="always" />
    <linearGradient
       y2="499.95001"
       x2="990"
       y1="499.95001"
       x1="10"
       gradientUnits="userSpaceOnUse"
       id="linearGradient892"
       xlink:href="#linearGradient847"
       inkscape:collect="always" />
    <linearGradient
       y2="499.95001"
       x2="990"
       y1="499.95001"
       x1="10"
       gradientUnits="userSpaceOnUse"
       id="linearGradient894"
       xlink:href="#linearGradient847"
       inkscape:collect="always" />
    <linearGradient
       y2="499.95001"
       x2="990"
       y1="499.95001"
       x1="10"
       gradientUnits="userSpaceOnUse"
       id="linearGradient896"
       xlink:href="#linearGradient847"
       inkscape:collect="always" />
    <linearGradient
       y2="499.95001"
       x2="990"
       y1="499.95001"
       x1="10"
       gradientUnits="userSpaceOnUse"
       id="linearGradient898"
       xlink:href="#linearGradient847"
       inkscape:collect="always" />
    <linearGradient
       y2="499.95001"
       x2="990"
       y1="499.95001"
       x1="10"
       gradientUnits="userSpaceOnUse"
       id="linearGradient900"
       xlink:href="#linearGradient847"
       inkscape:collect="always" />
    <linearGradient
       y2="499.95001"
       x2="990"
       y1="499.95001"
       x1="10"
       gradientUnits="userSpaceOnUse"
       id="linearGradient902"
       xlink:href="#linearGradient847"
       inkscape:collect="always" />
  </defs>
  <sodipodi:namedview
     inkscape:document-rotation="0"
     inkscape:window-maximized="1"
     inkscape:window-y="0"
     inkscape:window-x="0"
     inkscape:window-height="1013"
     inkscape:window-width="1920"
     showgrid="false"
     inkscape:current-layer="computer"
     inkscape:document-units="mm"
     inkscape:cy="52.064232"
     inkscape:cx="91.433936"
     inkscape:zoom="4.2406513"
     inkscape:pageshadow="2"
     inkscape:pageopacity="0.0"
     borderopacity="1.0"
     bordercolor="#666666"
     pagecolor="#ffffff"
     id="base"
     inkscape:lockguides="true" />
  <metadata
     id="metadata5">
    <rdf:RDF>
      <cc:Work
         rdf:about="">
        <dc:format>image/svg+xml</dc:format>
        <dc:type
           rdf:resource="http://purl.org/dc/dcmitype/StillImage" />
        <dc:title />
      </cc:Work>
    </rdf:RDF>
  </metadata>
  <g
     transform="translate(-148.52146,-341.676)"
     id="computer"
     inkscape:groupmode="layer"
     inkscape:label="Layer 1">
    <g
       style="fill:url(#linearGradient849);fill-opacity:1"
       transform="matrix(0.02983682,0,0,0.02983682,148.68309,341.85454)"
       id="g1063">
      <g
         style="fill:url(#linearGradient872);fill-opacity:1"
         id="g1031">
        <g
           style="fill:url(#linearGradient870);fill-opacity:1"
           id="g1029">
          <g
             style="fill:url(#linearGradient854);fill-opacity:1"
             id="g1013">
            <path
               style="opacity:1;fill:#2a4c76;fill-opacity:1"
               inkscape:connector-curvature="0"
               d="m 715.8,855.8 c -4.8,0 -9.4,-0.9 -13.8,-2.3 -58.8,38.8 -129.1,61.5 -204.6,61.5 -74.8,0 -144.5,-22.4 -202.9,-60.5 -3.4,0.7 -6.8,1.3 -10.4,1.3 h -37.6 c 68.8,55.2 156,88.4 250.9,88.4 94.9,0 182,-33.2 250.9,-88.4 z"
               id="path1007" />
            <path
               style="opacity:1;fill:#2a4c76;fill-opacity:1"
               inkscape:connector-curvature="0"
               d="m 646.6,195.1 8.6,10.3 c 126.7,59.5 214.8,188 214.8,337.1 0,17.8 -1.7,35.3 -4.2,52.4 h 29.5 c 2.2,-17.3 3.8,-34.6 3.8,-52.4 0,-168.8 -104.8,-313.4 -252.6,-372.8 0.1,0 0.1,25.4 0.1,25.4 z"
               id="path1009" />
            <path
               style="opacity:1;fill:#2a4c76;fill-opacity:1"
               inkscape:connector-curvature="0"
               d="m 128.9,594.9 c -2.4,-17.2 -4.2,-34.6 -4.2,-52.4 0,-149.1 88.1,-277.5 214.8,-337.1 l 8.6,-10.3 v -25.4 c -147.8,59.5 -252.6,204 -252.6,372.8 0,17.8 1.6,35.3 3.8,52.4 z"
               id="path1011" />
          </g>
          <g
             style="fill:url(#linearGradient862);fill-opacity:1"
             id="g1021">
            <path
               style="fill:#3daee9;fill-opacity:1"
               inkscape:connector-curvature="0"
               d="M 615.6,206.3 V 195.5 131 66.5 c 0,-5.9 -4.8,-10.8 -10.7,-10.8 h -215 c -5.9,0 -10.8,4.8 -10.8,10.8 v 64.5 64.5 10.8 l -26.9,32.3 c 0,8.9 7.2,16.1 16.1,16.1 h 258 c 8.9,0 16.1,-7.2 16.1,-16.1 z m -96.7,43 h -43 c -1.5,0 -2.7,-1.2 -2.7,-2.7 0,-1.5 1.2,-2.7 2.7,-2.7 h 43 c 1.5,0 2.7,1.2 2.7,2.7 0,1.5 -1.2,2.7 -2.7,2.7 z m -65.8,-10.8 8.2,-9.8 h 72.2 l 8.2,9.8 z m 147.4,-51.2 c 0,5.2 -4.2,9.4 -9.4,9.4 H 403.6 c -5.1,0 -9.4,-4.2 -9.4,-9.4 V 74.8 c 0,-5.2 4.2,-9.4 9.4,-9.4 h 187.5 c 5.1,0 9.4,4.2 9.4,9.4 z"
               id="path1015" />
            <path
               style="opacity:1;fill:#3daee9;fill-opacity:1"
               inkscape:connector-curvature="0"
               d="m 963.1,776.5 v -10.8 -64.5 -64.5 c 0,-5.9 -4.8,-10.8 -10.8,-10.8 H 737.4 c -5.9,0.1 -10.8,4.8 -10.8,10.8 v 64.5 64.4 10.8 l -26.8,32.3 c 0,8.8 7.2,16.1 16.1,16.1 l 258,0.1 c 8.9,-0.1 16.1,-7.2 16.1,-16.1 z m -96.8,43 -43,-0.1 c -1.5,0.1 -2.7,-1.1 -2.7,-2.7 0,-1.6 1.2,-2.7 2.7,-2.7 h 43 c 1.5,0 2.7,1.2 2.7,2.7 0,1.6 -1.2,2.8 -2.7,2.8 z m -65.7,-10.7 8.2,-9.9 H 881 l 8.2,9.8 z M 948,757.4 c 0,5.2 -4.2,9.5 -9.4,9.5 H 751.1 c -5.1,0 -9.4,-4.2 -9.4,-9.4 V 644.9 c 0,-5.1 4.2,-9.4 9.4,-9.4 h 187.5 c 5.1,0 9.4,4.2 9.4,9.4 z"
               id="path1017" />
            <path
               style="fill:#3daee9;fill-opacity:1"
               inkscape:connector-curvature="0"
               d="m 273.4,776.5 v -10.8 -64.5 -64.5 c 0,-5.9 -4.8,-10.8 -10.8,-10.8 h -215 c -5.9,0.1 -10.8,4.8 -10.8,10.8 v 64.5 64.6 10.7 L 10,808.7 c 0,8.9 7.2,16.1 16.1,16.1 h 258 c 8.9,0 16.1,-7.2 16.1,-16.1 z m -96.8,43 h -43 c -1.5,-0.1 -2.7,-1.2 -2.7,-2.7 0,-1.5 1.2,-2.7 2.7,-2.7 h 43 c 1.5,0.1 2.7,1.2 2.7,2.7 0,1.5 -1.2,2.7 -2.7,2.7 z m -65.8,-10.8 8.2,-9.8 72.2,0.1 8.2,9.8 z m 147.4,-51.2 c 0,5.1 -4.2,9.4 -9.4,9.4 H 61.3 c -5.1,0 -9.3,-4.2 -9.3,-9.5 V 645 c 0,-5.2 4.2,-9.4 9.4,-9.4 l 187.5,-0.1 c 5.1,0 9.3,4.2 9.3,9.5 z"
               id="path1019" />
          </g>
          <g
             style="fill:url(#linearGradient868);fill-opacity:1"
             id="g1027">
            <path
               style="fill:url(#linearGradient864);fill-opacity:1"
               inkscape:connector-curvature="0"
               d="m 398,714.3 c -0.6,0 -1,0.4 -1.2,0.9 1,0.5 1.9,1 2.9,1.6 -0.7,-0.8 -1.3,-1.6 -1.7,-2.5 z"
               id="path1023" />
            <path
               style="opacity:1;fill:#d3dae3;fill-opacity:1"
               inkscape:connector-curvature="0"
               d="m 674.9,634.3 c 14.3,-27.5 22.4,-58.7 22.4,-91.9 0,-62.7 -28.9,-118.6 -74.1,-155.3 3.5,3.2 6.8,6.4 9.5,8.8 13.9,12.8 26.1,27.7 35.8,43.9 -0.3,0 -0.4,0.1 -0.6,0.2 6.7,9.7 11.9,20.5 16.1,31.7 -2.4,-3.3 -10.5,-8.4 -6.6,-0.6 1.9,3.9 6.6,5.9 8,9.7 1,-0.1 0.4,-1.5 1.2,-1.5 1,1.9 -0.3,4.2 1.9,5.6 2.8,9.2 4.9,18.7 6.4,28.4 -8.4,2.3 -15.2,10.8 -20.5,0.5 -2.8,-5.5 -4.2,-9.3 -8,-14.3 -2.8,-3.8 -6.8,-6.7 -7.9,-11.6 -1.9,-8 -15,-12.8 -15.4,-21.6 -0.1,-1.3 -3.3,-7.6 -3.1,-7.8 0.8,-0.7 0.5,-4 0.6,-4.9 0.2,-3.3 0.9,-5.9 0.1,-9.2 -7.1,1.9 -13.1,-1 -20.4,-1.7 0.3,-0.1 0.6,-0.3 0.6,-0.6 -2.1,-1.9 -3.6,-3.2 -6.1,-4.6 2.8,-2.8 -0.1,-1.6 -0.5,-3.4 -0.5,-2.5 6.1,-1.4 7.2,-1.9 -0.1,-0.3 -0.9,-0.7 -0.9,-1.1 -2.6,-0.5 -2.2,2.3 -5.1,0.3 -2.2,-1.6 -2.5,-0.6 -4.6,-0.3 0.3,0.6 0.4,1.1 0.4,1.7 0,0 -3.6,-2.6 -3.2,-0.6 2.1,2 3.3,4.1 5.8,6.1 -1.5,0.8 -2.8,-0.1 -4.1,-1.1 0.1,0.6 0.8,3.7 1.3,4 -2.9,-0.3 -4.6,-1.7 -3.4,-4.2 -2.2,-0.3 -7,-5 -7.5,-7.3 -0.7,-4.2 -6.4,-4.7 -6.8,-7.3 -1,-0.1 -12.6,-8.1 -12.3,-5.8 0.5,3.7 6.6,8.8 10.4,9.2 0.6,3.1 6.4,2.3 6.5,5.7 -5.5,-1.5 -3.4,-1.9 -2.8,2 -0.1,-0.5 -3.2,4.3 -3.6,1.9 5.8,0.6 -12.6,-13.9 -11.9,-12.3 -4.1,-4.2 -4.8,-5.8 -10.2,-3 -2.6,1.3 -11.4,-3.3 -9.1,2.5 -0.1,0.4 -12.2,5.6 -7,7.9 -1.6,2.2 -4.1,4.1 -6.3,5 -2.7,-1 -7.6,2.7 -9.2,0.3 -1.9,-3.1 -3.2,-1.9 -6.4,-2.1 -3.3,-0.3 -0.5,-11.2 -0.5,-12.6 0,-2 -1.7,-4.8 2.5,-4.5 3.6,0.3 7.1,1.1 10.8,1.5 4.1,-0.6 5.7,0.9 5.4,-4.7 -0.1,0 -0.1,0.1 -0.2,0.1 2.5,-4.1 -8.7,-5.2 -8.7,-7.4 0,-1.5 6.5,-0.1 7.2,-0.3 0,-0.7 -0.4,-1.3 -0.5,-2.1 5.2,0.5 5.9,-1.5 10.3,-2.4 3.7,-0.8 3.2,-4.7 7.6,-4.4 1.3,0.1 6,0.4 4.9,-1.6 -2.6,-4.5 -2.6,-4.5 2.2,-6.4 0.2,1.4 0.9,1.9 1.2,2.4 -0.2,0 -0.4,0.8 -0.6,1.8 0.9,0.1 1.5,0.5 1.3,1.6 -0.2,-0.7 -1,-0.4 -1.6,-0.7 -0.2,1.1 -0.4,1.9 -0.2,1.4 2.4,0.3 5.3,0.1 7.7,0.4 -0.4,2.9 8.8,-0.4 11,0.5 -0.1,0.2 -0.2,0.4 -0.2,0.6 0.9,0.1 1.9,0.1 2.7,0.1 -0.7,-5 8.3,-6.9 8.3,-5.6 0,-1.2 -4,-2.7 -2.8,-3.2 3.4,-1.8 7.4,0.9 11.1,-0.5 -1.4,-1.5 -18.8,-1 -16.2,-4.3 -1.5,-0.4 -1.3,-1.4 -2,-2.4 0.6,0.1 7.8,-2.5 7.7,-2.8 -1.4,-3.4 -7.1,-0.5 -7.7,0.5 0.5,1.6 -7.4,0.9 -7.1,3.3 0.5,2.6 3.6,1.9 4.2,4.2 0.1,0.4 -7.7,3.6 -2.8,4.5 0.1,1.9 -5.9,3.4 -7.2,3.3 -1.1,-0.2 -3.5,-4.7 -4.1,-5.7 -1.5,-2.2 -2.2,-3.9 -4.7,-2.3 -0.9,0.5 -8.3,2.4 -8.6,-0.3 -0.1,-0.7 1.3,0.1 1.1,-1.1 -1,-0.1 -1,-0.1 -1.9,0 0.3,-0.4 0.6,-0.7 1.1,-0.9 -5.2,-3.6 4.7,-5.6 7.1,-5.3 -0.8,-0.2 -1.1,-0.3 -1.7,-0.4 1.5,-0.1 13.1,-4.8 13.5,-6 -1.6,0.1 -2.2,0.3 -3.7,0.3 0.3,-0.1 1,-0.3 1.2,-0.3 -0.3,0 -1,-0.2 -1,-0.2 0.2,-0.6 5.4,-0.2 5.5,-0.2 -0.5,-0.1 -0.5,-0.1 -1.1,-0.1 0.8,-0.3 1.7,-0.5 2.6,-0.3 -0.4,-0.2 -0.3,-0.2 -0.6,-0.3 2.4,-0.7 5.4,0 7.9,-0.4 -1.9,-0.3 4.5,-1.5 3.9,0.4 2.6,0.3 5.3,1.1 8,2.5 -31,-19.7 -67.7,-31.2 -107.1,-31.2 -110.4,0 -199.9,89.6 -199.9,199.9 0,72.9 38.9,136.5 97.1,171.4 -1.2,-1.7 -0.3,-3.6 -1.2,-5.6 -1.3,-2.7 -3.4,-3.1 -3.4,-6.8 0,-7.4 -0.5,-12 -3.5,-19.4 -3.2,-4.2 -2.7,-13.5 -3.6,-18.7 -1.8,-5 -2.5,-10.1 -4.6,-15 -2.3,-5.3 -8.8,-9 -14.5,-9.7 -7.4,-1.3 -8.5,-7.6 -13,-12.5 -3.8,-4 -7.6,-8.6 -10.6,-13.1 -1.5,-2 -4.5,-2.2 -5.4,-5.7 -0.8,-3.2 2.3,-4.5 2.3,-7.4 -4.4,-2.4 -3.1,-3 -3,-7.8 0.1,-4.1 5.7,-8.5 5.6,-12.7 -1.1,-0.4 -1.5,-1 -1,-1.9 -0.9,-4 -6,-10.6 -0.9,-12.7 -1,-5.5 5.7,-9.2 9.8,-11 0.9,-0.4 1.9,-3.2 3.1,-1.6 0.6,0.6 0.5,1.3 -0.3,1.9 0,1.3 -0.8,7.7 2.1,7.6 1.3,-0.2 -3.6,-6.9 3.1,-7.3 -0.6,-1.2 -1.9,-0.6 -2.2,-1.9 2.4,-0.1 5.3,2 6.7,3.6 1.1,1.2 5.4,0.6 6.8,1.1 2,0.8 6,-1.9 8.7,-1.9 -0.3,0.3 -1,0.4 -1.4,0.3 0.9,4.5 10.9,5.6 13.7,9.7 2.2,3.2 11.6,4.1 15.1,4 4.1,-0.3 11.1,9.7 9.2,12.3 -2.9,3.9 1.3,8.7 5,8.3 3.7,-0.4 0.3,-7 7.5,-4.1 2.7,1.2 3.7,1 4.5,4.2 3.3,-0.4 7.7,-1.6 11.6,-0.6 3.9,1.1 6.3,3.6 10.4,4.5 8.9,1.9 0.4,18.2 -1.7,22.2 -1.5,3 3,13.1 2.4,17.5 -1.9,7.7 -3.1,10.4 -9.7,14.7 -1.8,1.1 -5.2,4.7 -4.8,7.2 0.6,2.1 1.3,4.3 2,6.4 -1.2,1.5 -1.8,3.2 -1.8,5 v 0 c -0.6,4.8 -2.5,9.1 -3.4,14.1 -0.6,3.3 -10.8,4.8 -11.2,3.8 1.9,5.1 9.2,2.9 5.8,10.6 -1.2,2.7 -5.4,3.3 -7.8,3.9 -3,0.7 0.1,4.1 0,5.7 1.4,3.2 -3.4,1.6 -5.3,2.1 -3.6,1 5.4,5.1 4.8,3.9 0.9,1.9 -2.1,0.9 -2.8,1.1 0.8,1.9 3.7,6.5 0.1,8.1 -5.4,3.3 4.1,5.2 5,7.8 23.1,9.3 48.3,14.5 74.7,14.5 75.6,0 141.4,-42 175.3,-103.9 1,-2 1.8,-3.1 2.8,-4 z M 599.3,388.8 c 0,0.6 -0.5,1.5 -1.4,1.4 -0.6,0 -0.9,-0.5 -0.9,-0.7 0.6,0 1,-0.2 1.5,-0.2 -1.7,-1.3 0.3,-0.8 0.8,-0.5 z m -8.1,1.1 c -0.4,0.5 -0.9,1 -1.3,1.6 -1,-0.9 0.9,-1.7 1.3,-1.6 z m -12.4,3.6 c -1.5,0.1 -0.9,3 -3.2,1.4 0.3,-0.3 0.5,-0.3 0.6,0 0.5,0 1,-0.3 1,-0.6 -3.5,-0.7 -0.2,-3.8 1.6,-0.8 z m -16.3,-24.9 c -0.3,0.1 -0.4,0.1 -0.5,0.1 0.5,0.2 0.9,0.2 1.2,0.3 -0.9,-0.2 2,0.2 2.4,0.3 -1.9,-1.7 2,-0.6 2.1,-0.6 0,0.2 -0.1,0.2 -0.1,0.4 0.9,-0.2 2.1,0 3.3,0.2 -0.2,-0.1 -0.4,-0.2 -0.5,-0.4 0.7,0.1 1.5,0 2.2,0 -0.2,0 -2.3,-0.1 -2.4,-0.1 -0.4,0 -2.2,0.1 -2.5,-0.5 0.6,0 1.1,0 1.6,0.1 v -0.1 c 0.3,0 0.5,0 0.8,0 -0.1,-0.1 -0.2,-0.1 -0.3,-0.2 3.3,0 8.5,-0.6 11.6,0.8 -1.1,0.2 -6.3,1 -9.2,0.6 0.5,0.2 0.9,0.3 1.3,0.5 -0.2,0.1 -0.3,0 -0.6,0 1.5,0.2 3.5,0.5 5.1,1.2 -1.5,0.1 -2,0.5 -3.4,0.6 -0.2,-0.1 -0.2,-0.3 0,-0.4 -0.6,0 -1.8,-0.1 -2.4,-0.2 0,-0.3 0.6,-0.2 0.7,-0.5 -0.4,0 -0.7,-0.3 -1,-0.6 -2.2,0.6 -8.6,2.9 -8.8,0.5 1.1,0 2,0.1 3.1,0.1 -0.4,-0.2 -3.7,0 -3.7,-0.6 0,0 1.9,-0.3 2.9,-0.4 -1.3,0 -3.6,0.3 -4.2,-0.2 0.1,-0.1 0.2,-0.1 0.3,-0.1 -0.7,-0.1 -1.3,-0.3 -1.1,-0.5 -0.5,-0.1 -0.9,-0.3 -1.4,-0.4 1.2,-0.1 2.3,-0.2 3.5,0.1 z m -3.3,0.6 v 0 c 0,0.1 0,0.1 0,0 0,0.1 0,0 0,0 z m -0.1,0 c 0.5,0.2 1,0.3 1.3,0.7 -0.7,0 -1.8,-0.5 -1.3,-0.7 z m 81,78.3 c 0.1,1.2 -4,3.6 -4.5,1.1 1.1,-0.4 3.1,-1 4.5,-1.1 z m -20,-0.7 c -1.4,0.6 -4.4,-0.4 -5.6,-1.1 1.9,-0.1 4.1,0.5 5.6,1.1 z M 591.5,436 c -0.2,0.7 -0.3,3.6 -0.3,3.6 -1.2,-0.1 -6.4,-3 -6.5,-4 1,-0.3 5.7,0.1 6.8,0.4 z m -15.9,-13.8 c 0,0.4 0.2,0.7 0.5,0.7 -0.2,0.9 -0.3,2.6 -0.5,3 -0.9,-0.3 -1.3,-2.4 -1.9,-3.1 0.6,0 1.3,-0.2 1.9,-0.6 z m -0.9,6.8 c -0.1,-0.6 -0.9,-1.1 -1.1,-1.8 6.6,-1 1.9,8.8 1.1,1.8 z m -13,0.5 c 0.1,0.9 -1.9,-0.4 -1.9,-0.5 1,-0.8 1.6,-0.6 1.9,0.5 z m -17.5,-44 c -0.6,0.4 -1.2,0.7 -1.9,1 0.8,1.5 2.3,1.9 4.7,0.6 0.3,1.3 -2.4,2.4 -2.6,3.1 3.1,0.8 7.7,3.9 7.9,7.1 0.5,-0.1 0.6,-0.3 0.9,-0.3 1.8,-0.8 1.8,1.1 -0.1,3.3 0.5,0.1 1.1,0.2 1.7,0.4 0,0.6 -13.7,1.8 -15.2,1.7 0.9,-1.6 5.4,-2.3 5.4,-3.2 -0.6,0.6 -4.9,-0.3 -4.9,-0.6 0,-1 1.6,-1.3 1.6,-3.2 1.3,0.1 3.5,0.1 3.5,-1.5 -1.2,0 -2.2,-0.2 -1.3,-1.4 -0.5,-0.1 -3.8,0.3 -3.7,-0.5 0,-1.8 2.1,-0.9 -0.5,-2.2 -0.4,0.3 -0.2,0.5 0,0.6 -0.3,0 -0.4,0 -0.6,0 0,-1.9 -0.3,-1.5 -0.3,-2.9 -1.1,-0.2 -1.7,-0.5 -1.7,-0.9 0.2,0 2.1,0.6 2.1,0.3 -1.5,-0.5 5.2,-4 5,-1.4 z m -3.5,8.4 c 0,-0.3 0.1,-0.5 0.6,-0.6 0.1,0 0.3,0.1 0.4,0.1 0,0.1 -0.1,0.3 -0.1,0.6 -0.2,-0.1 -0.4,-0.1 -0.9,-0.1 z m -2.8,-8.7 c 0,0.6 -0.6,1 -1.5,0.9 -1.6,0 1.3,-0.9 1.5,-0.9 z m -8.2,8.2 c 0.1,-0.9 2.6,-0.6 3.2,-0.9 -1.5,-1.6 2.5,-1.6 3.2,-1.4 4.6,0.3 1.2,2.4 1.2,2.9 -0.1,3.7 -2.6,4.9 -6.7,4.6 -4.3,-0.3 0.2,-3 0.5,-4.1 -0.4,-0.4 -0.8,-0.8 -1.4,-1.1 z m -111.6,-20 c 0.8,0 1.7,0 2.4,0 -0.5,0 -1,0 -1.5,-0.3 0.6,-0.3 1.3,-0.2 2,-0.2 -0.1,-0.1 -0.3,-0.1 -0.3,-0.2 0.9,-0.2 1.9,-0.2 2.8,-0.3 -0.4,-0.1 -1.2,-0.1 -0.8,-0.3 1.6,0 4.9,1.4 5.9,0.7 l -0.1,-0.1 c 1.2,-0.1 1,0.1 0.2,0.6 1.6,-0.9 2,1.1 4.6,-0.7 0.2,-0.1 -1.2,-0.6 -1.7,-0.6 1.2,0 1.5,-0.1 0.8,-0.3 -1.3,0 -2.3,-0.2 -2.5,-0.5 0.5,-0.1 1,-0.2 1.5,-0.3 -0.6,0.1 -1.4,0.1 -2.1,0.1 1.1,-0.4 2.2,-0.4 3.5,-0.5 -1.2,-0.2 -2.4,0.4 -3.6,0.2 0.7,-0.1 1.1,-0.2 1.7,-0.3 -1.1,0.2 -2.1,0.2 -3.2,0.2 5.8,-2.1 22.2,-3.6 28,-1.5 -3,0.8 4.9,-0.4 4.6,0.3 -0.3,0.6 -5,0.6 -5.4,0.6 0.2,0.1 1.6,-0.1 2.4,-0.1 -4.2,1.2 -8.7,1.1 -12.9,2.1 0.4,0 0.7,0 1.1,0 -0.3,0.3 -0.6,0.3 -1.5,0.3 0.4,0.1 0.8,0.1 0.8,0.4 -1.9,0.4 -2.9,0.8 -4.9,1 -0.4,0.9 -2.1,0.5 -2.9,1.2 0.5,-0.1 1.9,-0.2 1.7,0 -3.2,3.1 -10.6,0.4 -15.3,0.8 0.9,-0.3 1.9,-0.5 2.9,-0.5 -2.6,-1.2 3.3,-0.5 4.1,-0.6 -1.3,-1 -3.5,-0.8 -4.8,-0.5 0,0.1 0.2,0.2 0.1,0.3 -1.1,0 -4.6,-0.3 -5.6,0.1 0.2,0 0.4,0 0.6,0 -0.2,0 -0.5,0.1 -0.8,0.1 0.1,0 0.2,-0.1 0.2,-0.1 -0.3,0 -0.6,-0.1 -0.8,-0.4 1.4,-0.3 2.8,-0.4 4.2,-0.4 -0.6,-0.1 -2.7,-0.2 -4,-0.2 0.1,0 0.3,0 0.4,-0.1 -1.6,0.5 -2.5,0.5 -1.8,0 z m 17.4,6.6 c -1.2,0.6 -3.9,0.5 -5.2,0.6 -0.1,0 -2,-0.4 -1.5,-0.8 1.5,-1.2 5.1,-0.2 6.7,0.2 z m -22.3,-6.3 c 0.6,0 1.3,0 1.6,-0.1 -0.2,0.1 -0.4,0.3 -0.6,0.4 0.8,0 -1.7,0.1 -1,-0.3 z m 2.3,1.9 c 0.4,-0.1 0.5,0 0,0 v 0 c -1.1,0 -5,0.3 -2.6,-0.1 -1.2,-1 3.8,-1.3 2.6,0.1 z m 1.8,0.2 c -0.4,0.3 -0.9,0.4 -1.4,0.4 -0.3,0 -2.7,-0.1 -2.7,-0.1 1.4,-0.3 2.8,-0.3 4.1,-0.3 z m 2.4,1.5 c -0.6,0.1 -1.3,0.1 -1.9,0.1 -0.5,0.5 1.2,0.2 1.6,0.4 -1.1,0.3 13.8,-1 14,-0.1 -0.3,0 -0.6,0.1 -0.9,0.3 0.3,0 0.6,0 0.6,0 -3.7,2.3 -10.7,-1.1 -14,0.7 -0.9,0 -7,0 -3.7,-0.6 -0.3,-1 -0.8,-1.2 -1.8,-0.6 -0.8,0 -1.6,-0.2 -2.4,-0.5 0.6,-0.5 8.3,-0.5 8.5,0.3 z m -7.2,1 c 1.5,0.7 -4.2,0.6 -4.2,0.6 0.3,-0.2 1,-0.3 1.1,-0.3 1,-0.6 2,-0.7 3.1,-0.3 z m -9,-3.1 c 0.2,0 0.4,-0.1 0.6,-0.2 -0.6,0 -0.7,-0.1 -0.4,-0.2 1.3,-0.2 5.4,-0.6 6.4,0.4 -0.2,0 -0.5,0.1 -0.6,0.2 0.4,0.4 -1.1,0.6 -2.8,0.6 -0.4,0.1 -0.9,0.1 -1.5,0.2 0.3,0 0.7,-0.1 1.1,-0.2 -1.4,0 -2.9,-0.2 -3.2,-0.5 0.7,0.1 1.5,-0.1 2.1,-0.5 -1.2,0.2 -1.6,0.3 -1.7,0.2 z m -3.1,1.1 c 1.2,-0.1 0.6,0.4 1.4,0.4 -0.3,0.1 -0.7,0.3 -1,0.3 -0.6,0.1 -0.8,-0.4 -0.4,-0.7 z m -0.2,1.4 v 0 c 0,-0.6 2.2,0.3 2.8,0.4 h 0.1 c -0.2,-0.1 -0.3,-0.1 -0.3,-0.2 1,-0.6 1.9,0.3 3,-0.4 -0.8,0.1 -1.5,0.1 -1.2,-0.2 0.4,-0.1 4.5,0 4.5,0 0,2.6 -5.1,1 -6.2,1.7 0.6,-0.5 2,-0.6 2.6,-0.7 -0.6,-0.3 -1.5,-0.2 -2.4,-0.2 0,0.1 0,0.1 0,0.1 0,0 0,0 -0.1,-0.1 -1,0.2 -2,0.3 -2.7,0.3 0.1,-0.1 0.1,-0.1 0.2,-0.3 -0.6,0.2 -0.6,0 -0.8,-0.1 z m 4.5,2.9 c -0.9,0.4 -1.8,0.6 -2.8,0.8 0.6,0 2.4,-0.6 1.1,0.3 0.2,0 0.8,0.1 1,0.1 -1.9,1.1 -6.5,2.7 -8.2,0.3 1.3,-0.8 2.6,0.1 3.9,-0.8 -3.6,-0.1 4.7,-0.5 5,-0.7 z m -5.8,5.9 c -0.9,0.3 -7.3,0.3 -4,-0.3 -1.3,0.3 5,-1.9 4,0.3 z m -1.4,-7.2 c -0.4,0.1 -0.5,0 -0.9,0.1 0.7,-0.4 1.4,-0.5 2.2,-0.6 -0.2,0.5 -0.6,0.7 -1.3,0.5 z m -5.8,-3 c 0.7,-0.5 3.1,-0.3 4.5,-0.3 0.3,-0.1 0.6,-0.1 0.9,-0.1 -0.1,0.1 -0.5,0.1 -0.9,0.1 -0.2,0 -0.5,0.1 -0.6,0.1 0.1,0.1 0.2,0.2 0.2,0.3 -2.7,0.3 -3,0.4 -1,0.3 -0.6,0.4 -2.4,0.6 -3.3,0.6 -1.1,0.1 0.6,-0.6 2.2,-1.1 -0.8,-0.2 -1.4,-0.1 -2,0.1 z m -1.3,0.4 c -0.6,0.4 -1,0.4 -1.4,0.1 0.5,-0.3 1,-0.3 1.4,-0.1 z m -3.1,1.2 c 0.5,-0.1 1,-0.1 1.5,-0.1 -0.4,0.3 -0.9,0.5 -1.4,0.4 -0.2,-0.1 -0.4,-0.2 -0.1,-0.3 z m -0.6,-0.7 c 0.6,0.2 0.4,0.4 -0.7,0.5 -0.4,0.6 -1.1,0.9 -2,0.7 0.7,-0.9 1.6,-1.3 2.7,-1.2 z m -3.8,2 c 0.5,-0.3 0.8,-0.3 1.4,-0.3 -0.1,0 -0.2,-0.1 -0.3,-0.1 0.5,-0.2 0.9,-0.3 1.4,-0.3 -0.2,0 -0.3,-0.1 0,-0.2 2.3,-0.3 4.6,1.4 7.1,0.4 -0.5,0.1 -0.6,0 -0.8,-0.1 0.4,0 0.8,-0.1 1,-0.3 -1.9,-0.1 2.3,-0.8 2.7,-0.8 -2.3,1.1 2.4,0.7 2,1 -3.3,1.9 -8.5,0.4 -12.1,1.1 0,0.7 -0.6,0.9 -1.7,0.6 0.5,-0.3 1.1,-0.6 1.7,-0.6 0,0 0,-0.1 0,-0.1 -0.3,0 -0.7,0.2 -0.9,0.3 -0.9,0.2 -1.9,0.3 -2.8,0.2 0.4,-0.6 1,-0.9 1.7,-0.8 -0.2,0.1 -0.3,0 -0.4,0 z m -8.6,6.5 c 0.6,-0.6 3.1,-2.7 4.7,-3.3 -0.1,0 -0.2,0 -0.3,0 0.4,-0.3 0.8,-0.6 1.2,-0.8 0.1,0.3 0,0.5 -0.1,0.6 0.4,0 0.6,0.2 0.4,0.8 2.5,-0.6 6.5,0.8 6.1,0.8 2.4,-0.1 4.8,-3.9 8,-2.8 -0.2,-0.1 -2.9,1.7 -3.1,2.1 -1.2,2.5 0.2,1 1.9,2.4 -0.8,0.3 -2.5,0.1 -3.2,0.6 0.1,-0.1 0.4,0.5 0.4,0.5 -2.3,1.1 -15.9,1.6 -16.5,0.9 -0.2,-0.1 -1.1,0 -1.8,0 2,-1.6 3.1,-1.5 5.5,-1.8 -1,-0.4 -2.5,-0.2 -3.2,0 z m -2.9,2.2 c 0.6,-0.1 0.6,0.2 0.5,0.8 -0.4,0.1 -1.2,0.1 -1.8,0.3 0.4,-0.4 0.9,-0.8 1.3,-1.1 z m -32.2,111.2 c 0.3,-0.7 0.6,-1.1 1.3,-1.3 0.3,-0.7 0.3,-1.4 0.8,-0.8 -1.4,4.1 -1.6,1.2 -2.1,2.1 z m 10.2,19.5 c -5.8,0.2 -3.2,-3 -2.5,-2.9 1,0.3 1.9,1.3 2.3,1.8 0,-0.1 0,-0.3 0,-0.4 0.4,0.4 0.4,0.9 0.2,1.5 z m 0.1,-10.9 c 1.7,-4.1 0.4,-10.6 -5.7,-11.3 -1.6,-5.4 -2.1,1.4 -7,0.7 4.9,-6.3 8.7,-7.3 14.1,-1.9 1.7,1.8 5.7,7.4 5.5,8.9 2.7,0.8 0.7,2.3 2,4.2 -2.8,3.7 -5.8,-0.1 -8.9,-0.6 z m 8.3,-22.7 c 0.3,-0.5 0.6,1.5 0.4,1.9 -1,2.1 -0.6,-1.6 -0.4,-1.9 z m 8.2,34.1 c -0.2,-1.9 -3.1,2.7 -3.8,2.5 0,0 -4.4,-7.8 -6.2,-2.8 -4.7,-2.8 4.6,-3.6 5.1,-3.3 0.1,-0.9 0.2,-9.8 2.5,-6.4 1,1.7 2.6,0.4 4.1,0.6 3.1,0.5 2.7,3.5 3.8,5.6 -0.2,-0.7 -0.3,-1 0,0.1 0,0 0,-0.1 0,-0.1 0.3,1.3 1.1,4.1 1.1,3.9 -0.3,0 -6.6,0 -6.6,-0.1 z m -6.7,-39.8 c 0.4,-0.4 1.1,-0.7 1.6,-0.7 0.6,0.1 0.6,0.6 0.6,1 -1,0 -1.8,-0.3 -2.2,-0.3 z m 5.8,21.1 c -0.2,1.3 -0.9,1.9 -2.3,1.8 -1.4,-0.4 2,-1.5 2.3,-1.8 z m -2.4,-20.2 c 0,0.3 0,0.6 0,1 -0.3,0 -0.2,-0.6 0,-1 z m 12.9,41.6 c 0.7,-2.1 4.1,0.7 4.2,1.8 -1.1,1.5 -4.8,0.4 -4.2,-1.8 z m 42.8,-91.2 c -3.2,1.8 0.1,-3.7 4.5,-3.9 -1.1,0.2 -1.4,-0.2 -0.7,-1 -3.2,0.1 -8.6,3.8 -11.1,3.2 -2.7,-0.6 -11,6.2 -6.4,6.1 -2.8,1 -6.9,0.8 -9.9,2.1 0.6,0 2.3,-0.4 2.8,0.1 -1.7,0.5 -9.3,3.2 -8.8,4.3 -1.4,0.8 -1.9,5.3 -4.5,5.2 0.2,0 1.1,-3.8 1.2,-4.2 -0.6,0.6 -2.9,4.6 -2.7,5.3 0.2,0 0.4,0 0.6,0 -0.4,0.9 -1.1,1.6 -2.1,1.9 0,0.6 0.3,0.7 0.7,0.8 -0.8,1 -2.9,0.6 -1.5,2.2 -1.8,1.4 -4.2,1.7 -6.1,3 0,0 0.1,0.2 0.1,0.2 -7.7,3.2 -14.5,6.6 -15.5,15.7 -0.3,2.3 -3,12.5 -6.4,12.1 -3.1,-0.4 2.8,-15.2 2.4,-16.4 0,-0.1 -8.6,-1.6 -8.2,-2.4 -1.3,0.3 -2.6,0 -4.1,0.5 0.5,0.4 0.4,0.4 1,0.1 -0.9,1.4 -2,2.2 -1.6,3.1 -2.5,1.1 -4.8,-4 -8.2,-2.1 -5.1,2.7 -8.8,5.1 -11.7,10.2 -0.1,0 -0.1,0 -0.2,0 -0.7,1.8 -15.7,26.6 -8.8,28.1 9.4,2 9.8,-11.2 20,-9.5 -1.3,2.7 -3.6,4.6 -4.8,7.3 -0.8,1.7 -1.6,2.6 -2.4,3.6 -1.2,1.9 -11.6,10.5 -2.5,10.9 10.9,0.7 2.8,11 0.6,16.6 -1.9,5 -5.9,21.3 3.5,17.3 4.5,-1.9 4.6,4.8 5.3,7.4 -0.3,0.5 -3.7,3.5 -3.7,3.5 -0.2,-1.5 1.5,-6.8 -0.6,-7.6 -4.2,-1.5 -4.5,8.5 -6.6,7.6 -4,-1.6 -2,-17 -5,-18 -0.3,0.4 -0.6,1.1 -0.6,1.5 -0.3,-0.1 -0.5,-0.2 -0.7,-0.3 -0.8,-3.1 1.9,-6.3 1.7,-9.6 -0.2,-2.9 -0.6,-5.4 0.2,-8.3 -2.7,-0.8 -5.2,-2.7 -6.6,-6.2 -0.5,-1.3 0.1,-7.7 -1.3,-8 -0.9,-3.7 -2.6,1.1 -4.3,0.6 -1.9,-0.5 -2.5,-6.9 -4.1,-6.9 5.3,-28.9 17.1,-56.5 34.3,-80.5 8.4,-11.8 18.2,-22.5 29,-32.2 3.5,-3.2 7.8,-7 13.2,-5.1 0.9,0.3 3.7,0.1 5.3,-1.2 -0.1,0 -0.2,0 -0.2,0 -0.9,0.2 -3.6,0.6 -3.2,0.3 0.4,-0.3 1.5,-0.3 3.2,-0.3 0.2,0 0.3,0 0.3,0 0,0 -0.1,0 -0.1,0 4.2,0.2 10.9,1 13.3,0.4 0.4,-0.3 0.9,-0.6 0.9,-0.6 0,0.3 -0.4,0.5 -0.9,0.6 -0.4,0.3 -0.6,0.4 0.5,0.3 1.7,-1.3 4.5,-1 5.2,-2 -0.6,0.1 -0.9,0.2 -1.5,0.3 0.5,-0.3 1,-0.5 1.5,-0.8 0.5,-0.4 -2.4,-0.6 -1.9,-1 1.9,-1.4 8.6,-1.6 7,-0.4 -0.7,0.3 -1.4,0.5 -2.1,0.6 0.1,0.4 1.6,0.1 2.2,0.3 -2.2,0.6 0.5,0.1 -1,1.3 -0.3,0 5.5,-1.4 4.4,-0.5 -1.4,-0.1 -1.9,0.5 -1.7,1.5 1.6,1.6 6.4,-2.8 7.7,-3.1 -0.1,0 -9.9,-0.2 -8.7,-1.1 1.4,0.6 2.6,0.5 3.6,-0.4 -0.3,-0.2 -3.4,-0.3 -3.4,-0.3 -0.6,-1.3 3.7,-1.9 4.4,-2.2 -1.2,0.4 -3.3,0.2 -4.5,0.8 0.2,0 0.4,0 0.6,-0.1 -1.1,0.6 -2.1,0.9 -3.3,0.8 3.5,-2.4 5.3,-2.4 10.1,-2.6 -0.8,0.4 -1.5,0.6 -2.4,0.8 2.3,-0.5 4.4,-0.5 6.6,-0.4 -0.8,0.2 -4.7,1.2 -3.5,1.2 -2.6,1.2 8.3,-2.5 8.9,-0.6 0.1,0.1 -0.5,1 -0.7,1 4.6,0 8.4,1.5 12.8,1.6 0,0.1 -0.1,0.2 -0.1,0.3 0.5,-0.1 1,0 1.4,0.5 -0.5,0.1 -1,0 -1.3,0.3 0.5,-0.1 1.1,0 1.5,0.2 -0.6,0.2 -0.9,0.2 -1.3,0.5 0.4,0.2 5.7,1.9 5.6,2.1 -0.4,2.4 -4.3,1.3 -6.2,1.1 -0.2,0.5 -0.6,0.1 -0.8,0.7 1.1,-0.1 1.5,1.3 2.9,1.1 -1.1,3.6 -1,1.5 -5.1,2.3 -0.1,-0.2 4.6,2.1 2.1,2.7 -3.1,0.6 -6.7,-1.6 -8.6,-2.5 -0.7,-0.4 -8.9,0.6 -8.6,0.1 1.8,-2.4 6.5,-1.6 9,-2.8 -2,-0.6 5.2,-1.9 2.8,-3.6 0,1.6 -3.9,0.5 -3.8,0.4 1,-0.6 2,-0.9 3.2,-0.8 -0.6,-0.3 -3.4,-0.4 -3.5,-0.4 0.5,-0.1 0.9,-0.2 1.4,-0.4 -0.3,-0.3 -0.7,-0.6 -1.1,-0.6 -0.6,0 -1.3,0.2 -1.7,0.6 0.6,-0.5 1.2,-0.6 1.7,-0.6 0,0 0.1,0 0.2,0 -1.2,-0.6 -5.7,0.5 -4.8,-0.2 -0.7,0 -1.9,0 -3.2,0.1 1,0.1 2,0.6 3,0.6 -1.9,1.6 -5.5,3.3 -9.4,4.5 0.8,-0.2 0.5,0.2 0.6,0.4 -0.7,0 -0.9,-0.2 -0.6,-0.4 -0.6,0.2 -1.3,0.4 -2,0.6 0,0.2 0.1,0.3 0,0.5 0.6,-0.3 3.3,0.1 3.6,0.8 0,0.2 -0.3,0.4 -0.2,0.6 0.6,0.4 1.8,0.1 1.9,0.5 -2.7,0.7 -7.3,1.2 -10.1,1.4 -0.7,0 -0.2,-0.3 0.3,-0.6 -0.8,-0.1 -2,0.1 -2.5,0.1 0.9,-0.7 3.4,-2.1 5.3,-3 -2.1,0.3 -4.1,0.3 -5.7,-0.2 -0.2,0.9 1.9,0.6 3.5,0.8 -2.3,1.9 -8.2,2.7 -11.7,2.3 0.3,0.1 0.6,0.3 0.9,0.5 -3.1,2.8 -10.4,5.1 -14.2,7.6 3,-0.5 2.7,0.6 0.7,2.7 7.1,-0.3 6.4,3.9 12.1,3.7 1.9,1.3 -0.9,3.1 -1.1,4.1 0.7,-0.1 2,-0.1 1.4,0.6 -0.5,0.1 -0.9,-0.1 -1.4,-0.3 0.2,0.4 1.2,0.6 3.6,0.6 2.8,-3.1 -0.4,-4.2 5,-6.4 6.8,-2.7 1.8,-2.7 1.7,-6.2 7.3,-1.6 4.4,-8.1 14.1,-3.4 2.8,1.3 11.2,3.8 13.3,-0.1 -1.3,2.2 -0.5,2.5 0.7,2.9 -0.5,-0.3 -0.8,-0.5 -1.1,-0.9 2.5,-3.4 7.9,3.8 3.6,5.3 0.6,0.4 1.2,1 2.9,1 l -0.1,0.1 c -1.4,2.4 5.7,1.7 5.1,2.4 -1,1 -5.6,1.4 -7.6,1.9 0.2,1 8.4,-1.1 9.1,-1.4 2.5,8.4 -22.6,7.6 -27.8,11.8 0.6,0 13.3,-3 12.3,-1.1 -0.9,1.5 -3.2,1.1 -4.5,1.9 0.7,0 1.5,0.2 1.9,0.2 -4.5,5.5 5.6,4.8 5.1,5.8 -1.6,1.8 -10.3,3.2 -12.2,4.2 z m -14.1,-35.7 c -1,0.5 -3.2,1.2 -4.2,1.3 0.2,-0.1 0.3,-0.3 0.5,-0.4 1.2,-0.6 2.4,-1.2 3.7,-0.9 z m 28.5,20.5 c 1.6,0.3 -1.4,1.2 0,0 z m -0.2,2.5 c -1.5,1.2 -3.8,-0.5 -5,-1.4 2.7,-0.4 3.7,0.7 5,1.4 z m -4.1,6.2 c -1,2 -4.7,-0.1 -4.4,-0.6 0.1,-0.3 0.4,-0.4 0.6,-0.6 0.9,1.3 2.2,1.7 3.8,1.2 z m 1.5,1.2 c 0.9,-0.9 1.9,-1.7 3.1,-2.2 0,0.3 0.4,0.4 0.3,0.6 -0.3,0.6 -1.8,1 0.2,1 -0.6,1.4 -4,1.5 -3.6,0.6 z m 10.8,-2.7 c 0,0 -4.1,2.1 -3.9,1.7 0.4,-0.5 0.8,-0.8 1.4,-1 -1,0 -10.2,-0.7 -10.1,-0.7 0.4,-1 1.9,-0.6 2.3,-1.6 -0.3,0 -0.6,-0.1 -0.6,-0.3 3.6,-1.1 6.4,-6.5 10.3,-6.5 1.2,0 -3.5,3.8 -3.6,4.1 0.9,-0.6 1.8,-0.6 2.8,-0.3 -0.5,0.2 -0.7,0.5 -0.8,0.9 0.5,0 1,0 1.5,0 0,0.1 -0.2,0.3 -0.2,0.3 0.4,0 0.8,-0.2 1.2,-0.3 0.9,0.3 2,0.3 2.6,0 -0.2,0.6 -0.6,1.1 -0.9,2 0.2,-0.1 0.7,-0.2 1.1,-0.2 -0.7,1.4 -0.5,0.6 -1.1,2 0.9,0.1 0.7,-0.2 1.3,-0.4 -1.7,4.7 -1.5,2.1 -3.3,0.3 z m 51,-41.6 c -0.8,2.4 -3.8,-1.5 -4.2,0 0.7,0.4 4.8,1 4.3,2.6 -0.3,1.1 -5.2,-0.7 -5.9,-0.9 -0.3,0.7 0.6,0.7 -0.9,0.9 -0.2,0.7 4.3,0.6 5.3,0.8 -4.3,1.5 -9,2.2 -13.5,2.2 -2.9,0.8 -4.6,2.8 -8,2.7 0.1,-0.2 0.1,-0.3 0.2,-0.5 -3.1,0.6 -6.8,6.9 -8.4,6.7 -1.1,-0.1 -8.6,-3.5 -5.9,-5 -0.6,-0.6 -2.8,-1 -1.5,-2.8 -0.2,-0.1 -0.5,-0.1 -0.6,0 0.5,-1.6 3.2,-1.9 4.2,-3.2 -1,-0.2 -3.3,-0.3 -3.2,-0.9 0.9,-0.2 2.2,0.9 2.8,0 -0.3,0 -2.5,-1.3 -3.3,-1.2 0.9,-0.5 1,-0.8 0.1,-1 1.4,-3.4 -5.9,-3.4 -7.9,-2.9 0.1,0 0.1,0.1 0.2,0.1 -0.6,0.1 -1.3,0 -1.9,-0.3 0.3,-0.1 0.5,-0.1 0.6,-0.3 -0.6,-0.3 -1.2,-0.4 -1.8,-0.2 0.7,-1.1 3.2,0 4.1,-1 -0.4,0 -4.8,0.4 -4.6,-0.3 0.9,-1.8 5.5,-0.1 6.5,-2 -0.6,0.1 -1.3,0 -1.9,-0.2 1.1,-2.1 11.1,-2.5 12.6,-2.6 0.4,-0.7 1.5,-0.6 2.3,-0.3 -0.1,-0.1 -0.2,-0.3 -0.1,-0.3 0.5,-0.7 4.5,0 5.3,0 -0.6,0 -1.2,-0.1 -1.7,-0.6 0.5,-0.2 1,-0.3 1.5,-0.3 -0.2,-0.1 -0.4,-0.1 -0.5,-0.2 10,-2.3 21.1,-1.8 31.3,-1.5 -0.7,0.6 -1.9,1 -3.3,1.2 1.1,-0.1 1.9,-0.2 1.9,0 -0.1,0.1 -4.1,1.3 -4.3,1.6 1.1,-0.2 20.5,-2.5 20.3,-2.2 -0.6,1 -4.7,1.2 -6.8,1.3 -0.6,1.1 -8.4,2.8 -9.8,3.6 1.2,-0.3 2.4,-0.1 3.6,0.2 -0.3,0.1 -0.7,0.2 -1.1,0.2 0.7,0.1 1.4,0.3 2.1,0.6 -0.6,1.3 -4.6,-0.6 -5.2,0.8 -0.2,0.3 2.4,0.1 2,1.2 -0.4,1.1 -1.7,0 -2,0.8 0.6,0.4 1.3,0.6 2,0.4 -0.5,0.4 -1.6,0.6 -2.7,0.6 0,0.2 0.2,0.3 0.4,0.4 -1.3,1.5 -3.8,0.4 -5.4,0.4 1.1,0.5 2,0.9 2.8,1.4 z m 2.5,4.4 c 0.8,0 2.3,0 3,-0.1 0.1,0.1 -2.3,-1 -2.2,-1.3 0.8,-0.1 2,-0.5 2.8,-0.4 -0.8,1.8 1,1.1 1.6,0.7 0.6,0.8 1.6,0.1 2.4,0.6 0.1,-0.6 6.2,-0.1 6.9,0 -1.6,0.5 0.8,1.6 0.3,2.3 -5.8,2.5 -8.9,0.2 -14.3,-0.3 0.2,-0.2 0.4,-0.3 0.6,-0.3 0.3,-0.5 0.6,-0.6 1,-1 -0.7,-0.1 -1.8,0.2 -2.1,-0.2 z m 161.4,216.8 c -0.1,3.6 4.7,7.2 3.3,10.5 -4.1,8.7 3.7,17.5 -6.4,23.9 -3.5,2.2 -8.1,4.2 -8.9,8.8 -6.5,1.3 -0.5,9 -0.6,12.2 -0.3,7.4 -1.7,5.8 -6.3,9.7 -4.8,4.1 -0.2,7.6 -4.3,12.5 -3.8,4.5 -5.8,9.9 -9.3,14.7 -1.5,2 -8.7,4.6 -9,6.2 -3.9,0.5 -7.2,-0.5 -11,1.5 -3.6,1.9 -7.8,-0.6 -9.1,0.1 0.1,-12.8 -10.1,-22.5 -11.6,-35.9 -0.6,-6.2 -0.8,-8.6 -3.7,-14.2 -3,-5.9 -5.5,-12.5 -4.3,-19.2 0.9,-4.9 4.8,-8.2 5.9,-12.8 1.1,-4.6 -1.1,-11.8 -2.3,-16.3 -1.3,-4.8 -1.6,-10.8 -4.8,-14.8 -3.2,-4 -8.7,-9.3 -6.6,-15 3.2,-8.7 4.7,-17.7 -7.9,-17.5 -3.9,0.1 -3.5,-7.6 -8.1,-7.5 -6.2,0.2 -11.2,7.3 -16.4,7.4 -2.1,0.1 -3.9,-1.9 -6.1,-1.8 -2.7,0 -4.6,1.5 -7,2.4 -5.3,1.8 -9.2,-3.4 -12.5,-6.7 -4.4,-4.5 -5.2,-10.5 -9.3,-15.1 -2.3,-2.5 -4.6,-5.1 -6.4,-8.1 0.1,0 0.2,0 0.3,0 0,-3.5 -2.2,-7 -0.5,-9.7 1.8,-2.8 3,-6.7 3.2,-10.1 0.2,-4.8 -3.2,-11.7 -0.7,-16.1 1.9,-3.3 3.2,-6.7 4.7,-10.2 2,-4.3 3.9,-9.7 8.6,-11.4 2.6,-1 5.8,-3.7 6.6,-6.4 0.9,-2.9 0.3,-6.3 2.2,-8.9 2.7,-3.8 5.9,-7.1 8.8,-10.8 -0.1,0 -0.1,0 -0.2,0 3.2,-4.3 8.1,0.5 13.7,-2.8 4.5,-2.5 10.1,-5.4 15.4,-5.6 3.5,-0.1 6.7,0 10.3,-0.1 1.7,0 3.9,-3.2 5.4,-0.8 0.9,1.2 1.8,1.2 2.8,0.3 -0.2,3.1 -1.5,5.7 -1.5,9.1 0,6.1 5.8,4.1 9.4,5.3 3.3,1.1 16,14.9 15.8,4.3 -0.2,-9.2 13.3,-1.3 16.7,-0.1 4.8,1.7 8.5,2.3 13.2,0.6 3.6,-1.3 6.8,1 10.5,0 2.2,5.5 1.9,6.8 0.6,12.4 -2,-0.3 -4.1,-5.5 -5.8,-7.5 0.3,5.8 5.8,12.7 8.5,17.8 1.8,3.4 2.2,7 4.1,10.3 2.3,3.9 1.3,9.3 4.1,12.4 3,3.3 4.1,5 5.1,9.6 1.3,6 11,9.9 12.3,15.6 1.9,8.2 4.5,6.2 11.2,5 3.8,-0.8 7.4,-2.8 11,-4 3.9,9.5 -6.4,27.7 -11.7,35.5 -6.1,8.9 -16,12.2 -18.6,23.7 -0.6,3.1 -3.4,4.7 -3.4,8.1 -0.1,3 0.6,6.2 0.6,9.5 z"
               id="path1025" />
          </g>
        </g>
      </g>
      <g
         style="fill:url(#linearGradient874);fill-opacity:1"
         id="g1033" />
      <g
         style="fill:url(#linearGradient876);fill-opacity:1"
         id="g1035" />
      <g
         style="fill:url(#linearGradient878);fill-opacity:1"
         id="g1037" />
      <g
         style="fill:url(#linearGradient880);fill-opacity:1"
         id="g1039" />
      <g
         style="fill:url(#linearGradient882);fill-opacity:1"
         id="g1041" />
      <g
         style="fill:url(#linearGradient884);fill-opacity:1"
         id="g1043" />
      <g
         style="fill:url(#linearGradient886);fill-opacity:1"
         id="g1045" />
      <g
         style="fill:url(#linearGradient888);fill-opacity:1"
         id="g1047" />
      <g
         style="fill:url(#linearGradient890);fill-opacity:1"
         id="g1049" />
      <g
         style="fill:url(#linearGradient892);fill-opacity:1"
         id="g1051" />
      <g
         style="fill:url(#linearGradient894);fill-opacity:1"
         id="g1053" />
      <g
         style="fill:url(#linearGradient896);fill-opacity:1"
         id="g1055" />
      <g
         style="fill:url(#linearGradient898);fill-opacity:1"
         id="g1057" />
      <g
         style="fill:url(#linearGradient900);fill-opacity:1"
         id="g1059" />
      <g
         style="fill:url(#linearGradient902);fill-opacity:1"
         id="g1061" />
    </g>
    <g
       transform="matrix(0.9375,0,0,0.9375,148.52146,341.676)"
       id="computer-laptop">
      <rect
         style="fill:#566060;fill-opacity:0;stroke:none"
         id="rect3847"
         width="32"
         height="32"
         x="0"
         y="-3.907985e-13" />
    </g>
  </g>
</svg>
