<?xml version="1.0" encoding="UTF-8" standalone="no"?>
<svg
   xmlns:osb="http://www.openswatchbook.org/uri/2009/osb"
   xmlns:dc="http://purl.org/dc/elements/1.1/"
   xmlns:cc="http://creativecommons.org/ns#"
   xmlns:rdf="http://www.w3.org/1999/02/22-rdf-syntax-ns#"
   xmlns:svg="http://www.w3.org/2000/svg"
   xmlns="http://www.w3.org/2000/svg"
   xmlns:sodipodi="http://sodipodi.sourceforge.net/DTD/sodipodi-0.dtd"
   xmlns:inkscape="http://www.inkscape.org/namespaces/inkscape"
   viewBox="0 0 22 22"
   id="svg"
   version="1.1"
   inkscape:version="0.92.4 (5da689c313, 2019-01-14)"
   width="100%"
   height="100%"
   sodipodi:docname="configure.svg">
  <defs
     id="defs81">
    <style
       id="current-color-scheme"
       type="text/css" />
    <linearGradient
       osb:paint="solid"
       id="linearGradient5606">
      <stop
         style="stop-color:#000000;stop-opacity:1;"
         offset="0"
         id="stop5608" />
    </linearGradient>
  </defs>
  <metadata
     id="metadata34">
    <rdf:RDF>
      <cc:Work
         rdf:about="">
        <dc:format>image/svg+xml</dc:format>
        <dc:type
           rdf:resource="http://purl.org/dc/dcmitype/StillImage" />
        <dc:title />
      </cc:Work>
    </rdf:RDF>
  </metadata>
  <sodipodi:namedview
     pagecolor="#ffffff"
     bordercolor="#000000"
     borderopacity="1"
     objecttolerance="10"
     gridtolerance="10"
     guidetolerance="10"
     inkscape:pageopacity="0.10196078"
     inkscape:pageshadow="2"
     inkscape:window-width="1920"
     inkscape:window-height="1015"
     id="namedview32"
     showgrid="false"
     inkscape:zoom="12.24709"
     inkscape:cx="10.882819"
     inkscape:cy="12.320613"
     inkscape:window-x="0"
     inkscape:window-y="0"
     inkscape:window-maximized="1"
     inkscape:current-layer="svg"
     borderlayer="false"
     showguides="false"
     inkscape:guide-bbox="true"
     inkscape:snap-bbox="true"
     inkscape:showpageshadow="false">
    <inkscape:grid
       type="xygrid"
       id="grid3046"
       empspacing="4"
       visible="true"
       enabled="true"
       snapvisiblegridlinesonly="true" />
  </sodipodi:namedview>
  <g
     id="layer9"
     inkscape:label="status"
     style="display:inline"
     transform="translate(-486.16354,15.513273)" />
  <g
     id="layer1"
     inkscape:label="places"
     style="display:inline"
     transform="translate(-245.16334,-601.48672)" />
  <g
     id="layer14"
     inkscape:label="mimetypes"
     style="display:inline"
     transform="translate(-486.16354,15.513273)" />
  <g
     id="layer15"
     inkscape:label="emblems"
     style="display:inline"
     transform="translate(-486.16354,15.513273)" />
  <g
     id="g71291"
     inkscape:label="emotes"
     style="display:inline"
     transform="translate(-486.16354,15.513273)" />
  <g
     id="g6058"
     inkscape:label="apps"
     style="display:inline"
     transform="translate(-245.16334,-451.48672)" />
  <g
     id="layer12"
     inkscape:label="actions"
     style="display:inline"
     transform="translate(-486.16354,15.513273)" />
  <g
     id="configure"
     inkscape:label="#g4196">
    <rect
       style="opacity:0.001;fill:#000000;fill-opacity:1;stroke:none"
       id="rect2985"
       width="22"
       height="22.000006"
       x="2.2031236e-08"
       y="-6.2102054e-06" />
    <g
       transform="translate(3,3)"
       id="g4152">
      <g
         id="g4154">
        <rect
           rx="1"
           y="-1.7979214"
           x="2.0149236"
           height="4"
           width="4"
           transform="rotate(45)"
           style="opacity:1;fill:#d3dae3;fill-opacity:1;stroke:none"
           id="rect4164" />
        <rect
           width="4"
           height="4"
           x="16.353262"
           y="-1.9422632"
           rx="1"
           transform="rotate(45)"
           style="opacity:1;fill:#d3dae3;fill-opacity:1;stroke:none"
           id="rect4166" />
        <rect
           rx="1"
           y="-8.9497471"
           x="9.1923885"
           height="4"
           width="4"
           transform="rotate(45)"
           style="opacity:1;fill:#d3dae3;fill-opacity:1;stroke:none"
           id="rect4168" />
        <rect
           width="4"
           height="4"
           x="9.2562637"
           y="5.0969977"
           rx="1"
           transform="rotate(45)"
           style="opacity:1;fill:#d3dae3;fill-opacity:1;stroke:none"
           id="rect4170" />
        <path
           inkscape:connector-curvature="0"
           d="M 8,1.5 A 6.5,6.5 0 0 0 1.5,8 6.5,6.5 0 0 0 8,14.5 6.5,6.5 0 0 0 14.5,8 6.5,6.5 0 0 0 8,1.5 M 8,5 A 3,3 0 0 1 11,8 3,3 0 0 1 8,11 3,3 0 0 1 5,8 3,3 0 0 1 8,5"
           style="opacity:1;fill:#d3dae3;fill-opacity:1;stroke:none"
           id="path4172" />
      </g>
      <path
         inkscape:connector-curvature="0"
         d="M 8,3 A 5,5 0 0 0 3,8 5,5 0 0 0 8,13 5,5 0 0 0 13,8 5,5 0 0 0 8,3 M 8,6 A 2,2 0 0 1 10,8 2,2 0 0 1 8,10 2,2 0 0 1 6,8 2,2 0 0 1 8,6"
         style="opacity:1;fill:#718dcf;fill-opacity:1;stroke:none"
         id="path4174" />
    </g>
  </g>
  <g
     id="16-16-configure"
     inkscape:label="#g4169">
    <rect
       y="5.9999952"
       x="22"
       height="16.000004"
       width="16"
       id="rect4159"
       style="opacity:0.001;fill:#000000;fill-opacity:1;stroke:none" />
    <g
       inkscape:label="#g4245"
       id="16-16-configure2">
      <rect
         rx="0.875"
         y="-13.063709"
         x="24.112953"
         height="3.5"
         width="3.5"
         transform="matrix(0.70710678,0.70710678,-0.70710678,0.70710678,0,0)"
         style="opacity:1;fill:#d3dae3;fill-opacity:1;stroke:none"
         id="rect4173" />
      <rect
         width="3.5"
         height="3.5"
         x="34.612953"
         y="-13.063709"
         rx="0.875"
         transform="matrix(0.70710678,0.70710678,-0.70710678,0.70710678,0,0)"
         style="opacity:1;fill:#d3dae3;fill-opacity:1;stroke:none"
         id="rect4175" />
      <rect
         rx="0.875"
         y="-18.313709"
         x="29.362953"
         height="3.5"
         width="3.5"
         transform="matrix(0.70710678,0.70710678,-0.70710678,0.70710678,0,0)"
         style="opacity:1;fill:#d3dae3;fill-opacity:1;stroke:none"
         id="rect4177" />
      <rect
         width="3.5"
         height="3.5"
         x="29.362953"
         y="-7.8137093"
         rx="0.875"
         transform="matrix(0.70710678,0.70710678,-0.70710678,0.70710678,0,0)"
         style="opacity:1;fill:#d3dae3;fill-opacity:1;stroke:none"
         id="rect4179" />
      <path
         inkscape:connector-curvature="0"
         d="M 30,8.3124998 A 5.6875,5.6875 0 0 0 24.3125,14 5.6875,5.6875 0 0 0 30,19.6875 5.6875,5.6875 0 0 0 35.6875,14 5.6875,5.6875 0 0 0 30,8.3124998 M 30,11.375 A 2.625,2.625 0 0 1 32.625,14 2.625,2.625 0 0 1 30,16.625 2.625,2.625 0 0 1 27.375,14 2.625,2.625 0 0 1 30,11.375"
         style="opacity:1;fill:#d3dae3;fill-opacity:1;stroke:none"
         id="path4181" />
      <path
         style="opacity:1;fill:#718dcf;fill-opacity:1;stroke:none"
         d="M 30 10 A 4 4 0 0 0 26 14 A 4 4 0 0 0 30 18 A 4 4 0 0 0 34 14 A 4 4 0 0 0 30 10 z M 30 12 A 2 2 0 0 1 32 14 A 2 2 0 0 1 30 16 A 2 2 0 0 1 28 14 A 2 2 0 0 1 30 12 z "
         id="path4242" />
    </g>
  </g>
</svg>
