<?xml version="1.0" encoding="UTF-8" standalone="no"?>
<svg
   xmlns:dc="http://purl.org/dc/elements/1.1/"
   xmlns:cc="http://creativecommons.org/ns#"
   xmlns:rdf="http://www.w3.org/1999/02/22-rdf-syntax-ns#"
   xmlns:svg="http://www.w3.org/2000/svg"
   xmlns="http://www.w3.org/2000/svg"
   xmlns:sodipodi="http://sodipodi.sourceforge.net/DTD/sodipodi-0.dtd"
   xmlns:inkscape="http://www.inkscape.org/namespaces/inkscape"
   version="1.1"
   x="0px"
   y="0px"
   viewBox="0 0 25.87846 30"
   enable-background="new 0 0 1000 1000"
   xml:space="preserve"
   id="svg22"
   sodipodi:docname="device.svg"
   inkscape:version="0.92.4 (5da689c313, 2019-01-14)"
   width="25.87846"
   height="30"><defs
   id="defs14" /><metadata
   id="defs26"><rdf:RDF><cc:Work
       rdf:about=""><dc:format>image/svg+xml</dc:format><dc:type
         rdf:resource="http://purl.org/dc/dcmitype/StillImage" /></cc:Work></rdf:RDF></metadata><sodipodi:namedview
   pagecolor="#ffffff"
   bordercolor="#666666"
   borderopacity="1"
   objecttolerance="10"
   gridtolerance="10"
   guidetolerance="10"
   inkscape:pageopacity="0"
   inkscape:pageshadow="2"
   inkscape:window-width="1920"
   inkscape:window-height="1009"
   id="namedview24"
   showgrid="false"
   inkscape:zoom="4.7855556"
   inkscape:cx="-42.647426"
   inkscape:cy="2.3806618"
   inkscape:window-x="0"
   inkscape:window-y="0"
   inkscape:window-maximized="1"
   inkscape:current-layer="svg22" />
<g
   id="g20"
   transform="matrix(0.0244893,0,0,0.0244893,0.82317938,2.9201032)"><g
     transform="matrix(0.1,0,0,-0.1,0,512)"
     id="device-notifier"><path
       d="m 2302.4,4853.5 -273.7,-162.7 v -1137 -1136.9 h -145.5 -143.6 l 7.7,-2109.3 c 5.8,-2046.1 7.7,-2116.9 45.9,-2283.5 97.6,-423 275.6,-681.4 606.8,-869 379,-218.2 1133.1,-277.5 1690.1,-135.9 472.8,122.5 802,434.5 922.6,880.5 72.7,268 78.5,432.6 78.5,2501.7 V 2415 l -137.8,5.7 -139.7,5.7 -5.7,1133.1 -3.8,1131.2 -279.5,164.6 -279.5,164.7 -834.5,-1.9 -836.5,-1.9 z M 4316,4600.8 4488.3,4491.7 4494,3463.9 4497.8,2436 H 3416.4 2335 v 1024 1024 l 178,114.8 176.1,114.8 727.3,-1.9 h 727.3 z"
       id="path4"
       style="fill:#d3dae3;fill-opacity:1"
       inkscape:connector-curvature="0" /><path
       d="m 2717.8,2876.2 v -153.1 h 153.1 153.1 v 153.1 153.1 h -153.1 -153.1 z"
       id="path6"
       style="fill:#5d76af;fill-opacity:1"
       inkscape:connector-curvature="0" /><path
       d="m 3808.8,2876.2 v -153.1 h 153.1 153.1 v 153.1 153.1 h -153.1 -153.1 z"
       id="path8"
       style="fill:#5d76af;fill-opacity:1"
       inkscape:connector-curvature="0" /><path
       d="m 1489,-230.3 c -40.2,-99.5 -166.5,-380.9 -283.3,-622.1 -216.3,-451.7 -335,-769.4 -396.2,-1056.6 -49.8,-233.5 -47.8,-842.2 1.9,-1071.9 44,-202.9 147.4,-503.4 231.6,-669.9 191.4,-379 535.9,-769.5 882.4,-1001.1 l 193.3,-128.3 H 3418.3 4718 l 191.4,128.3 c 467,313.9 849.8,821.1 1031.7,1364.7 95.7,290.9 116.8,440.2 116.8,851.7 0,581.9 -61.3,809.6 -430.7,1588.7 -124.4,264.1 -252.7,543.6 -283.3,622.1 l -57.4,143.7 -9.6,-861.3 c -7.7,-656.5 -17.2,-895.8 -38.3,-1008.7 -155,-792.4 -624,-1186.7 -1515.9,-1278.6 -524.4,-55.5 -1029.8,24.9 -1410.7,222 -273.7,141.7 -532.1,451.7 -637.4,763.7 -88,262.2 -91.9,304.3 -103.4,1269 l -11.5,926.4 z m 2021.2,-3443.4 c 24.9,-34.4 30.6,-109.1 30.6,-413.4 0,-367.5 0,-369.4 -47.9,-415.4 -59.3,-59.3 -93.8,-59.3 -153.1,0 -47.9,45.9 -47.9,47.9 -47.9,415.4 0,421.1 9.6,455.5 124.4,455.5 46.1,0 74.8,-13.4 93.9,-42.1 z"
       id="path10"
       style="fill:#d3dae3;fill-opacity:1"
       inkscape:connector-curvature="0" /><path
       d="m 8238,-299.2 c -32.5,-19.1 -68.9,-63.2 -84.2,-95.7 -40.2,-99.5 -13.4,-179.9 111,-323.5 157,-183.8 223.9,-285.2 319.6,-488.1 114.8,-245 164.6,-451.7 178,-736.9 21.1,-541.7 -147.4,-1014.5 -505.3,-1403 -57.4,-61.3 -107.2,-134 -114.8,-160.8 -45.9,-183.7 149.3,-354.1 312,-269.9 74.6,38.3 245,225.8 359.8,396.2 534,796.3 551.3,1824.1 44,2631.8 -109.1,174.3 -294.8,398.3 -377.1,451.8 -65,44.1 -168.4,44.1 -243,-1.9 z"
       id="path12"
       style="fill:#718dcf;fill-opacity:1"
       inkscape:connector-curvature="0" /><path
       d="m 7587.2,-615 c -90,-40.2 -141.7,-118.7 -141.7,-216.3 0,-68.9 11.5,-95.7 72.7,-164.6 170.4,-189.5 260.3,-335 335,-539.8 178,-495.8 80.4,-1018.3 -269.9,-1452.8 -124.4,-153.1 -137.8,-178 -137.8,-254.6 0,-72.7 9.6,-95.7 67,-153.1 63.2,-63.2 74.7,-67 164.6,-59.3 84.2,9.6 109.1,21 191.4,103.3 53.6,51.7 143.5,164.6 202.9,252.7 384.7,574.2 430.7,1305.4 120.6,1927.5 -93.8,191.4 -304.3,480.4 -388.5,534 -65.1,44.1 -149.3,53.6 -216.3,23 z"
       id="path14"
       style="fill:#718dcf;fill-opacity:1"
       inkscape:connector-curvature="0" /><path
       d="m 6857.9,-1028.4 c -67,-40.2 -114.8,-155 -95.7,-233.5 7.7,-24.9 59.3,-105.3 118.7,-178 292.8,-369.4 285.2,-830.7 -21.1,-1205.8 -84.2,-101.4 -93.8,-124.4 -93.8,-206.7 0,-82.3 7.7,-99.5 70.8,-158.9 59.3,-53.6 88,-65.1 153.1,-65.1 76.6,0 90,9.6 208.6,130.2 229.7,241.2 348.4,553.2 348.4,922.6 1.9,319.7 -86.1,576.1 -285.2,840.3 -49.8,67 -116.8,137.8 -149.3,156.9 -76.5,45.8 -177.9,45.8 -254.5,-2 z"
       id="path16"
       style="fill:#718dcf;fill-opacity:1"
       inkscape:connector-curvature="0" /></g></g>
</svg>