<?xml version="1.0" encoding="UTF-8" standalone="no"?>
<svg
   xmlns:dc="http://purl.org/dc/elements/1.1/"
   xmlns:cc="http://creativecommons.org/ns#"
   xmlns:rdf="http://www.w3.org/1999/02/22-rdf-syntax-ns#"
   xmlns:svg="http://www.w3.org/2000/svg"
   xmlns="http://www.w3.org/2000/svg"
   xmlns:sodipodi="http://sodipodi.sourceforge.net/DTD/sodipodi-0.dtd"
   xmlns:inkscape="http://www.inkscape.org/namespaces/inkscape"
   version="1.1"
   x="0px"
   y="0px"
   viewBox="0 0 24 24"
   enable-background="new 0 0 1000 1000"
   xml:space="preserve"
   id="svg46"
   sodipodi:docname="dropbox.svg"
   inkscape:version="0.92.4 (5da689c313, 2019-01-14)"
   width="24"
   height="24"><defs
   id="defs26" /><metadata
   id="defs50"><rdf:RDF><cc:Work
       rdf:about=""><dc:format>image/svg+xml</dc:format><dc:type
         rdf:resource="http://purl.org/dc/dcmitype/StillImage" /></cc:Work></rdf:RDF></metadata><sodipodi:namedview
   pagecolor="#ffffff"
   bordercolor="#666666"
   borderopacity="1"
   objecttolerance="10"
   gridtolerance="10"
   guidetolerance="10"
   inkscape:pageopacity="0"
   inkscape:pageshadow="2"
   inkscape:window-width="1920"
   inkscape:window-height="1009"
   id="namedview48"
   showgrid="false"
   inkscape:zoom="8"
   inkscape:cx="4.9312042"
   inkscape:cy="14.698241"
   inkscape:window-x="0"
   inkscape:window-y="0"
   inkscape:window-maximized="1"
   inkscape:current-layer="svg46" />
<g
   id="dropbox"
   transform="matrix(0.01989796,0,0,0.01989796,2.0260204,2.2010196)"><g
     id="g12"><path
       d="M 846.5,153.5 C 753.9,61 630.9,10 500,10 369.1,10 246.1,61 153.5,153.5 61,246.1 10,369.1 10,500 10,630.9 61,754 153.5,846.5 246.1,939 369.1,990 500,990 630.9,990 753.9,939 846.5,846.5 939,754 990,630.9 990,500 990,369.1 939,246.1 846.5,153.5 Z M 824.8,824.8 C 738.1,911.6 622.7,959.4 500,959.4 377.3,959.4 261.9,911.6 175.2,824.9 88.4,738.1 40.6,622.7 40.6,500 40.6,377.3 88.4,261.9 175.2,175.2 261.9,88.4 377.3,40.6 500,40.6 c 122.7,0 238.1,47.8 324.8,134.6 86.8,86.8 134.5,202.1 134.5,324.8 0.1,122.7 -47.7,238.1 -134.5,324.8 z"
       id="path4"
       style="fill:#2a4c76;fill-opacity:1"
       inkscape:connector-curvature="0" /><path
       d="m 833.1,230.1 c -5.3,-6.6 -15,-7.6 -21.5,-2.2 -6.6,5.3 -7.6,15 -2.2,21.5 57.3,70.6 88.8,159.6 88.8,250.6 0,106.4 -41.4,206.3 -116.6,281.5 -75.3,75.2 -175.2,116.6 -281.6,116.6 -98.1,0 -192.4,-36 -265.4,-101.4 -6.3,-5.6 -16,-5.1 -21.6,1.2 -5.6,6.3 -5.1,16 1.2,21.6 78.6,70.5 180.1,109.3 285.8,109.3 114.5,0 222.2,-44.6 303.2,-125.6 81,-81 125.6,-188.6 125.6,-303.2 0,-98.1 -34,-193.9 -95.7,-269.9 z"
       id="path6"
       style="fill:#3b6ca7;fill-opacity:1"
       inkscape:connector-curvature="0" /><path
       d="m 101.9,500 c 0,-219.5 178.6,-398.1 398.1,-398.1 98.1,0 192.4,36 265.4,101.4 6.3,5.6 16,5.1 21.6,-1.2 5.6,-6.3 5.1,-16 -1.2,-21.6 C 707.2,110 605.7,71.3 500,71.3 c -114.5,0 -222.2,44.6 -303.2,125.6 -81,81 -125.6,188.6 -125.6,303.2 0,98.1 34,193.9 95.6,270 3,3.7 7.4,5.7 11.9,5.7 3.4,0 6.8,-1.1 9.6,-3.4 6.6,-5.3 7.6,-15 2.2,-21.5 C 133.4,680.1 101.9,591.1 101.9,500 Z"
       id="path8"
       style="fill:#d3dae3;fill-opacity:1"
       inkscape:connector-curvature="0" /><path
       d="m 779,372.3 c -0.2,-4.9 -2.8,-9.4 -6.9,-12.1 L 617.9,259.7 c -5.6,-3.7 -13,-3.2 -18.2,1.1 l -98,81.8 -98.1,-81.8 c -5.2,-4.3 -12.5,-4.7 -18.2,-1.1 L 231.3,360.3 c -4.1,2.7 -6.7,7.2 -6.9,12.1 -0.2,4.9 1.9,9.6 5.7,12.7 l 91.6,73.4 -91.6,73.3 c -3.8,3.1 -6,7.8 -5.7,12.7 0.2,4.9 2.8,9.4 6.9,12.1 l 101.1,66 c -0.1,0.7 -0.2,1.5 -0.2,2.2 v 42.3 c 0,5.4 2.8,10.4 7.4,13.1 l 154.5,92.6 c 2.4,1.5 5.1,2.2 7.9,2.2 2.8,0 5.4,-0.7 7.9,-2.2 l 154.5,-92.6 c 4.6,-2.8 7.4,-7.8 7.4,-13.1 v -42.3 c 0,-0.9 -0.1,-1.8 -0.2,-2.6 l 100.5,-65.6 c 4.1,-2.7 6.7,-7.2 6.9,-12.1 0.2,-4.9 -1.9,-9.6 -5.7,-12.7 l -91.6,-73.3 91.6,-73.4 c 3.8,-3.1 5.9,-7.9 5.7,-12.8 z M 501.7,536.4 375.4,458.5 501.7,380.6 628,458.4 Z m -109,-244.8 82.8,69.1 -128.1,79.1 -81.6,-65.4 z m -45.3,185.5 128.1,79.1 -82.8,69.1 -127,-82.8 z M 641.2,658.4 502,741.8 362.8,658.4 v -16 l 22.6,14.8 c 2.6,1.7 5.5,2.5 8.4,2.5 3.5,0 7,-1.2 9.8,-3.6 l 98.1,-81.8 98,81.8 c 2.8,2.4 6.3,3.6 9.8,3.6 2.9,0 5.8,-0.8 8.4,-2.5 L 641.2,642 Z M 610.7,625.3 527.9,556.2 656,477.1 737.6,542.4 Z M 656,439.7 527.9,360.6 l 82.8,-69.1 126.9,82.8 z"
       id="path10"
       style="fill:#d3dae3;fill-opacity:1"
       inkscape:connector-curvature="0" /></g><g
     id="g14" /><g
     id="g16" /><g
     id="g18" /><g
     id="g20" /><g
     id="g22" /><g
     id="g24" /><g
     id="g26" /><g
     id="g28" /><g
     id="g30" /><g
     id="g32" /><g
     id="g34" /><g
     id="g36" /><g
     id="g38" /><g
     id="g40" /><g
     id="g42" /></g>
<g
   id="system-shutdown"
   transform="matrix(0.75,0,0,0.75,61.967285,0)"><rect
     ry="0"
     rx="0"
     y="0"
     x="-82.623047"
     height="32"
     width="32"
     id="rect1131"
     style="opacity:0;fill:#000000;fill-opacity:1;fill-rule:evenodd;stroke:none;stroke-width:2;stroke-linecap:round;stroke-linejoin:round;stroke-miterlimit:4;stroke-dasharray:none;stroke-opacity:1;paint-order:fill markers stroke" /><g
     transform="translate(2.3769531,44)"
     id="g1134" /></g></svg>