<?xml version="1.0" encoding="UTF-8" standalone="no"?>
<svg
   xmlns:dc="http://purl.org/dc/elements/1.1/"
   xmlns:cc="http://creativecommons.org/ns#"
   xmlns:rdf="http://www.w3.org/1999/02/22-rdf-syntax-ns#"
   xmlns:svg="http://www.w3.org/2000/svg"
   xmlns="http://www.w3.org/2000/svg"
   xmlns:sodipodi="http://sodipodi.sourceforge.net/DTD/sodipodi-0.dtd"
   xmlns:inkscape="http://www.inkscape.org/namespaces/inkscape"
   version="1.1"
   x="0px"
   y="0px"
   viewBox="0 0 30.005142 29.999994"
   enable-background="new 0 0 1000 1000"
   xml:space="preserve"
   id="svg12"
   sodipodi:docname="edit.svg"
   width="30.005142"
   height="29.999994"
   inkscape:version="0.92.4 (5da689c313, 2019-01-14)"><defs
   id="defs10" /><metadata
   id="defs16"><rdf:RDF><cc:Work
       rdf:about=""><dc:format>image/svg+xml</dc:format><dc:type
         rdf:resource="http://purl.org/dc/dcmitype/StillImage" /></cc:Work></rdf:RDF></metadata><sodipodi:namedview
   pagecolor="#ffffff"
   bordercolor="#666666"
   borderopacity="1"
   objecttolerance="10"
   gridtolerance="10"
   guidetolerance="10"
   inkscape:pageopacity="0"
   inkscape:pageshadow="2"
   inkscape:window-width="1920"
   inkscape:window-height="1009"
   id="namedview14"
   showgrid="false"
   inkscape:zoom="5.3400706"
   inkscape:cx="-9.2707388"
   inkscape:cy="12.842438"
   inkscape:window-x="0"
   inkscape:window-y="0"
   inkscape:window-maximized="1"
   inkscape:current-layer="svg12"
   inkscape:lockguides="true"><inkscape:grid
     type="xygrid"
     id="grid823" /></sodipodi:namedview>
<g
   id="16-16-edit-delete"
   transform="matrix(0.6500001,0,0,0.6500001,-1.1944418,-618.46002)"><g
     transform="matrix(0.1,0,0,-0.1,0,512)"
     id="g8"><path
       d="m 235.51656,-4479.4798 c -29.15697,-2.9332 -57.31545,-14.4924 -79.7855,-32.6166 -7.56871,-6.1055 -19.94742,-18.8372 -25.4035,-26.1087 -15.95773,-21.2946 -25.63902,-44.9948 -29.56736,-72.3357 -1.114414,-7.9796 -0.939899,-30.6212 0.35223,-39.013 4.10562,-26.6924 13.43515,-49.1623 29.27317,-70.3412 5.39804,-7.2717 21.35582,-23.2288 28.63064,-28.6288 25.69408,-19.1856 54.20804,-29.3322 85.88782,-30.4488 34.3192,-1.2909 67.46556,9.2097 95.74397,30.3303 7.39092,5.5185 23.34899,21.4756 28.86292,28.8644 25.1092,33.6751 35.37554,75.2081 28.45307,115.6934 -4.2254,25.0504 -15.54778,50.0415 -31.62193,69.8143 -5.75003,7.098 -18.65543,19.5957 -25.6361,24.8163 -20.65095,15.4865 -43.82264,25.1674 -69.69432,29.1568 -7.33601,1.1115 -27.98737,1.6404 -35.49511,0.8173 z m 27.92334,-11.674 c 17.01419,-1.7031 32.03215,-6.0421 47.75401,-13.7883 27.74847,-13.664 49.04604,-34.9617 62.77167,-62.7717 10.20808,-20.5867 14.90166,-42.18 14.19738,-65.4109 -0.64604,-21.064 -4.92891,-38.3672 -14.13851,-57.1994 -13.72628,-27.9297 -35.55003,-49.8089 -63.41544,-63.3597 -13.49314,-6.57 -25.16744,-10.2663 -40.18534,-12.6756 -10.32411,-1.6989 -29.74477,-1.816 -39.60057,-0.2912 -25.34521,3.9314 -48.2837,13.8417 -67.5235,29.2136 -25.58095,20.4132 -43.94245,51.3342 -49.75049,83.7732 -11.73261,65.5902 24.93207,130.4748 87.00237,154.0596 19.76966,7.5129 42.00425,10.5014 62.88842,8.4504 z"
       id="edit-delete"
       style="fill:#2a4c76;fill-opacity:1;stroke-width:0.03061732"
       inkscape:connector-curvature="0" /><path
       d="m 226.07468,-4541.3666 c -3.51323,-1.356 -6.42851,-4.4619 -8.08802,-8.7652 -0.99102,-2.549 -1.25954,-5.1801 -1.25954,-12.9062 v -9.8004 l -20.34827,-0.1585 -20.41901,-0.2372 -0.19464,-8.1217 -0.20212,-8.2079 h 7.02714 6.95918 v -58.7242 c 0,-55.4512 0.0719,-58.9564 1.25844,-62.0674 1.52708,-4.0609 5.37042,-7.8873 9.08394,-9.0009 3.97787,-1.1963 97.30778,-1.1963 101.28652,0 3.71301,1.1136 7.55525,4.94 9.08157,9.0009 1.19222,3.1062 1.25935,6.6162 1.25935,61.984 v 58.718 l 6.82912,0.2407 6.76056,0.2378 v 7.9666 7.9666 l -20.35248,0.2359 -20.41927,0.1592 v 9.5588 c 0,10.7569 -0.72861,13.8618 -4.17432,18.1658 -3.64756,4.5396 -6.10027,4.9392 -29.89848,4.8602 -16.03874,0.017 -22.00313,-0.3107 -24.18967,-1.1049 z m 45.01084,-23.5052 v -7.9666 h -20.55127 -20.55049 v 7.9666 7.967 h 20.55049 20.55127 z m 27.17607,-81.6616 v -56.9643 h -6.96039 -6.95919 v 48.9965 48.9985 h -6.63055 -6.62594 v -48.9985 -48.9965 h -6.96153 -6.96155 v 48.9965 48.9985 h -6.62819 -6.62739 v -48.9985 -48.9965 h -6.96264 -6.96046 v 48.9965 48.9985 h -6.62644 -6.6302 v -48.9985 -48.9965 h -6.96056 -6.95891 v 56.9643 56.9636 h 47.7266 47.72734 z"
       id="22-22-edit-delete"
       style="fill:#d3dae3;fill-opacity:1;stroke-width:0.03792709"
       inkscape:connector-curvature="0" /></g></g>
</svg>