<?xml version="1.0" encoding="UTF-8" standalone="no"?>
<svg
   xmlns:dc="http://purl.org/dc/elements/1.1/"
   xmlns:cc="http://creativecommons.org/ns#"
   xmlns:rdf="http://www.w3.org/1999/02/22-rdf-syntax-ns#"
   xmlns:svg="http://www.w3.org/2000/svg"
   xmlns="http://www.w3.org/2000/svg"
   xmlns:sodipodi="http://sodipodi.sourceforge.net/DTD/sodipodi-0.dtd"
   xmlns:inkscape="http://www.inkscape.org/namespaces/inkscape"
   inkscape:version="1.0 (4035a4fb49, 2020-05-01)"
   sodipodi:docname="input.svg"
   viewBox="0 0 32 32.000001"
   version="1.1"
   id="svg3869"
   height="32"
   width="32">
  <sodipodi:namedview
     inkscape:document-rotation="0"
     inkscape:lockguides="true"
     inkscape:current-layer="svg3869"
     inkscape:window-maximized="1"
     inkscape:window-y="0"
     inkscape:window-x="0"
     inkscape:cy="-48.691343"
     inkscape:cx="-63.313595"
     inkscape:zoom="1.6404877"
     showgrid="false"
     id="namedview49"
     inkscape:window-height="1013"
     inkscape:window-width="1920"
     inkscape:pageshadow="2"
     inkscape:pageopacity="0"
     guidetolerance="10"
     gridtolerance="10"
     objecttolerance="10"
     borderopacity="1"
     bordercolor="#000000"
     pagecolor="#ffffff">
    <inkscape:grid
       originy="-1.4277344e-05"
       originx="-38"
       id="grid874"
       type="xygrid" />
  </sodipodi:namedview>
  <metadata
     id="metadata25">
    <rdf:RDF>
      <cc:Work
         rdf:about="">
        <dc:format>image/svg+xml</dc:format>
        <dc:type
           rdf:resource="http://purl.org/dc/dcmitype/StillImage" />
        <dc:title />
      </cc:Work>
    </rdf:RDF>
  </metadata>
  <defs
     id="defs3871">
    <style
       id="current-color-scheme"
       type="text/css" />
  </defs>
  <g
     id="22-22-input-mouse-battery"
     transform="translate(-348,-524.36218)">
    <rect
       id="rect8"
       ry="0"
       y="534.36218"
       x="326"
       height="22"
       width="22"
       style="opacity:1;fill:none" />
    <path
       inkscape:connector-curvature="0"
       id="path10"
       transform="translate(326,534.3622)"
       d="M 13.5,3 C 10.453,3 8,5.676 8,9 v 4 c 0,3.324 2.453,6 5.5,6 3.047,0 5.5,-2.676 5.5,-6 V 9 C 19,5.676 16.547,3 13.5,3 Z m 0,1 C 15.993,4 18,6.007 18,8.5 v 5 C 18,15.993 15.993,18 13.5,18 11.007,18 9,15.993 9,13.5 v -5 C 9,6.007 11.007,4 13.5,4 Z m 0,2 C 13.223,6 13,6.223 13,6.5 v 2 C 13,8.777 13.223,9 13.5,9 13.777,9 14,8.777 14,8.5 v -2 C 14,6.223 13.777,6 13.5,6 Z"
       style="color:#31363b;fill:#d3dae3;fill-opacity:1;stroke:none"
       class="ColorScheme-Text" />
    <path
       inkscape:connector-curvature="0"
       id="path12"
       d="m 331,537.3622 -2,5 h 2 v 3 l 2,-5 h -2 z"
       style="color:#31363b;fill:#3daee9;fill-opacity:1;stroke:none"
       class="ColorScheme-Text" />
  </g>
  <g
     id="22-22-input-keyboard-battery"
     transform="translate(-370,-620.36217)">
    <rect
       id="rect15"
       ry="0"
       y="534.36218"
       x="348"
       height="22"
       width="22"
       style="opacity:1;fill:none" />
    <path
       inkscape:connector-curvature="0"
       id="path17"
       transform="translate(332,396.36218)"
       d="m 20,141 v 14 l 7,2 7,-2 v -5 h -1 v 2 H 21 v -10 h 8 v -1 z m 12,0 -2,5 h 2 v 3 l 2,-5 H 32 Z M 26.4375,144 24,150 h 1.074219 l 0.40625,-1 h 3.039062 l 0.40625,1 H 30 l -2.439453,-6 H 27.023438 L 27,144.00977 26.976562,144 Z M 27,145.25781 28.113281,148 H 25.886719 Z M 21,153 h 12 v 1 H 21 Z"
       class="ColorScheme-Text"
       style="color:#31363b;fill:#d3dae3;fill-opacity:1;stroke:none" />
  </g>
  <g
     id="22-22-input-keyboard-brightness"
     transform="translate(-392,-652.36217)">
    <rect
       id="rect20"
       style="opacity:1;fill:none"
       width="22"
       height="22"
       x="370"
       y="534.36218"
       ry="0" />
    <path
       inkscape:connector-curvature="0"
       id="path4344"
       transform="translate(354,428.36218)"
       d="m 20,109 v 14 l 7,2 7,-2 v -9 h -1 v 6 H 21 v -10 h 8 v -1 z m 12,0 c -1.10457,0 -2,0.89543 -2,2 0,1.10457 0.89543,2 2,2 1.10457,0 2,-0.89543 2,-2 0,-1.10457 -0.89543,-2 -2,-2 z m 0,1 v 2 c -0.55228,0 -1,-0.44771 -1,-1 0,-0.55228 0.44772,-1 1,-1 z M 26.4375,112 24,118 h 1.074219 l 0.40625,-1 h 3.039062 l 0.40625,1 H 30 l -2.439453,-6 H 27.023438 L 27,112.00977 26.976562,112 Z M 27,113.25781 28.113281,116 H 25.886719 Z M 21,121 h 12 v 1 H 21 Z"
       class="ColorScheme-Text"
       style="color:#31363b;fill:#d3dae3;fill-opacity:1;stroke:none" />
  </g>
  <g
     transform="translate(-370,-652.36236)"
     id="input-keyboard-battery">
    <rect
       ry="0"
       y="556.36237"
       x="370"
       height="32"
       width="32"
       id="rect4378"
       style="opacity:1;fill:none" />
    <path
       inkscape:connector-curvature="0"
       id="rect4223"
       transform="translate(332,428.36237)"
       d="m 44,132 v 20 l 10,4 10,-4 v -11 h -1 v 8 H 45 v -16 h 14 v -1 z m 18,0 -2,5 h 2 v 3 l 2,-5 H 62 Z M 53.40625,136 49,146 h 1.300781 l 1.322266,-3 h 4.722656 l 1.349609,3 H 59 l -4.5,-10 z m 0.552734,1.69531 1.9375,4.30469 H 52.0625 Z M 45,150 h 18 v 1 H 45 Z"
       class="ColorScheme-Text"
       style="color:#31363b;fill:#d3dae3;fill-opacity:1;stroke:none" />
  </g>
  <g
     transform="translate(-402,-684.36236)"
     id="input-keyboard-brightness">
    <rect
       style="opacity:1;fill:none"
       id="rect4266"
       width="32"
       height="32"
       x="402"
       y="556.36237"
       ry="0" />
    <path
       inkscape:connector-curvature="0"
       id="path4270"
       transform="translate(364,460.36237)"
       d="m 44,100 v 20 l 10,4 10,-4 v -10 h -1 v 7 H 45 v -16 h 12 v -1 z m 9.40625,4 L 49,114 h 1.300781 l 1.322266,-3 h 4.722656 l 1.349609,3 H 59 l -4.5,-10 z m 0.552734,1.69531 1.9375,4.30469 H 52.0625 Z M 45,118 h 18 v 1 H 45 Z"
       class="ColorScheme-Text"
       style="color:#31363b;fill:#d3dae3;fill-opacity:1;stroke:none" />
    <path
       inkscape:connector-curvature="0"
       id="path4274"
       transform="translate(326,534.3622)"
       d="m 100,25 c -0.277,0 -0.5,0.223 -0.5,0.5 v 1 c 0,0.277 0.223,0.5 0.5,0.5 0.277,0 0.5,-0.223 0.5,-0.5 v -1 c 0,-0.277 -0.223,-0.5 -0.5,-0.5 z m -3.181641,1.318359 c -0.127809,0 -0.255581,0.04855 -0.353515,0.146485 -0.195869,0.195868 -0.195869,0.511162 0,0.707031 l 0.707031,0.707031 c 0.195869,0.195869 0.511163,0.195869 0.707031,0 0.195869,-0.195868 0.195869,-0.511162 0,-0.707031 l -0.707031,-0.707031 c -0.09793,-0.09793 -0.225706,-0.146485 -0.353516,-0.146485 z m 6.363281,0 c -0.12781,0 -0.25558,0.04855 -0.35352,0.146485 l -0.70703,0.707031 c -0.19586,0.195869 -0.19586,0.511163 0,0.707031 0.19587,0.195869 0.51117,0.195869 0.70703,0 l 0.70704,-0.707031 c 0.19586,-0.195869 0.19586,-0.511163 0,-0.707031 -0.0979,-0.09793 -0.22571,-0.146485 -0.35352,-0.146485 z M 100,28 c -1.104569,0 -2,0.895431 -2,2 0,1.104569 0.895431,2 2,2 1.10457,0 2,-0.895431 2,-2 0,-1.104569 -0.89543,-2 -2,-2 z m 0,1 v 2 c -0.552285,0 -1,-0.447715 -1,-1 0,-0.552285 0.447715,-1 1,-1 z m -4.5,0.5 c -0.277,0 -0.5,0.223 -0.5,0.5 0,0.277 0.223,0.5 0.5,0.5 h 1 c 0.277,0 0.5,-0.223 0.5,-0.5 0,-0.277 -0.223,-0.5 -0.5,-0.5 z m 8,0 c -0.277,0 -0.5,0.223 -0.5,0.5 0,0.277 0.223,0.5 0.5,0.5 h 1 c 0.277,0 0.5,-0.223 0.5,-0.5 0,-0.277 -0.223,-0.5 -0.5,-0.5 z m -5.974609,2.474609 c -0.12781,0 -0.255582,0.04855 -0.353516,0.146485 l -0.707031,0.707031 c -0.195869,0.195869 -0.195869,0.511163 0,0.707031 0.195868,0.195869 0.511162,0.195869 0.707031,0 l 0.707031,-0.707031 c 0.195869,-0.195869 0.195869,-0.511163 0,-0.707031 -0.09793,-0.09793 -0.225706,-0.146485 -0.353515,-0.146485 z m 4.949219,0 c -0.12781,0 -0.25558,0.04855 -0.35352,0.146485 -0.19586,0.195868 -0.19586,0.511162 0,0.707031 l 0.70703,0.707031 c 0.19587,0.195869 0.51117,0.195869 0.70704,0 0.19586,-0.195868 0.19586,-0.511162 0,-0.707031 l -0.70704,-0.707031 c -0.0979,-0.09793 -0.2257,-0.146485 -0.35351,-0.146485 z M 100,33 c -0.277,0 -0.5,0.223 -0.5,0.5 v 1 c 0,0.277 0.223,0.5 0.5,0.5 0.277,0 0.5,-0.223 0.5,-0.5 v -1 c 0,-0.277 -0.223,-0.5 -0.5,-0.5 z"
       style="color:#31363b;fill:#2a4c76;fill-opacity:1;stroke:none"
       class="ColorScheme-Text" />
  </g>
  <g
     transform="translate(-370,-556.36237)"
     id="input-mouse-battery">
    <path
       inkscape:connector-curvature="0"
       style="color:#31363b;fill:#3daee9;fill-opacity:1;stroke:none"
       d="m 386,560.36238 a 8,9 0 0 0 -8,9 v 6 a 8,9 0 0 0 8,9 8,9 0 0 0 8,-9 v -6 a 8,9 0 0 0 -8,-9 z m 0,1 a 7,8 0 0 1 7,8 v 6 a 7,8 0 0 1 -7,8 7,8 0 0 1 -7,-8 v -6 a 7,8 0 0 1 7,-8 z m 0,3 a 1,1 0 0 0 -1,1 v 3 a 1,1 0 0 0 1,1 1,1 0 0 0 1,-1 v -3 a 1,1 0 0 0 -1,-1 z m 0,8 -2,5 h 2 v 3 l 2,-5 h -2 z"
       class="ColorScheme-Text"
       id="path26" />
    <rect
       ry="0"
       y="556.36237"
       x="370"
       height="32"
       width="32"
       id="rect4378-6"
       style="opacity:1;fill:none" />
  </g>
  <g
     transform="translate(-341,-521.36217)"
     id="16-16-input-mouse-battery">
    <path
       inkscape:connector-curvature="0"
       style="color:#31363b;fill:#d3dae3;fill-opacity:1;stroke:none"
       d="m -8,82 a 4,4 0 0 0 -4,4 v 4 a 4,4 0 0 0 4,4 4,4 0 0 0 4,-4 v -4 a 4,4 0 0 0 -4,-4 z m 0,1 a 3,3 0 0 1 3,3 v 4 a 3,3 0 0 1 -3,3 3,3 0 0 1 -3,-3 v -4 a 3,3 0 0 1 3,-3 z m 0,1 -2,5 h 2 v 3 l 2,-5 h -2 z"
       transform="translate(319,457.36217)"
       class="ColorScheme-Text"
       id="path4196" />
    <rect
       y="537.36218"
       x="303"
       height="16"
       width="16"
       id="rect4442"
       style="opacity:1;fill:none" />
  </g>
  <g
     transform="translate(-22,-213.99998)"
     id="22-22-input-keyboard">
    <rect
       style="fill:none;fill-rule:evenodd;stroke:none;stroke-width:1px;stroke-linecap:butt;stroke-linejoin:miter;stroke-opacity:1"
       id="rect4147"
       width="22"
       height="22"
       x="0"
       y="0" />
    <path
       inkscape:connector-curvature="0"
       style="color:#31363b;fill:#d3dae3;fill-opacity:1;stroke:none"
       d="m 13,1033.3622 v 1 1 c 0,0.554 -0.446,1 -1,1 -1.108,0 -2,0.892 -2,2 H 2 v 11 h 18 v -11 h -9 c 0,-0.554 0.446,-1 1,-1 1.108,0 2,-0.892 2,-2 v -1 -1 z m -10,6 h 7 1 8 v 1 H 3 Z m 0,2 h 16 v 7 H 15 7 3 Z m 1,1 v 1 h 2 v -1 z m 3,0 v 1 h 2 v -1 z m 3,0 v 1 h 2 v -1 z m 3,0 v 1 h 2 v -1 z m 3,0 v 1 h 2 v -1 z m -12,2 v 1 h 2 v -1 z m 3,0 v 1 h 2 v -1 z m 3,0 v 1 h 2 v -1 z m 3,0 v 1 h 2 v -1 z m 3,0 v 1 h 2 v -1 z m -12,2 v 1 h 2 v -1 z m 3,0 v 1 h 8 v -1 z m 9,0 v 1 h 2 v -1 z"
       transform="translate(0,-1030.3622)"
       class="ColorScheme-Text"
       id="path6" />
  </g>
  <g
     id="input-keyboard"
     transform="matrix(1.4545455,0,0,1.4545455,0,-223.99999)">
    <rect
       y="0"
       x="0"
       height="22"
       width="22"
       id="rect4196"
       style="fill:none;fill-rule:evenodd;stroke:none;stroke-width:1px;stroke-linecap:butt;stroke-linejoin:miter;stroke-opacity:1" />
    <path
       inkscape:connector-curvature="0"
       id="path4285"
       transform="matrix(0.68749998,0,0,0.68749998,-15.124999,22.000003)"
       d="m 47,-28 c 0,0.839286 -0.09344,1.439871 -0.248047,1.845703 -0.154602,0.405832 -0.347892,0.621232 -0.628906,0.785156 C 45.561021,-25.041291 44.5,-25 43,-25 c -1.5,0 -2.935631,-0.0273 -4.099609,0.554688 -0.58199,0.290994 -1.080576,0.752947 -1.408203,1.408203 C 37.21931,-22.491354 37.067093,-21.815455 37.021484,-21 H 25 V -4 H 25.5 51 V -21 H 38.021484 c 0.04382,-0.685454 0.170932,-1.207097 0.361328,-1.587891 0.234873,-0.469744 0.548787,-0.757791 0.966797,-0.966797 C 40.185631,-23.972698 41.5,-24 43,-24 c 1.5,0 2.688979,0.04129 3.626953,-0.505859 0.468986,-0.273576 0.838197,-0.714426 1.058594,-1.292969 C 47.905944,-26.377371 48,-27.089286 48,-28 Z m -21,8 h 24 v 2 H 26 Z m 0,3 H 50 V -5 H 26 Z m 1,2 v 2 h 1 v -2 z m 2,0 v 2 h 2 v -2 z m 3,0 v 2 h 2 v -2 z m 3,0 v 2 h 2 v -2 z m 3,0 v 2 h 2 v -2 z m 3,0 v 2 h 2 v -2 z m 3,0 v 2 h 2 v -2 z m 3,0 v 2 h 2 v -2 z m -20,3 v 2 h 3 v -2 z m 4,0 v 2 h 2 v -2 z m 3,0 v 2 h 2 v -2 z m 3,0 v 2 h 2 v -2 z m 3,0 v 2 h 2 v -2 z m 3,0 v 2 h 2 v -2 z m 3,0 v 2 h 3 v -2 z m -19,3 v 2 h 2 v -2 z m 3,0 v 2 h 2 v -2 z m 3,0 v 2 h 10 v -2 z m 11,0 v 2 h 2 v -2 z m 3,0 v 2 h 2 v -2 z"
       style="color:#31363b;fill:#d3dae3;fill-opacity:1;stroke:none"
       class="ColorScheme-Text" />
  </g>
  <g
     transform="translate(-22,-181.99998)"
     id="22-22-input-keyboard-virtual-on">
    <path
       inkscape:connector-curvature="0"
       style="color:#31363b;fill:#d3dae3;fill-opacity:1;stroke:none"
       d="m 2,1038.3622 v 11 h 18 v -11 z m 1,1 h 7 1 8 v 1 H 3 Z m 0,2 h 16 v 7 H 15 7 3 Z m 1,1 v 1 h 2 v -1 z m 3,0 v 1 h 2 v -1 z m 3,0 v 1 h 2 v -1 z m 3,0 v 1 h 2 v -1 z m 3,0 v 1 h 2 v -1 z m -12,2 v 1 h 2 v -1 z m 3,0 v 1 h 2 v -1 z m 3,0 v 1 h 2 v -1 z m 3,0 v 1 h 2 v -1 z m 3,0 v 1 h 2 v -1 z m -12,2 v 1 h 2 v -1 z m 3,0 v 1 h 8 v -1 z m 9,0 v 1 h 2 v -1 z"
       transform="translate(0,-1030.3622)"
       class="ColorScheme-Text"
       id="path6-6" />
    <path
       inkscape:connector-curvature="0"
       style="fill:#3daee9;fill-opacity:1;stroke:none"
       d="M 4.5,2 A 2.4999997,2.4999855 0 0 0 2,4.5 2.4999997,2.4999855 0 0 0 4.5,7 2.4999997,2.4999855 0 0 0 7,4.5 2.4999997,2.4999855 0 0 0 4.5,2 Z"
       id="path8" />
    <rect
       style="fill:none;fill-opacity:1;stroke:none;stroke-linejoin:bevel"
       id="rect4140"
       width="22"
       height="22"
       x="0"
       y="0" />
  </g>
  <g
     id="input-keyboard-virtual-on"
     transform="matrix(1.4545455,0,0,1.4545455,0,-191.99998)">
    <rect
       y="0"
       x="0"
       height="22"
       width="22"
       id="rect4192"
       style="fill:none;fill-rule:evenodd;stroke:none;stroke-width:1px;stroke-linecap:butt;stroke-linejoin:miter;stroke-opacity:1" />
    <path
       inkscape:connector-curvature="0"
       id="path4194"
       d="M 25,-21 V -4 H 25.5 51 v -17 z m 1,1 h 24 v 2 H 26 Z m 0,3 H 50 V -5 H 26 Z m 1,2 v 2 h 1 v -2 z m 2,0 v 2 h 2 v -2 z m 3,0 v 2 h 2 v -2 z m 3,0 v 2 h 2 v -2 z m 3,0 v 2 h 2 v -2 z m 3,0 v 2 h 2 v -2 z m 3,0 v 2 h 2 v -2 z m 3,0 v 2 h 2 v -2 z m -20,3 v 2 h 3 v -2 z m 4,0 v 2 h 2 v -2 z m 3,0 v 2 h 2 v -2 z m 3,0 v 2 h 2 v -2 z m 3,0 v 2 h 2 v -2 z m 3,0 v 2 h 2 v -2 z m 3,0 v 2 h 3 v -2 z m -19,3 v 2 h 2 v -2 z m 3,0 v 2 h 2 v -2 z m 3,0 v 2 h 10 v -2 z m 11,0 v 2 h 2 v -2 z m 3,0 v 2 h 2 v -2 z"
       style="color:#31363b;fill:#d3dae3;fill-opacity:1;stroke:none"
       class="ColorScheme-Text"
       transform="matrix(0.68749998,0,0,0.68749998,-15.124999,22.000003)" />
    <path
       inkscape:connector-curvature="0"
       style="fill:#3daee9;fill-opacity:1;stroke:none"
       d="m 3.7812499,2.7500013 a 1.7187497,1.71874 0 0 0 -1.71875,1.7187499 1.7187497,1.71874 0 0 0 1.71875,1.71875 1.7187497,1.71874 0 0 0 1.71875,-1.71875 1.7187497,1.71874 0 0 0 -1.71875,-1.7187499 z"
       id="path8-9" />
  </g>
  <g
     id="22-22-input-keyboard-virtual-off"
     transform="translate(-22,-149.99998)">
    <path
       inkscape:connector-curvature="0"
       id="path4170"
       class="ColorScheme-Text"
       transform="translate(0,-1030.3622)"
       d="m 2,1038.3622 v 11 h 18 v -11 z m 1,1 h 7 1 8 v 1 H 3 Z m 0,2 h 16 v 7 H 15 7 3 Z m 1,1 v 1 h 2 v -1 z m 3,0 v 1 h 2 v -1 z m 3,0 v 1 h 2 v -1 z m 3,0 v 1 h 2 v -1 z m 3,0 v 1 h 2 v -1 z m -12,2 v 1 h 2 v -1 z m 3,0 v 1 h 2 v -1 z m 3,0 v 1 h 2 v -1 z m 3,0 v 1 h 2 v -1 z m 3,0 v 1 h 2 v -1 z m -12,2 v 1 h 2 v -1 z m 3,0 v 1 h 8 v -1 z m 9,0 v 1 h 2 v -1 z"
       style="color:#31363b;fill:#d3dae3;fill-opacity:1;stroke:none" />
    <rect
       y="0"
       x="0"
       height="22"
       width="22"
       id="rect4172"
       style="fill:none;fill-opacity:1;stroke:none;stroke-linejoin:bevel" />
  </g>
  <g
     id="input-keyboard-virtual-off"
     transform="matrix(1.4545455,0,0,1.4545455,0,-159.99998)">
    <rect
       y="0"
       x="0"
       height="22"
       width="22"
       id="rect4176"
       style="fill:none;fill-rule:evenodd;stroke:none;stroke-width:1px;stroke-linecap:butt;stroke-linejoin:miter;stroke-opacity:1" />
    <path
       inkscape:connector-curvature="0"
       id="path4178"
       d="M 25,-21 V -4 H 25.5 51 v -17 z m 1,1 h 24 v 2 H 26 Z m 0,3 H 50 V -5 H 26 Z m 1,2 v 2 h 1 v -2 z m 2,0 v 2 h 2 v -2 z m 3,0 v 2 h 2 v -2 z m 3,0 v 2 h 2 v -2 z m 3,0 v 2 h 2 v -2 z m 3,0 v 2 h 2 v -2 z m 3,0 v 2 h 2 v -2 z m 3,0 v 2 h 2 v -2 z m -20,3 v 2 h 3 v -2 z m 4,0 v 2 h 2 v -2 z m 3,0 v 2 h 2 v -2 z m 3,0 v 2 h 2 v -2 z m 3,0 v 2 h 2 v -2 z m 3,0 v 2 h 2 v -2 z m 3,0 v 2 h 3 v -2 z m -19,3 v 2 h 2 v -2 z m 3,0 v 2 h 2 v -2 z m 3,0 v 2 h 10 v -2 z m 11,0 v 2 h 2 v -2 z m 3,0 v 2 h 2 v -2 z"
       style="color:#31363b;fill:#d3dae3;fill-opacity:1;stroke:none"
       class="ColorScheme-Text"
       transform="matrix(0.68749998,0,0,0.68749998,-15.124999,22.000003)" />
  </g>
  <g
     transform="translate(21.241379,-200.74138)"
     id="22-22-input-caps-on">
    <rect
       style="opacity:0.00100002;fill:#000000;fill-opacity:1;stroke:none;stroke-width:0.49065962;stroke-linecap:round;stroke-linejoin:round;stroke-miterlimit:4;stroke-dasharray:none;stroke-opacity:1"
       id="rect964"
       width="22"
       height="22"
       x="-43.241379"
       y="146.74138" />
    <path
       class="ColorScheme-Text"
       style="color:#31363b;fill:#d3dae3;fill-opacity:1;stroke:none"
       d="m -39.241379,149.74138 v 14 l 7,2 7,-2 v -14 z m 1,1 h 12 v 10 h -12 z m 5.4375,2 -2.4375,6 h 1.07422 l 0.40625,-1 h 3.03906 l 0.40625,1 h 1.07422 l -2.43945,-6 h -0.53711 l -0.0234,0.01 -0.0234,-0.01 z m 0.5625,1.25781 1.11328,2.74219 h -2.22656 z m -6,7.74219 h 12 v 1 h -12 z"
       id="path870"
       inkscape:connector-curvature="0" />
  </g>
  <g
     transform="translate(-46,-139)"
     id="22-22-input-num-on">
    <rect
       y="117"
       x="24"
       height="22"
       width="22"
       id="rect972"
       style="opacity:0.00100002;fill:#000000;fill-opacity:1;stroke:none;stroke-width:0.49065962;stroke-linecap:round;stroke-linejoin:round;stroke-miterlimit:4;stroke-dasharray:none;stroke-opacity:1" />
    <path
       class="ColorScheme-Text"
       style="color:#31363b;fill:#d3dae3;fill-opacity:1;stroke:none"
       d="m 28,120 v 14 l 7,2 7,-2 v -14 z m 1,1 h 12 v 10 H 29 Z m 6,2 v 1 h -1 v 1 h 1 v 3 h -1 v 1 h 1 1 1 v -1 h -1 v -5 z m -6,9 h 12 v 1 H 29 Z"
       id="path879"
       inkscape:connector-curvature="0" />
  </g>
  <g
     transform="translate(-19,-175.99998)"
     id="input-caps-on">
    <rect
       style="opacity:0.00100002;fill:#000000;fill-opacity:1;stroke:none;stroke-width:0.7136867;stroke-linecap:round;stroke-linejoin:round;stroke-miterlimit:4;stroke-dasharray:none;stroke-opacity:1"
       id="rect978"
       width="32"
       height="32"
       x="19"
       y="112" />
    <path
       class="ColorScheme-Text"
       style="color:#31363b;fill:#d3dae3;fill-opacity:1;stroke:none"
       d="m 25,116 v 20 l 10,4 10,-4 v -19 -1 h -1 z m 1,1 h 18 v 16 H 26 Z m 8.40625,3 L 30,130 h 1.30078 l 1.32227,-3 h 4.72265 l 1.34961,3 H 40 l -4.5,-10 z m 0.55273,1.69531 L 36.89648,126 H 33.0625 Z M 26,134 h 18 v 1 H 26 Z"
       id="path880"
       inkscape:connector-curvature="0" />
  </g>
  <g
     transform="translate(-19,-144)"
     id="input-num-on">
    <rect
       y="112"
       x="19"
       height="32"
       width="32"
       id="rect984"
       style="opacity:0.00100002;fill:#000000;fill-opacity:1;stroke:none;stroke-width:0.7136867;stroke-linecap:round;stroke-linejoin:round;stroke-miterlimit:4;stroke-dasharray:none;stroke-opacity:1" />
    <path
       class="ColorScheme-Text"
       style="color:#31363b;fill:#d3dae3;fill-opacity:1;stroke:none"
       d="m 25,116 v 20 l 10,4 10,-4 v -19 -1 h -1 z m 1,1 h 18 v 16 H 26 Z m 9,3 v 2 h -2 v 1 h 2 v 6 h -2 v 1 h 5 v -1 h -2 v -9 z m -9,14 h 18 v 1 H 26 Z"
       id="path896"
       inkscape:connector-curvature="0" />
  </g>
</svg>
