<?xml version="1.0" encoding="UTF-8" standalone="no"?>
<svg
   xmlns:dc="http://purl.org/dc/elements/1.1/"
   xmlns:cc="http://creativecommons.org/ns#"
   xmlns:rdf="http://www.w3.org/1999/02/22-rdf-syntax-ns#"
   xmlns:svg="http://www.w3.org/2000/svg"
   xmlns="http://www.w3.org/2000/svg"
   xmlns:sodipodi="http://sodipodi.sourceforge.net/DTD/sodipodi-0.dtd"
   xmlns:inkscape="http://www.inkscape.org/namespaces/inkscape"
   version="1.1"
   x="0px"
   y="0px"
   viewBox="0 0 24.938688 24.005997"
   enable-background="new 0 0 1000 1000"
   xml:space="preserve"
   id="svg44"
   sodipodi:docname="kaffeine.svg"
   width="24.938688"
   height="24.005997"
   inkscape:version="0.92.4 (5da689c313, 2019-01-14)"><defs
   id="defs26" /><metadata
   id="defs48"><rdf:RDF><cc:Work
       rdf:about=""><dc:format>image/svg+xml</dc:format><dc:type
         rdf:resource="http://purl.org/dc/dcmitype/StillImage" /></cc:Work></rdf:RDF></metadata><sodipodi:namedview
   pagecolor="#ffffff"
   bordercolor="#666666"
   borderopacity="1"
   objecttolerance="10"
   gridtolerance="10"
   guidetolerance="10"
   inkscape:pageopacity="0"
   inkscape:pageshadow="2"
   inkscape:window-width="1920"
   inkscape:window-height="1009"
   id="namedview46"
   showgrid="false"
   inkscape:zoom="10.680141"
   inkscape:cx="5.0447118"
   inkscape:cy="13.274899"
   inkscape:window-x="0"
   inkscape:window-y="0"
   inkscape:window-maximized="1"
   inkscape:current-layer="svg44"
   inkscape:lockguides="true"><inkscape:grid
     type="xygrid"
     id="grid834"
     originx="-5.056113"
     originy="-0.0001002846" /></sodipodi:namedview>
<g
   id="kaffeine"
   transform="matrix(0.02080247,0,0,0.02071959,1.9990836,1.965928)"><g
     transform="matrix(0.1,0,0,-0.1,0,512)"
     id="g40"><path
       d="M 4529.9,4877.5326 C 3576.7,4785.4511 2656.1,4422.6936 1921.6,3853.593 1672.3,3660.2119 1269.5,3262.504 1085.4,3028.6031 571.4,2371.1656 251.1,1616.1732 124.5,763.53001 91.9,546.24045 91.9,-179.37028 124.5,-396.65982 258.8,-1302.6891 623.2,-2116.6367 1192.8,-2790.6855 c 188,-222.8587 609.9,-615.0938 838.1,-778.997 696.2,-500.9278 1474.9,-806.5542 2364.8,-928.1135 226.3,-31.3019 982,-31.3019 1208.3,0 888,121.5593 1670.5,429.1058 2364.8,928.1135 228.2,163.9032 650.2,556.1383 838.1,778.997 475.6,561.7074 851.6,1316.6997 995.4,1998.04598 82.4,390.50665 97.7,543.3679 97.7,976.12264 0,434.57906 -15.3,585.61596 -97.8,976.02648 -145.8,686.9155 -517.8,1434.5145 -995.4,1998.046 -187.9,222.8585 -609.9,615.0939 -838.1,778.9973 -677,486.1407 -1430.7,790.0389 -2278.5,915.2468 -239.7,34.9506 -914.8,51.5619 -1160.3,25.7329 z m 891.8,-294.6803 c 1058.7,-92.0816 2056,-539.5272 2811.6,-1259.5688 740.4,-705.2549 1175.7,-1546.8558 1333,-2578.18902 34.5,-217.28954 34.5,-906.02924 0,-1123.31877 -105.5,-685.09101 -347.1,-1314.87531 -707.7,-1841.53601 -205.2,-300.1535 -354.8,-476.9233 -606.1,-720.0419 -719.2,-690.5639 -1611,-1112.2765 -2667.8,-1261.4889 -226.3,-33.2225 -943.6,-33.2225 -1169.9,0 -730.7,103.1237 -1356,324.0619 -1917.9,679.5218 -320.3,202.5986 -500.6,342.4974 -767.2,600.3067 C 832.2,-2054.0327 350.8,-866.18962 404.5,349.21078 452.4,1487.3164 916.6,2505.687 1748.9,3304.848 c 788.3,756.9128 1747.2,1182.274 2905.6,1287.2221 159.2,12.9623 563.9,9.2176 767.2,-9.2178 z"
       id="path4"
       style="fill:#2a4c76;fill-opacity:1;stroke-width:0.97988963"
       inkscape:connector-curvature="0" /><path
       d="m 2640.7,2153.9 c -228.2,-71 -320.3,-214.8 -339.5,-529.3 l -11.5,-201.4 h 291.5 289.6 l -3.8,370.2 -5.7,368.2 -86.3,3.8 c -48,1.9 -107.4,-3.9 -134.3,-11.5 z"
       id="path6"
       style="fill:#3b6ca7;fill-opacity:1"
       inkscape:connector-curvature="0" /><path
       d="m 3043.5,1797.1 v -374 h 249.3 249.3 v 374 374 h -249.3 -249.3 z"
       id="path8"
       style="fill:#3b6ca7;fill-opacity:1"
       inkscape:connector-curvature="0" /><path
       d="m 3733.9,1797.1 v -374 h 249.3 249.3 l -3.8,370.2 -5.8,368.2 -243.6,5.8 -245.5,5.8 v -376 z"
       id="path10"
       style="fill:#3b6ca7;fill-opacity:1"
       inkscape:connector-curvature="0" /><path
       d="m 4418.6,2157.7 c -7.7,-5.8 -13.4,-174.5 -13.4,-374 v -360.6 h 249.3 249.3 v 374 374 H 4668 c -130.4,0 -243.6,-5.7 -249.4,-13.4 z"
       id="path12"
       style="fill:#3b6ca7;fill-opacity:1"
       inkscape:connector-curvature="0" /><path
       d="m 5095.7,1797.1 v -374 h 249.3 249.3 v 374 374 H 5345 5095.7 Z"
       id="path14"
       style="fill:#3b6ca7;fill-opacity:1"
       inkscape:connector-curvature="0" /><path
       d="m 5780.4,2159.6 c -7.7,-7.7 -13.4,-176.4 -13.4,-375.9 v -360.6 h 258.9 258.9 l -3.8,370.2 -5.8,368.2 -241.7,5.8 c -132.3,1.9 -245.5,-1.9 -253.1,-7.7 z"
       id="path16"
       style="fill:#3b6ca7;fill-opacity:1"
       inkscape:connector-curvature="0" /><path
       d="m 6457.4,1797.1 v -374 h 249.3 249.3 v 374 374 h -249.3 -249.3 z"
       id="path18"
       style="fill:#3b6ca7;fill-opacity:1"
       inkscape:connector-curvature="0" /><path
       d="m 7142.1,2159.6 c -7.7,-7.7 -13.4,-176.4 -13.4,-375.9 v -360.6 h 291.5 289.6 l -11.5,191.8 c -17.3,281.9 -92.1,420 -272.3,498.7 -86.4,38.4 -262.9,67.1 -283.9,46 z"
       id="path20"
       style="fill:#3b6ca7;fill-opacity:1"
       inkscape:connector-curvature="0" /><path
       d="M 2295.5,71 V -1089.3 H 4999.7 7704 V 71 1231.3 H 4999.8 2295.5 Z M 5070.7,548.6 C 5354.6,374.1 5603.9,211 5628.8,188 5717,101.7 5692.1,78.7 5116.7,-289.5 4823.3,-475.5 4572,-629 4558.6,-629 c -15.3,0 -42.2,13.4 -61.4,32.6 -32.6,28.8 -34.5,76.7 -34.5,717.3 0,598.4 3.8,690.4 30.7,715.4 15.3,17.3 36.4,30.7 46,30.7 9.6,0 249.4,-143.9 531.3,-318.4 z"
       id="path22"
       style="fill:#d3dae3;fill-opacity:1"
       inkscape:connector-curvature="0" /><path
       d="m 2305.1,-1283 c -23,-34.5 9.6,-289.6 46,-372.1 71,-157.3 216.7,-253.2 404.7,-262.8 l 105.5,-5.8 v 326 326 l -272.3,5.7 c -186.1,4.1 -276.2,-1.7 -283.9,-17 z"
       id="path24"
       style="fill:#3b6ca7;fill-opacity:1"
       inkscape:connector-curvature="0" /><path
       d="m 3043.5,-1597.5 v -335.6 h 249.3 249.3 v 335.6 335.6 h -249.3 -249.3 z"
       id="path26"
       style="fill:#3b6ca7;fill-opacity:1"
       inkscape:connector-curvature="0" /><path
       d="m 3733.9,-1597.5 v -337.6 l 245.5,5.8 243.6,5.7 v 326 326 l -243.6,5.7 -245.5,5.8 z"
       id="path28"
       style="fill:#3b6ca7;fill-opacity:1"
       inkscape:connector-curvature="0" /><path
       d="m 4412.9,-1286.8 c -3.8,-13.4 -5.8,-163 -3.8,-329.9 l 5.8,-306.9 245.5,-5.7 243.6,-5.8 v 337.6 335.6 h -239.7 c -178.5,0 -243.7,-5.8 -251.4,-24.9 z"
       id="path30"
       style="fill:#3b6ca7;fill-opacity:1"
       inkscape:connector-curvature="0" /><path
       d="m 5095.7,-1597.5 v -335.6 h 249.3 249.3 v 335.6 335.6 H 5345 5095.7 Z"
       id="path32"
       style="fill:#3b6ca7;fill-opacity:1"
       inkscape:connector-curvature="0" /><path
       d="m 5776.5,-1286.8 c -5.7,-13.4 -7.7,-163 -5.7,-329.9 l 5.7,-306.9 h 249.3 249.3 v 326 326 l -245.5,5.7 c -187.9,4 -247.3,0.1 -253.1,-20.9 z"
       id="path34"
       style="fill:#3b6ca7;fill-opacity:1"
       inkscape:connector-curvature="0" /><path
       d="m 6457.4,-1597.5 v -335.6 h 249.3 249.3 v 335.6 335.6 h -249.3 -249.3 z"
       id="path36"
       style="fill:#3b6ca7;fill-opacity:1"
       inkscape:connector-curvature="0" /><path
       d="m 7138.2,-1286.8 c -5.8,-13.4 -7.7,-163 -5.8,-329.9 l 5.8,-306.9 95.9,5.8 c 141.9,7.7 216.7,38.4 308.8,122.8 103.6,94 141.9,195.6 147.7,379.7 l 3.8,143.8 -274.3,5.7 c -212.8,3.9 -276.1,0 -281.9,-21 z"
       id="path38"
       style="fill:#3b6ca7;fill-opacity:1"
       inkscape:connector-curvature="0" /></g></g>
</svg>