<?xml version="1.0" encoding="UTF-8" standalone="no"?>
<svg
   xmlns:osb="http://www.openswatchbook.org/uri/2009/osb"
   xmlns:dc="http://purl.org/dc/elements/1.1/"
   xmlns:cc="http://creativecommons.org/ns#"
   xmlns:rdf="http://www.w3.org/1999/02/22-rdf-syntax-ns#"
   xmlns:svg="http://www.w3.org/2000/svg"
   xmlns="http://www.w3.org/2000/svg"
   xmlns:sodipodi="http://sodipodi.sourceforge.net/DTD/sodipodi-0.dtd"
   xmlns:inkscape="http://www.inkscape.org/namespaces/inkscape"
   id="svg"
   width="32"
   height="32"
   version="1.1"
   viewBox="0 0 32 32"
   sodipodi:docname="kdeconnect.svg"
   inkscape:version="0.92.4 (5da689c313, 2019-01-14)">
  <metadata
     id="metadata40">
    <rdf:RDF>
      <cc:Work
         rdf:about="">
        <dc:format>image/svg+xml</dc:format>
        <dc:type
           rdf:resource="http://purl.org/dc/dcmitype/StillImage" />
      </cc:Work>
    </rdf:RDF>
  </metadata>
  <sodipodi:namedview
     pagecolor="#ffffff"
     bordercolor="#666666"
     borderopacity="1"
     objecttolerance="10"
     gridtolerance="10"
     guidetolerance="10"
     inkscape:pageopacity="0"
     inkscape:pageshadow="2"
     inkscape:window-width="1920"
     inkscape:window-height="1009"
     id="namedview38"
     showgrid="false"
     inkscape:zoom="5.2149125"
     inkscape:cx="8.773216"
     inkscape:cy="8.3828995"
     inkscape:window-x="0"
     inkscape:window-y="0"
     inkscape:window-maximized="1"
     inkscape:current-layer="svg"
     inkscape:lockguides="true" />
  <defs
     id="defs4">
    <linearGradient
       id="linearGradient5606"
       osb:paint="solid">
      <stop
         id="stop5608"
         offset="0"
         style="stop-color:#000000" />
    </linearGradient>
  </defs>
  <g
     id="kdeconnect"
     transform="matrix(0.75,0,0,0.75,4.0269132,4.29)">
    <rect
       style="opacity:0.00100002"
       width="32"
       height="32"
       x="0"
       y="0"
       rx="0"
       ry="0"
       id="rect16" />
    <g
       id="g34">
      <rect
         style="fill:#d3dae3;fill-opacity:1"
         width="23"
         height="30"
         x="4"
         y="1"
         rx="1.5"
         ry="1.5"
         id="rect20" />
      <rect
         style="opacity:1;fill:#0e111b;fill-opacity:1"
         width="19"
         height="22"
         x="6"
         y="4"
         rx="1.5"
         ry="1.5"
         id="rect22" />
      <rect
         style="opacity:1;fill:#0e111b;fill-opacity:1"
         width="7"
         height="1"
         x="12"
         y="2"
         rx="0.5"
         ry="0.5"
         id="rect24" />
      <circle
         style="opacity:1;fill:#0e111b;fill-opacity:1"
         cx="15.5"
         cy="28.5"
         r="1.5"
         id="circle26" />
      <path
         style="opacity:0.2;fill:#d3dae3;fill-opacity:1"
         d="M 5.5,1 C 4.669,1 4,1.669 4,2.5 v 1 C 4,2.669 4.669,2 5.5,2 h 20 C 26.331,2 27,2.669 27,3.5 v -1 C 27,1.669 26.331,1 25.5,1 Z"
         id="path28"
         inkscape:connector-curvature="0" />
      <path
         style="fill:#718dcf;fill-opacity:1"
         d="M 16.41563,7.2746074 13.400005,7.799998 v 10.38672 l 3,-0.386719 -0.01563,-4.681642 3.539063,5.181642 3.476562,-0.5 -4,-5.363282 L 23.413672,7.9367168 19.894146,7.2882792 16.38438,11.788279 Z M 10.073833,9.926951 c -0.02897,0.0024 -0.0563,0.01511 -0.07813,0.03711 l -1.0351561,1.046875 c -0.04495,0.0453 -0.052447,0.115922 -0.017578,0.169922 L 10.192969,13.10078 C 9.95716,13.519261 9.778985,13.978102 9.663672,14.458202 L 7.5054688,14.987499 C 7.4455628,15.002199 7.4,15.056359 7.4,15.118358 v 0.681641 0.681641 c 0,0.062 0.045563,0.116159 0.1054688,0.130859 l 2.1582032,0.529297 c 0.115313,0.480101 0.293488,0.938943 0.529297,1.357423 l -1.2500002,1.919922 c -0.034868,0.054 -0.027372,0.124623 0.017578,0.169921 l 1.0351562,1.046876 c 0.04364,0.044 0.111357,0.04763 0.164063,0.01562 l 1.958984,-1.201167 c 0.384328,0.2239 0.98551,0.404037 1.423828,0.523437 l 0.458985,2.216797 c 0.01275,0.064 0.06358,0.109375 0.126953,0.109375 H 14.9 15.671484 c 0.06338,0 0.114202,-0.04537 0.126954,-0.109375 l 0.458984,-2.216797 c 0.438319,-0.1194 1.039502,-0.299537 1.423828,-0.523437 l 1.958984,1.201171 c 0.05271,0.032 0.120422,0.02838 0.164063,-0.01562 l 1.035156,-1.046876 c 0.04495,-0.0453 0.05245,-0.115921 0.01758,-0.169921 l -1.04101,-1.59961 -0.128907,0.01953 -0.730468,-1.070312 c -0.746065,1.563963 -2.323843,2.560614 -4.056641,2.5625 -2.485281,0 -4.5,-2.014719 -4.5,-4.500001 0.0014,-1.708129 0.969847,-3.26818 2.499998,-4.027347 v -0.982422 c -0.285238,0.0951 -0.565511,0.202441 -0.78125,0.328125 L 10.159771,9.948436 c -0.02635,-0.016 -0.05696,-0.02389 -0.08594,-0.02148 z"
         id="path32"
         inkscape:connector-curvature="0" />
    </g>
  </g>
</svg>
