<?xml version="1.0" encoding="UTF-8" standalone="no"?>
<!-- Svg Vector Icons : http://www.onlinewebfonts.com/icon -->

<svg
   xmlns:dc="http://purl.org/dc/elements/1.1/"
   xmlns:cc="http://creativecommons.org/ns#"
   xmlns:rdf="http://www.w3.org/1999/02/22-rdf-syntax-ns#"
   xmlns:svg="http://www.w3.org/2000/svg"
   xmlns="http://www.w3.org/2000/svg"
   xmlns:sodipodi="http://sodipodi.sourceforge.net/DTD/sodipodi-0.dtd"
   xmlns:inkscape="http://www.inkscape.org/namespaces/inkscape"
   version="1.1"
   x="0px"
   y="0px"
   viewBox="0 0 21.666365 24.005003"
   enable-background="new 0 0 1000 1000"
   xml:space="preserve"
   id="svg22"
   sodipodi:docname="klipper.svg"
   width="21.666365"
   height="24.005003"
   inkscape:version="0.92.4 (5da689c313, 2019-01-14)"><metadata
   id="metadata14"><rdf:RDF><cc:Work
       rdf:about=""><dc:format>image/svg+xml</dc:format><dc:type
         rdf:resource="http://purl.org/dc/dcmitype/StillImage" /></cc:Work></rdf:RDF></metadata><defs
   id="defs26" /><sodipodi:namedview
   pagecolor="#ffffff"
   bordercolor="#666666"
   borderopacity="1"
   objecttolerance="10"
   gridtolerance="10"
   guidetolerance="10"
   inkscape:pageopacity="0"
   inkscape:pageshadow="2"
   inkscape:window-width="1920"
   inkscape:window-height="1015"
   id="namedview24"
   showgrid="false"
   inkscape:zoom="5.3400704"
   inkscape:cx="-43.38106"
   inkscape:cy="10.25901"
   inkscape:window-x="0"
   inkscape:window-y="0"
   inkscape:window-maximized="1"
   inkscape:current-layer="svg22" />
<g
   id="klipper"
   transform="matrix(0.01837236,0,0,0.01837236,1.8701799,3.3819121)"><g
     transform="matrix(0.1,0,0,-0.1,0,512)"
     id="g18"><path
       d="m 3911.8,5003.1 c -236.1,-55.7 -401.2,-224.6 -600.9,-612.4 -145.9,-284.1 -253.4,-378.2 -645,-572.1 -385.9,-190.1 -474.2,-264.9 -533.7,-458.8 -21.1,-69.1 -38.4,-149.7 -38.4,-180.4 v -55.7 h 1977.3 c 1773.8,0 1979.2,3.8 1990.7,30.7 17.3,46.1 -44.1,266.8 -99.8,349.4 -69.1,105.6 -172.8,172.8 -493.4,328.3 -370.5,178.5 -470.3,268.8 -618.1,556.7 -136.3,264.9 -259.2,430 -387.8,514.5 -157.3,103.7 -368.5,142.1 -550.9,99.8 z m 240,-497.2 c 38.4,-11.5 96,-49.9 128.6,-88.3 51.8,-57.6 59.5,-82.5 59.5,-170.8 0,-94.1 -7.7,-115.2 -65.3,-176.6 -57.6,-63.3 -74.9,-71 -178.5,-78.7 -107.5,-7.7 -119,-3.8 -184.3,53.8 -184.3,161.3 -92.1,437.7 159.3,478 5.8,1.8 42.3,-7.8 80.7,-17.4 z"
       id="path4"
       style="fill:#d3dae3;fill-opacity:1"
       inkscape:connector-curvature="0" /><path
       d="m 817.3,3893.5 c -94.1,-44.2 -170.8,-122.9 -209.2,-216.9 -26.9,-63.3 -30.7,-468.4 -30.7,-3754.9 0,-2731.7 5.8,-3701.2 23,-3749.2 34.6,-101.7 86.4,-167 184.3,-222.7 l 90.2,-53.7 h 1660.5 1660.5 l 99.8,268.8 c 53.7,147.8 99.8,274.5 99.8,284.1 1.9,7.7 -706.4,13.4 -1572.2,13.4 H 1249.2 v 3407.5 3407.5 h 268.8 268.8 v 44.2 c 0,65.3 65.3,245.7 120.9,332.1 25,40.3 94.1,120.9 153.6,176.6 l 107.5,99.8 h -637.3 c -579.9,-0.1 -645.1,-3.9 -714.2,-36.6 z"
       id="path6"
       style="fill:#d3dae3;fill-opacity:1"
       inkscape:connector-curvature="0" /><path
       d="m 6125.2,3801.4 c 134.4,-140.1 201.6,-259.2 236.1,-422.3 l 21.1,-101.7 h 264.9 264.9 V 1175.2 c 0,-1155.7 5.8,-2102.1 15.4,-2102.1 7.7,0 159.3,144 336,322.5 l 320.6,320.6 v 1929.3 c 0,1286.2 -7.7,1954.2 -21.1,2002.2 -25,94.1 -120.9,201.6 -218.8,245.7 -69.1,32.6 -138.2,36.5 -710.3,36.5 h -635.4 z"
       id="path8"
       style="fill:#d3dae3;fill-opacity:1"
       inkscape:connector-curvature="0" /><path
       d="m 4374.5,576.3 -860,-860 L 3220.7,10 2928.9,301.8 2660.2,33 l -268.8,-268.8 562.5,-562.5 560.6,-560.6 1126.8,1127 1128.8,1128.8 -268.8,268.8 -268.8,268.8 z"
       id="path10"
       style="fill:#718dcf;fill-opacity:1"
       inkscape:connector-curvature="0" /><path
       d="M 8640,238.4 C 8524.8,205.8 8409.6,123.2 8236.9,-51.5 l -144,-145.9 437.7,-437.6 437.7,-435.8 199.6,203.5 c 176.6,180.5 201.6,216.9 230.4,314.8 44.2,151.6 28.8,284.1 -49.9,431.9 -144,272.6 -455,430 -708.4,359 z"
       id="path12"
       style="fill:#718dcf;fill-opacity:1"
       inkscape:connector-curvature="0" /><path
       d="m 6238.5,-2053.7 -1528.1,-1531.9 -168.9,-591.3 c -92.1,-324.4 -163.2,-595.1 -157.4,-602.8 7.7,-5.8 280.3,65.3 606.6,157.4 l 595.1,170.9 1531.9,1531.9 1531.9,1531.9 -431.9,431.9 c -238.1,238 -435.8,431.9 -441.5,431.9 -5.8,0.1 -696.9,-689.1 -1537.7,-1529.9 z M 5088.6,-3787.2 c 42.2,-21.1 105.6,-65.3 142.1,-96 72.9,-65.3 184.3,-228.5 184.3,-270.7 0,-17.3 -69.1,-46.1 -209.3,-86.4 l -211.2,-59.5 -65.3,67.2 -65.3,65.3 53.8,186.2 c 67.2,224.6 71,232.3 84.5,232.3 5.8,0 44.2,-17.3 86.4,-38.4 z"
       id="path14"
       style="fill:#718dcf;fill-opacity:1"
       inkscape:connector-curvature="0" /><path
       d="m 6969.9,-3508.8 -604.7,-606.6 462.6,5.8 462.7,5.8 94.1,57.6 c 69.1,44.2 107.5,86.4 147.8,163.2 l 51.8,105.6 -3.8,437.7 -5.7,435.8 z"
       id="path16"
       style="fill:#d3dae3;fill-opacity:1"
       inkscape:connector-curvature="0" /></g></g>
</svg>