<?xml version="1.0" encoding="UTF-8" standalone="no"?>
<svg
   xmlns:dc="http://purl.org/dc/elements/1.1/"
   xmlns:cc="http://creativecommons.org/ns#"
   xmlns:rdf="http://www.w3.org/1999/02/22-rdf-syntax-ns#"
   xmlns:svg="http://www.w3.org/2000/svg"
   xmlns="http://www.w3.org/2000/svg"
   xmlns:sodipodi="http://sodipodi.sourceforge.net/DTD/sodipodi-0.dtd"
   xmlns:inkscape="http://www.inkscape.org/namespaces/inkscape"
   width="24"
   height="24"
   viewBox="0 0 24 24"
   version="1.1"
   id="SVGRoot"
   inkscape:version="0.92.4 (5da689c313, 2019-01-14)"
   sodipodi:docname="kteatime.svg">
  <defs
     id="defs827" />
  <sodipodi:namedview
     id="base"
     pagecolor="#ffffff"
     bordercolor="#666666"
     borderopacity="1.0"
     inkscape:pageopacity="0.0"
     inkscape:pageshadow="2"
     inkscape:zoom="12.8"
     inkscape:cx="21.804688"
     inkscape:cy="11.53125"
     inkscape:document-units="px"
     inkscape:current-layer="layer1"
     showgrid="false"
     inkscape:window-width="1920"
     inkscape:window-height="1009"
     inkscape:window-x="0"
     inkscape:window-y="0"
     inkscape:window-maximized="1"
     inkscape:grid-bbox="true" />
  <metadata
     id="metadata830">
    <rdf:RDF>
      <cc:Work
         rdf:about="">
        <dc:format>image/svg+xml</dc:format>
        <dc:type
           rdf:resource="http://purl.org/dc/dcmitype/StillImage" />
        <dc:title />
      </cc:Work>
    </rdf:RDF>
  </metadata>
  <g
     inkscape:label="Layer 1"
     inkscape:groupmode="layer"
     id="layer1"
     transform="translate(25.828125,2.46875)">
    <g
       id="kteatime"
       transform="matrix(0.01835514,0,0,0.01835514,-23.17767,0.60065009)">
      <g
         transform="matrix(0.1,0,0,-0.1,0,511)"
         id="g12">
        <path
           d="M 4458.2,4991.6 C 3294.8,4854.2 2275,4350.6 1471.7,3520.2 863.9,2889.6 456,2163.2 243.7,1328.6 127.2,864.5 98,619 100.1,77.8 c 2.1,-418.3 8.3,-518.2 56.2,-780.4 183.2,-1028.1 614,-1875.2 1325.7,-2609.9 755.5,-780.5 1723.2,-1273.7 2820,-1440.2 347.6,-54.1 1046.9,-54.1 1394.4,0 1103,166.5 2068.7,661.8 2830.4,1450.6 728.6,753.4 1176,1662.9 1334.2,2714 52,343.4 52,1044.8 0,1394.4 -151.9,1034.3 -609.8,1964.6 -1332,2709.7 -751.3,778.4 -1681.6,1263.3 -2759.7,1442.3 -339.2,56.2 -974,72.8 -1311.1,33.3 z M 5686.1,4656.5 C 7380.2,4396.4 8797.5,3203.8 9336.5,1584.6 9654.9,629.3 9654.9,-371.7 9336.5,-1327 8770.4,-3029.4 7230.4,-4251.1 5428,-4425.9 c -822.1,-81.2 -1692,79.1 -2437.1,445.4 -2272.7,1115.5 -3209.2,3844 -2102,6118.7 684.7,1409 2068.7,2376.8 3642.1,2547.4 253.9,27.1 888.7,12.5 1155.1,-29.1 z"
           id="path4"
           style="fill:#2a4c76;fill-opacity:1"
           inkscape:connector-curvature="0" />
        <path
           d="m 4936.8,3332.9 c -156.1,-85.3 -241.4,-172.7 -314.3,-320.5 -104.1,-212.3 -102,-445.4 6.3,-811.7 39.5,-139.4 95.7,-258.1 285.1,-624.4 77,-145.7 87.4,-179 79.1,-274.7 -6.3,-104.1 -6.3,-106.1 35.4,-85.3 89.5,47.9 299.7,285.1 358,403.8 49.9,99.9 60.3,149.8 60.3,268.5 0,195.6 -72.8,341.3 -333,661.8 -108.2,135.3 -214.4,276.8 -231,312.2 -60.4,112.4 -4.2,312.2 127,470.4 31.2,35.4 52,64.5 47.9,64.5 -2.1,-0.1 -58.3,-29.3 -120.8,-64.6 z"
           id="path6"
           style="fill:#2a4c76;fill-opacity:1"
           inkscape:connector-curvature="0" />
        <path
           d="m 4129.3,2710.6 c -293.5,-212.3 -297.6,-616 -8.3,-1144.7 64.5,-118.6 99.9,-212.3 108.2,-281 l 10.4,-104.1 97.8,91.6 c 54.1,47.9 126.9,145.7 162.3,216.4 110.3,222.7 77,368.4 -158.2,661.8 -87.4,108.2 -170.7,222.7 -189.4,256 -39.5,77 -25,181.1 45.8,285.1 62.5,98 45.9,102.1 -68.6,18.9 z"
           id="path8"
           style="fill:#d3dae3;fill-opacity:1"
           inkscape:connector-curvature="0" />
        <path
           d="m 2722.4,864.5 c -27.1,-93.7 -54.1,-322.6 -54.1,-476.6 0,-620.2 308,-1240.4 788.8,-1590 l 129,-93.7 -651.4,-6.2 c -632.7,-4.2 -651.4,-6.3 -697.2,-50 -62.4,-58.3 -60.4,-141.5 0,-199.8 45.8,-43.7 64.5,-45.8 499.5,-45.8 h 451.6 v -47.9 c 0,-27.1 20.8,-68.7 47.9,-93.7 l 47.9,-45.8 H 4658 6033.7 l 43.7,47.9 c 25,27.1 45.8,68.7 45.8,93.7 0,45.8 0,45.8 453.7,45.8 447.5,0 455.8,0 499.5,47.9 58.3,62.4 58.3,141.5 -2.1,197.7 -45.8,43.7 -64.6,45.8 -697.2,50 l -647.3,6.2 156.1,122.8 c 85.3,66.6 216.4,195.6 293.5,285.1 l 137.4,164.4 H 6656 c 295.6,0 353.8,6.2 449.6,43.7 228.9,89.5 449.5,285.1 559.8,497.4 41.6,77 50,124.9 50,270.6 0,158.2 -8.3,193.5 -66.6,314.3 -83.3,166.5 -231,312.2 -397.5,389.2 -104.1,47.9 -152,56.2 -389.2,62.4 -147.8,4.2 -278.9,16.7 -289.3,27.1 -12.5,10.4 -828.3,18.7 -1929.3,18.7 -1800.4,0 -1910.7,-2.1 -1921.1,-35.4 z M 7072.1,517 c 58.3,-27.1 139.5,-79.1 179,-114.5 93.7,-81.2 183.1,-256 183.1,-355.9 0,-99.9 -89.5,-274.7 -183.1,-355.9 -145.7,-129 -258.1,-164.4 -516.2,-164.4 h -233.1 l 58.2,183.1 c 77,239.3 112.4,491.2 97.9,693.1 l -12.5,164.4 h 160.3 c 124.9,0 183.2,-10.4 266.4,-49.9 z"
           id="path10"
           style="fill:#d3dae3;fill-opacity:1"
           inkscape:connector-curvature="0" />
      </g>
    </g>
    <g
       id="system-shutdown"
       transform="matrix(0.75,0,0,0.75,36.13916,-2.46875)">
      <rect
         ry="0"
         rx="0"
         y="0"
         x="-82.623047"
         height="32"
         width="32"
         id="rect1131"
         style="opacity:0;fill:#000000;fill-opacity:1;fill-rule:evenodd;stroke:none;stroke-width:2;stroke-linecap:round;stroke-linejoin:round;stroke-miterlimit:4;stroke-dasharray:none;stroke-opacity:1;paint-order:fill markers stroke" />
      <g
         transform="translate(2.3769531,44)"
         id="g1134" />
    </g>
  </g>
</svg>
