<?xml version="1.0" encoding="UTF-8" standalone="no"?>
<svg
   xmlns:dc="http://purl.org/dc/elements/1.1/"
   xmlns:cc="http://creativecommons.org/ns#"
   xmlns:rdf="http://www.w3.org/1999/02/22-rdf-syntax-ns#"
   xmlns:svg="http://www.w3.org/2000/svg"
   xmlns="http://www.w3.org/2000/svg"
   xmlns:sodipodi="http://sodipodi.sourceforge.net/DTD/sodipodi-0.dtd"
   xmlns:inkscape="http://www.inkscape.org/namespaces/inkscape"
   version="1.1"
   x="0px"
   y="0px"
   viewBox="0 0 24 24"
   enable-background="new 0 0 1000 1000"
   xml:space="preserve"
   id="svg14"
   sodipodi:docname="ktorrent.svg"
   width="24"
   height="24"
   inkscape:version="0.92.4 (5da689c313, 2019-01-14)"><metadata
   id="metadata10"><rdf:RDF><cc:Work
       rdf:about=""><dc:format>image/svg+xml</dc:format><dc:type
         rdf:resource="http://purl.org/dc/dcmitype/StillImage" /></cc:Work></rdf:RDF></metadata><defs
   id="defs18" /><sodipodi:namedview
   pagecolor="#ffffff"
   bordercolor="#666666"
   borderopacity="1"
   objecttolerance="10"
   gridtolerance="10"
   guidetolerance="10"
   inkscape:pageopacity="0"
   inkscape:pageshadow="2"
   inkscape:window-width="1920"
   inkscape:window-height="1009"
   id="namedview16"
   showgrid="false"
   inkscape:zoom="7.552"
   inkscape:cx="62.823401"
   inkscape:cy="8.6044178"
   inkscape:window-x="0"
   inkscape:window-y="0"
   inkscape:window-maximized="1"
   inkscape:current-layer="svg14"
   inkscape:lockguides="true"><inkscape:grid
     type="xygrid"
     id="grid817"
     originx="50.797669"
     originy="2.7309322" /></sodipodi:namedview>
<g
   id="ktorrent"
   transform="matrix(0.01836881,0,0,0.01836881,2.8223752,3.0036129)"><g
     transform="matrix(0.1,0,0,-0.1,0,511)"
     id="g10"><path
       d="m 4553.9,4989.5 c -390.4,-38 -861,-142.2 -1209.4,-270.3 C 3070.2,4619.1 2545.6,4354.8 2311.3,4198.6 1764.7,3834.2 1276.1,3345.6 911.7,2799 755.5,2564.7 491.2,2040.1 391.1,1765.8 257,1401.4 158.9,946.9 118.8,516.4 6.7,-701 399.2,-1984.4 1184.1,-2959.5 c 716.8,-891 1740,-1515.7 2849.2,-1738 366.4,-74.1 556.6,-92.1 971.1,-92.1 830.9,0 1517.7,168.2 2252.6,548.6 1315.5,680.8 2260.6,1932.2 2550.9,3375.8 74.1,366.5 92.1,556.7 92.1,971.2 0,828.9 -168.2,1523.7 -544.6,2248.6 -708.8,1363.6 -1996.3,2310.6 -3500,2576.9 -436.5,78 -887,98.1 -1301.5,58 z m 883,-360.4 c 849,-82.1 1623.9,-388.4 2340.7,-927.1 206.2,-154.2 668.8,-616.7 822.9,-822.9 442.5,-590.7 722.8,-1201.4 857,-1876.1 260.3,-1303.5 -38,-2578.9 -857,-3670.2 -154.2,-206.2 -616.7,-668.8 -822.9,-822.9 -700.8,-526.6 -1427.6,-821 -2264.6,-919.1 -1159.3,-136.2 -2302.6,184.2 -3281.7,919.1 -206.2,154.2 -668.8,616.7 -822.9,822.9 -538.6,716.8 -845,1491.7 -927,2340.6 -176.2,1794.1 748.9,3538.1 2340.7,4415 788.7,436.6 1719.8,628.8 2614.8,540.7 z"
       id="path4"
       style="fill:#2a4c76;fill-opacity:1"
       inkscape:connector-curvature="0" /><path
       d="M 4523.9,1337.4 V 65.9 h -430.5 c -236.3,0 -430.5,-4 -430.5,-10 0,-20 1325.5,-1511.7 1341.5,-1511.7 16,0 1341.5,1493.7 1341.5,1511.7 0,6 -194.2,10 -430.5,10 H 5485 V 1337.4 2608.9 H 5004.5 4524 V 1337.4 Z"
       id="path6"
       style="fill:#d3dae3;fill-opacity:1"
       inkscape:connector-curvature="0" /><path
       d="m 3702.9,-2136.6 v -240.3 h 1311.5 1311.5 v 240.3 240.3 H 5014.4 3702.9 Z"
       id="path8"
       style="fill:#618ecb;fill-opacity:1"
       inkscape:connector-curvature="0" /></g></g>
<g
   id="system-shutdown"
   transform="matrix(0.75,0,0,0.75,61.967285,0)"><rect
     ry="0"
     rx="0"
     y="0"
     x="-82.623047"
     height="32"
     width="32"
     id="rect1131"
     style="opacity:0;fill:#000000;fill-opacity:1;fill-rule:evenodd;stroke:none;stroke-width:2;stroke-linecap:round;stroke-linejoin:round;stroke-miterlimit:4;stroke-dasharray:none;stroke-opacity:1;paint-order:fill markers stroke" /><g
     transform="translate(2.3769531,44)"
     id="g1134" /></g></svg>