<?xml version="1.0" encoding="UTF-8" standalone="no"?>
<svg
   xmlns:dc="http://purl.org/dc/elements/1.1/"
   xmlns:cc="http://creativecommons.org/ns#"
   xmlns:rdf="http://www.w3.org/1999/02/22-rdf-syntax-ns#"
   xmlns:svg="http://www.w3.org/2000/svg"
   xmlns="http://www.w3.org/2000/svg"
   xmlns:sodipodi="http://sodipodi.sourceforge.net/DTD/sodipodi-0.dtd"
   xmlns:inkscape="http://www.inkscape.org/namespaces/inkscape"
   version="1.1"
   x="24"
   y="24"
   viewBox="0 0 29.116011 22"
   enable-background="new 0 0 1000 1000"
   xml:space="preserve"
   id="svg46"
   sodipodi:docname="printer.svg"
   inkscape:version="0.92.4 (5da689c313, 2019-01-14)"
   width="29.116011"
   height="22"><metadata
   id="metadata26"><rdf:RDF><cc:Work
       rdf:about=""><dc:format>image/svg+xml</dc:format><dc:type
         rdf:resource="http://purl.org/dc/dcmitype/StillImage" /></cc:Work></rdf:RDF></metadata><defs
   id="defs50" /><sodipodi:namedview
   pagecolor="#ffffff"
   bordercolor="#666666"
   borderopacity="1"
   objecttolerance="10"
   gridtolerance="10"
   guidetolerance="10"
   inkscape:pageopacity="0"
   inkscape:pageshadow="2"
   inkscape:window-width="1920"
   inkscape:window-height="1009"
   id="namedview48"
   showgrid="false"
   inkscape:zoom="7.5520001"
   inkscape:cx="11.370686"
   inkscape:cy="-3.863628"
   inkscape:window-x="0"
   inkscape:window-y="0"
   inkscape:window-maximized="1"
   inkscape:current-layer="svg46"
   inkscape:lockguides="true"><inkscape:grid
     type="xygrid"
     id="grid832"
     originx="57.740924"
     originy="-17.002412" /></sodipodi:namedview>
<g
   id="printer"
   transform="matrix(0.02103912,0,0,0.02079483,4.0196115,2.5824776)"><g
     id="g12"><g
       id="g10"><path
         d="M 970.4,284.4 H 29.6 C 18.8,284.4 10,293.2 10,304 v 450.8 c 0,10.8 8.8,19.6 19.6,19.6 H 148 l 21.6,-215.6 h 641.2 l 21.6,215.6 h 138 c 10.8,0 19.6,-8.8 19.6,-19.6 V 304 c 0,-10.8 -8.8,-19.6 -19.6,-19.6 z M 846.3,431.30093 c -21.6,0 -81.99101,2.19907 -81.99101,-19.50093 0,-21.7 60.94731,-18.93685 82.54731,-18.93685 21.6,0 81.43293,-2.76315 81.43293,18.93685 0,21.7 -60.38923,19.50093 -81.98923,19.50093 z"
         id="path4"
         style="fill:#d3dae3;fill-opacity:1"
         inkscape:connector-curvature="0"
         sodipodi:nodetypes="sssssccccsssssssss" /><polygon
         points="189.5,950.8 790.9,950.8 773.3,774.4 757.6,617.6 222.8,617.6 207.1,774.4 "
         id="polygon6"
         style="fill:#bcd0e8;fill-opacity:1"
         transform="matrix(1,0,0,0.52520114,0,275.85656)" /><rect
         x="225.60001"
         y="49.200001"
         width="529.20001"
         height="196"
         id="rect8"
         style="fill:#3b6ca7;fill-opacity:1" /></g></g><g
     id="g14" /><g
     id="g16" /><g
     id="g18" /><g
     id="g20" /><g
     id="g22" /><g
     id="g24" /><g
     id="g26" /><g
     id="g28" /><g
     id="g30" /><g
     id="g32" /><g
     id="g34" /><g
     id="g36" /><g
     id="g38" /><g
     id="g40" /><g
     id="g42" /></g>
<g
   id="printer-3"
   transform="matrix(1.323455,0,0,1,0,-2)"><rect
     y="2"
     x="0"
     height="22"
     width="22"
     id="rect3009"
     style="fill:#ffffff;fill-opacity:0;stroke:none" /></g></svg>