<?xml version="1.0" encoding="UTF-8" standalone="no"?>
<svg
   xmlns:osb="http://www.openswatchbook.org/uri/2009/osb"
   xmlns:dc="http://purl.org/dc/elements/1.1/"
   xmlns:cc="http://creativecommons.org/ns#"
   xmlns:rdf="http://www.w3.org/1999/02/22-rdf-syntax-ns#"
   xmlns:svg="http://www.w3.org/2000/svg"
   xmlns="http://www.w3.org/2000/svg"
   xmlns:sodipodi="http://sodipodi.sourceforge.net/DTD/sodipodi-0.dtd"
   xmlns:inkscape="http://www.inkscape.org/namespaces/inkscape"
   inkscape:version="1.0 (4035a4fb49, 2020-05-01)"
   sodipodi:docname="qbittorrent.svg"
   id="svg36"
   version="1.1"
   height="32"
   width="32"
   style="enable-background:new">
  <metadata
     id="metadata40">
    <rdf:RDF>
      <cc:Work
         rdf:about="">
        <dc:format>image/svg+xml</dc:format>
        <dc:type
           rdf:resource="http://purl.org/dc/dcmitype/StillImage" />
      </cc:Work>
    </rdf:RDF>
  </metadata>
  <sodipodi:namedview
     inkscape:document-rotation="0"
     inkscape:lockguides="true"
     inkscape:current-layer="svg36"
     inkscape:window-maximized="1"
     inkscape:window-y="0"
     inkscape:window-x="0"
     inkscape:cy="9.3453903"
     inkscape:cx="24.569359"
     inkscape:zoom="8.8090278"
     showgrid="false"
     id="namedview38"
     inkscape:window-height="1017"
     inkscape:window-width="1920"
     inkscape:pageshadow="2"
     inkscape:pageopacity="0"
     guidetolerance="10"
     gridtolerance="10"
     objecttolerance="10"
     borderopacity="1"
     bordercolor="#666666"
     pagecolor="#ffffff" />
  <defs
     id="defs4">
    <linearGradient
       osb:paint="solid"
       id="linearGradient5606">
      <stop
         style="stop-color:#000000"
         offset="0"
         id="stop5608" />
    </linearGradient>
  </defs>
  <g
     transform="translate(32,10)"
     id="22-22-qbittorrent">
    <path
       id="path6"
       d="M 0,0 H 22 V 22 H 0 Z"
       style="opacity:0" />
    <path
       id="path8"
       d="m 13,3 a 1,1 0 0 0 -1,1 v 11 h 2 V 14.458984 C 14.607485,14.81219 15.297298,14.998156 16,15 18.209139,15 20,13.209139 20,11 20,8.7908608 18.209139,7 16,7 15.29748,7.00125 14.607679,7.1865555 14,7.5390625 V 4 A 1,1 0 0 0 13,3 Z m 3,6 c 1.104569,0 2,0.8954308 2,2 0,1.104569 -0.895431,2 -2,2 -1.104569,0 -2,-0.895431 -2,-2 0,-1.1045692 0.895431,-2 2,-2 z"
       style="fill:#d3dae3;fill-opacity:1" />
    <path
       id="path10"
       d="m 6,7 c -2.209139,0 -4,1.7908608 -4,4 0,2.209139 1.790861,4 4,4 0.702523,-0.0013 1.392325,-0.188495 2,-0.541016 V 18 a 1,1 0 0 0 1,1 1,1 0 0 0 1,-1 V 7 H 8 V 7.5410156 C 7.392515,7.1878093 6.702702,7.0018543 6,7 Z M 6,9 C 7.10457,9 8,9.8954308 8,11 8,12.104569 7.10457,13 6,13 4.895431,13 4,12.104569 4,11 4,9.8954308 4.895431,9 6,9 Z"
       style="opacity:0.3;fill:#d3dae3;fill-opacity:1" />
  </g>
  <g
     id="qbittorrent">
    <rect
       id="rect13"
       style="opacity:0.001"
       y="0"
       x="0"
       height="32"
       width="32" />
    <g
       id="g33">
      <path
         inkscape:connector-curvature="0"
         id="path25"
         d="M 9.5,11 C 6.4624339,11 4,13.462434 4,16.5 4,19.537566 6.4624339,22 9.5,22 10.369602,21.9981 11.226371,21.789703 12,21.392578 V 25.5 A 1.5,1.5 0 0 0 13.5,27 1.5,1.5 0 0 0 15,25.5 v -9 -5.5 h -3 v 0.601562 C 11.225942,11.20617 10.369195,11.000303 9.5,11 Z m 0,3 C 10.880712,14 12,15.119288 12,16.5 12,17.880712 10.880712,19 9.5,19 8.1192881,19 7,17.880712 7,16.5 7,15.119288 8.1192881,14 9.5,14 Z"
         style="fill:#2a4c76;fill-opacity:1" />
      <path
         inkscape:connector-curvature="0"
         id="path29"
         d="M 18.5,6 A 1.5,1.5 0 0 0 17,7.5 v 9 5.5 h 3 V 21.398438 C 20.774058,21.79383 21.630805,21.999697 22.5,22 25.537566,22 28,19.537566 28,16.5 28,13.462434 25.537566,11 22.5,11 21.630398,11.0019 20.773629,11.210297 20,11.607422 V 7.5 A 1.5,1.5 0 0 0 18.5,6 Z m 4,8 C 23.880712,14 25,15.119288 25,16.5 25,17.880712 23.880712,19 22.5,19 21.119288,19 20,17.880712 20,16.5 20,15.119288 21.119288,14 22.5,14 Z"
         style="fill:#d3dae3;fill-opacity:1" />
    </g>
  </g>
  <path
     d="M 14.653855,2.3197821 C 11.954758,2.5606083 9.124248,3.7321762 7.038229,5.4788167 6.348313,6.0536035 5.291875,7.1543213 4.799076,7.8056694 3.320685,9.776854 2.406231,12.016004 2.04484,14.550827 c -0.09312,0.645926 -0.09312,2.803076 0,3.449291 0.383393,2.67167 1.407263,5.080795 3.00593,7.062828 0.57478,0.711921 1.75749,1.861494 2.452827,2.387137 1.954611,1.461816 4.204905,2.381709 6.734299,2.74309 0.645931,0.0931 2.80308,0.0931 3.449296,0 2.545967,-0.361381 4.76311,-1.270131 6.750585,-2.759375 0.651628,-0.487376 1.856057,-1.653508 2.392554,-2.315997 1.500103,-1.8452 2.556833,-4.177478 2.951074,-6.515184 0.29568,-1.719223 0.246524,-3.591558 -0.142279,-5.392766 C 29.234036,11.299236 28.160733,9.0817978 26.874324,7.4885655 26.299539,6.7769386 25.116832,5.6270831 24.421487,5.1014352 21.601565,2.9876996 18.168837,2.0078202 14.653853,2.3197821 Z m 3.151239,0.8296628 c 2.918211,0.4653707 5.401278,1.6668838 7.432456,3.7474818 1.056732,1.078437 1.77405,2.0914528 2.453116,3.4655683 0.865026,1.74664 1.292292,3.454713 1.358003,5.453041 0.12052,3.717532 -0.87736,6.817725 -3.450463,9.478813 -1.938047,2.003746 -4.445129,3.355678 -7.166212,3.859324 -3.126509,0.585755 -5.991699,0.195334 -8.600683,-1.22313 C 8.757891,27.346926 7.598852,26.589296 6.685986,25.654017 5.629263,24.575302 4.91349,23.562567 4.234424,22.188451 3.369676,20.442096 2.942125,18.733735 2.876425,16.740844 2.772501,13.5161 3.686133,10.658172 5.673308,8.0356415 6.067544,7.5154211 7.097579,6.4478372 7.628655,6.0044657 9.676395,4.296394 12.53911,3.3572838 15.134211,3.077891 c 0.706481,-0.076562 2.008396,-0.032433 2.670883,0.071554 z"
     id="path4-3"
     style="fill:#2a4c76;fill-opacity:1;stroke-width:0.00285677"
     inkscape:connector-curvature="0"
     sodipodi:nodetypes="ccccccccccccccccccccccsccccccc" />
</svg>
