<?xml version="1.0" encoding="UTF-8" standalone="no"?>
<svg
   xmlns:dc="http://purl.org/dc/elements/1.1/"
   xmlns:cc="http://creativecommons.org/ns#"
   xmlns:rdf="http://www.w3.org/1999/02/22-rdf-syntax-ns#"
   xmlns:svg="http://www.w3.org/2000/svg"
   xmlns="http://www.w3.org/2000/svg"
   xmlns:xlink="http://www.w3.org/1999/xlink"
   xmlns:sodipodi="http://sodipodi.sourceforge.net/DTD/sodipodi-0.dtd"
   xmlns:inkscape="http://www.inkscape.org/namespaces/inkscape"
   version="1.1"
   x="0px"
   y="0px"
   viewBox="0 0 24 24"
   enable-background="new 0 0 1000 1000"
   xml:space="preserve"
   id="svg10"
   sodipodi:docname="skype.svg"
   width="24"
   height="24"
   inkscape:version="1.0 (4035a4fb49, 2020-05-01)"><metadata
   id="metadata17"><rdf:RDF><cc:Work
       rdf:about=""><dc:format>image/svg+xml</dc:format><dc:type
         rdf:resource="http://purl.org/dc/dcmitype/StillImage" /></cc:Work></rdf:RDF></metadata><defs
   id="defs14"><radialGradient
     gradientTransform="matrix(2.4034553,0,0,2.408755,-16.841477,-16.886983)"
     gradientUnits="userSpaceOnUse"
     xlink:href="#linearGradient2895"
     id="radialGradient3937"
     fy="11.987168"
     fx="12.00001"
     r="9.5000095"
     cy="11.987168"
     cx="12.00001" /><linearGradient
     id="linearGradient2895"><stop
       offset="0"
       style="stop-color:#ffffff;stop-opacity:1"
       id="stop2897" /><stop
       offset="1"
       style="stop-color:#ffffff;stop-opacity:0"
       id="stop2899" /></linearGradient></defs><sodipodi:namedview
   inkscape:document-rotation="0"
   pagecolor="#ffffff"
   bordercolor="#666666"
   borderopacity="1"
   objecttolerance="10"
   gridtolerance="10"
   guidetolerance="10"
   inkscape:pageopacity="0"
   inkscape:pageshadow="2"
   inkscape:window-width="1920"
   inkscape:window-height="1017"
   id="namedview12"
   showgrid="false"
   inkscape:zoom="7.1677284"
   inkscape:cx="67.767395"
   inkscape:cy="15.221078"
   inkscape:window-x="0"
   inkscape:window-y="0"
   inkscape:window-maximized="1"
   inkscape:current-layer="svg10" />
<g
   id="skype"
   transform="matrix(0.02244898,0,0,0.02244898,1.0465102,0.7485102)"><path
     d="m 703.0909,513.95286 c 0,-120.6 -97.8,-218.4 -218.4,-218.4 -11.3,0 -22.3,1.1 -33.1,2.8 -21.8,-18.6 -50,-29.9 -80.9,-29.9 -68.8,-0.1 -124.6,55.7 -124.6,124.5 0,28.1 9.4,53.9 25.1,74.7 -3.2,14.9 -5,30.4 -5,46.3 0,120.7 97.8,218.5 218.4,218.5 15.5,0 30.6,-1.7 45.2,-4.8 21.9,19.1 50.4,30.7 81.7,30.7 68.8,0 124.6,-55.8 124.6,-124.6 0,-34 -13.6,-64.8 -35.8,-87.2 1.6,-10.7 2.8,-21.5 2.8,-32.6 z m -116.6,95.1 c -8.6,12.2 -21.2,21.8 -37.8,28.7 -16.6,7 -36.2,10.4 -58.9,10.4 -27.3,0 -49.8,-4.7 -67.5,-14.2 -12.5,-6.8 -22.7,-15.9 -30.6,-27.3 -7.8,-11.3 -11.8,-22.4 -11.8,-33.1 0,-6.3 2.4,-11.6 7.1,-16 4.7,-4.5 10.7,-6.7 18,-6.7 5.9,0 10.9,1.7 15,5.2 4.1,3.4 7.6,8.6 10.4,15.4 3.5,8.1 7.3,14.8 11.4,20.2 4.1,5.4 9.8,9.9 17.2,13.4 7.4,3.5 17.2,5.3 29.2,5.3 16.6,0 30.1,-3.5 40.4,-10.6 10.3,-7.1 15.6,-15.9 15.6,-26.6 0,-8.4 -2.8,-15.3 -8.4,-20.5 -5.6,-5.3 -12.8,-9.3 -21.7,-12.1 -8.9,-2.8 -20.6,-5.7 -35.5,-8.8 -19.8,-4.3 -36.4,-9.3 -49.8,-15 -13.4,-5.7 -24,-13.5 -31.8,-23.4 -7.9,-9.9 -11.8,-22.2 -11.8,-36.8 0,-14 4.1,-26.4 12.4,-37.2 8.3,-10.8 20.2,-19.2 36,-25 15.7,-5.8 34.1,-8.7 55.4,-8.7 16.9,0 31.6,1.9 44,5.8 12.4,3.9 22.6,9 30.8,15.4 8.1,6.4 14.1,13.2 17.9,20.2 3.8,7 5.7,13.9 5.7,20.6 0,6.1 -2.4,11.7 -7,16.6 -4.7,4.9 -10.6,7.4 -17.6,7.4 -6.4,0 -11.3,-1.5 -14.6,-4.4 -3.3,-2.9 -6.9,-7.7 -10.8,-14.4 -5,-9.6 -11,-17.1 -18.1,-22.4 -7,-5.4 -18.3,-8 -33.9,-8 -14.4,0 -26,2.9 -34.9,8.7 -8.9,5.8 -13.3,12.8 -13.3,21 0,5.1 1.5,9.5 4.5,13.2 3,3.7 7.1,6.8 12.4,9.5 5.2,2.7 10.6,4.7 16,6.3 5.4,1.5 14.3,3.7 26.7,6.5 15.6,3.3 29.6,7.1 42.3,11.1 12.6,4 23.4,8.9 32.2,14.7 8.9,5.8 15.8,13.1 20.7,21.9 5,8.8 7.4,19.6 7.4,32.5 0,15.2 -4.3,29 -12.9,41.2 z"
     id="path6"
     style="fill:#2a4c76;fill-opacity:1" /></g>
<g
   id="g14"
   transform="translate(0,-1028.3622)"><rect
     style="opacity:0;fill:#000000;fill-opacity:0.392157;stroke:none"
     id="rect5017"
     y="1028.3622"
     x="0"
     height="24"
     width="24" /><g
     id="g3939"><path
       inkscape:connector-curvature="0"
       style="fill:url(#radialGradient3937);fill-opacity:0;stroke:none"
       id="path3859"
       transform="translate(0,1028.3622)"
       d="M 7.40625,2.46875 C 7.1980184,2.4763641 6.9978475,2.494075 6.78125,2.53125 4.356945,2.94735 2.500891,5.1039 2.5,7.5 2.49978,8.0915 2.602238,8.6451 2.84375,9.375 L 3.03125,10 v 1.59375 C 3.03444,12.93135 3.0595,13.2467 3.125,13.5625 3.997984,17.772 7.1530155,20.6414 11.3125,21 c 0.435237,0.042 0.794696,0.041 1.53125,0 l 0.96875,-0.0625 0.53125,0.1875 c 0.614772,0.2187 0.911434,0.29075 1.21875,0.34375 0.317896,0.052 1.064309,0.053 1.5,0 1.089268,-0.1332 2.191136,-0.65975 3,-1.46875 0.697918,-0.6981 1.151549,-1.55635 1.375,-2.59375 0.05626,-0.2612 0.06294,-0.55905 0.0625,-1.03125 -6.87e-4,-0.7587 -0.03759,-1.00895 -0.34375,-1.90625 L 20.96875,13.875 21,12.625 C 21.033094,11.2231 20.985154,10.7584 20.75,9.8125 19.9752,6.6961 17.586462,4.24825 14.4375,3.34375 13.543684,3.08725 13.540471,3.0955 11.6875,3.0625 L 9.9375,3.03125 9.40625,2.84375 c -0.7603852,-0.2661 -1.3753051,-0.3978422 -2,-0.375 z m 4.5625,2.96875 c 1.935866,0 3.779664,0.7623 4.53125,1.875 0.623557,0.9232 0.311435,1.86915 -0.6875,2.03125 -0.538029,0.087 -0.794051,-0.0309 -1.5625,-0.75 -0.860651,-0.8049 -1.340646,-1.0014 -2.4375,-1 -1.017643,0 -1.607067,0.30055 -1.875,0.90625 -0.1734598,0.3921 -0.1793071,0.47435 -0.0625,0.78125 0.142297,0.3739 0.569791,0.69565 1.09375,0.84375 0.186533,0.053 1.071881,0.26005 2,0.46875 2.573997,0.5789 3.523629,1.12525 4.09375,2.34375 0.215953,0.4616 0.218312,0.64985 0.21875,1.46875 4.68e-4,0.871 0.0012,0.95745 -0.28125,1.53125 -0.507465,1.0308 -1.550605,1.78175 -2.875,2.09375 -0.749657,0.1766 -2.376608,0.26525 -3.15625,0.15625 -2.2770643,-0.3186 -3.9303707,-1.5893 -3.9375,-3 -0.00255,-0.5039 0.2317348,-0.8759 0.625,-1.0625 0.6495374,-0.3082 1.0898276,-0.1357 1.9375,0.8125 0.711175,0.7955 1.052202,1.0177 1.875,1.1875 1.045535,0.2158 2.103027,-0.0573 2.65625,-0.6875 0.24541,-0.2795 0.3125,-0.4164 0.3125,-0.75 0,-0.5364 -0.141903,-0.87365 -0.5,-1.09375 -0.158723,-0.098 -1.217599,-0.4023 -2.34375,-0.6875 -1.126151,-0.2852 -2.3293997,-0.6595 -2.65625,-0.8125 -1.2157547,-0.5689 -1.7903528,-1.408 -1.875,-2.6875 C 6.9035706,7.00385 8.8307774,5.4429 11.96875,5.4375 Z" /></g></g><path
   d="M 11.180933,2.5345448 C 9.301203,2.7022634 7.329956,3.5181784 5.877184,4.7345911 5.396706,5.1348899 4.660971,5.901463 4.317772,6.3550817 3.288179,7.7278722 2.651324,9.2872846 2.399645,11.052614 c -0.06486,0.449838 -0.06486,1.952149 0,2.402185 0.266998,1.860631 0.980054,3.53842 2.093407,4.918771 0.400299,0.495795 1.223974,1.296392 1.70823,1.662469 1.361252,1.018055 2.928422,1.658691 4.689972,1.91037 0.449837,0.06486 1.952149,0.06486 2.402186,0 1.773089,-0.251679 3.317181,-0.884555 4.701313,-1.921709 0.453816,-0.339418 1.292612,-1.151553 1.666249,-1.61293 1.044715,-1.285053 1.78065,-2.909323 2.055212,-4.537374 0.20592,-1.197313 0.171691,-2.501265 -0.09908,-3.755679 C 21.335011,8.7881056 20.587538,7.2438154 19.691642,6.1342407 19.291343,5.6386428 18.467668,4.8378483 17.983412,4.4717713 16.019525,2.9997025 13.628877,2.3172851 11.180933,2.5345448 Z m 2.194625,0.5778021 c 2.032328,0.3240981 3.761609,1.1608679 5.176181,2.6098588 0.735936,0.7510554 1.235503,1.4565506 1.708421,2.4135249 0.602436,1.2164131 0.899993,2.4059674 0.945756,3.7976584 0.08395,2.589004 -0.611017,4.748065 -2.403008,6.601333 -1.349712,1.395472 -3.095718,2.336998 -4.990765,2.687757 C 11.634744,21.630415 9.63935,21.358506 7.822376,20.370645 7.074805,19.964201 6.267621,19.436562 5.63187,18.785207 4.895935,18.033954 4.397448,17.328656 3.924532,16.371682 3.322295,15.155469 3.024539,13.965717 2.97878,12.577805 2.90636,10.331998 3.542686,8.3416493 4.926619,6.5152403 5.201176,6.152944 5.918514,5.4094464 6.288372,5.1006685 7.714483,3.9111166 9.708161,3.2570921 11.515469,3.0625146 c 0.492016,-0.05332 1.39871,-0.022587 1.860089,0.049832 z"
   id="path4-3"
   style="fill:#2a4c76;fill-opacity:1;stroke-width:0.00198955"
   inkscape:connector-curvature="0"
   sodipodi:nodetypes="ccccccccccccccccccccccsccccccc" /></svg>
