<?xml version="1.0" encoding="UTF-8" standalone="no"?>
<svg
   xmlns:dc="http://purl.org/dc/elements/1.1/"
   xmlns:cc="http://creativecommons.org/ns#"
   xmlns:rdf="http://www.w3.org/1999/02/22-rdf-syntax-ns#"
   xmlns:svg="http://www.w3.org/2000/svg"
   xmlns="http://www.w3.org/2000/svg"
   xmlns:sodipodi="http://sodipodi.sourceforge.net/DTD/sodipodi-0.dtd"
   xmlns:inkscape="http://www.inkscape.org/namespaces/inkscape"
   height="18"
   width="18.620689"
   version="1.1"
   id="svg10"
   sodipodi:docname="start.svg"
   inkscape:version="0.92.4 (5da689c313, 2019-01-14)">
  <metadata
     id="metadata10" />
  <defs
     id="defs14" />
  <sodipodi:namedview
     pagecolor="#ffffff"
     bordercolor="#666666"
     borderopacity="1"
     objecttolerance="10"
     gridtolerance="10"
     guidetolerance="10"
     inkscape:pageopacity="0"
     inkscape:pageshadow="2"
     inkscape:window-width="1920"
     inkscape:window-height="1017"
     id="namedview12"
     showgrid="false"
     inkscape:zoom="7.552"
     inkscape:cx="-24.693172"
     inkscape:cy="3.9945275"
     inkscape:window-x="0"
     inkscape:window-y="0"
     inkscape:window-maximized="1"
     inkscape:current-layer="svg10"
     inkscape:lockguides="true" />
  <g
     id="start-here-kde"
     transform="matrix(-0.04072767,0,0,-0.04072767,42.866794,17.339937)">
    <metadata
       id="metadata2">Icons<rdf:RDF>
  <cc:Work
     rdf:about="">
    <dc:format>image/svg+xml</dc:format>
    <dc:type
       rdf:resource="http://purl.org/dc/dcmitype/StillImage" />
    <dc:title>brand-reuters</dc:title>
  </cc:Work>
</rdf:RDF>
</metadata>
    <path
       d="m 801.01238,236.81316 c -2.00323,1.10904 -2.6812,3.6759 -1.69507,5.7356 0.98627,2.05975 3.48259,2.75686 5.57827,1.74287 2.00322,-1.14074 2.68127,-3.70753 1.695,-5.73563 -1.20189,-2.05973 -3.575,-2.8836 -5.5782,-1.74284 z m 19.3543,5.51377 c -1.20188,-2.34493 -4.09889,-3.1688 -6.4103,-1.93293 -2.28056,1.23572 -3.08191,4.21451 -1.87994,6.55946 1.20195,2.34493 4.09894,3.16885 6.3796,1.93296 2.28048,-1.20411 3.08174,-4.18283 1.91064,-6.55949 z m -3.69821,-83.11904 c 2.58881,-1.4577 3.48251,-4.72154 2.09571,-7.38337 -1.29441,-2.66185 -4.59207,-3.61253 -7.1808,-2.15493 -2.58888,1.331 -3.48257,4.59493 -2.09579,7.2567 1.38688,2.7887 4.59209,3.7076 7.18088,2.2816 z m 7.27331,-2.78858 c 1.2019,2.37666 3.97562,3.2005 6.28705,1.96468 2.37295,-1.23588 3.08192,-4.21453 1.87996,-6.55947 -1.20197,-2.37673 -4.06812,-3.20057 -6.28708,-1.96473 -2.28065,1.2359 -3.08184,4.2146 -1.87993,6.55952 z m 8.66,92.68896 c 2.61969,-1.42596 3.51351,-4.81664 2.09581,-7.38346 -1.38684,-2.66179 -4.56124,-3.5808 -7.18082,-2.15473 -2.5888,1.33085 -3.48257,4.62652 -2.06488,7.38338 1.47931,2.5668 4.68446,3.58082 7.14989,2.15481 z m -54.6112,-67.24307 c 1.17118,2.24989 4.06811,3.16891 6.37954,1.93304 2.28066,-1.2359 3.08191,-4.2146 1.88004,-6.55954 -1.20198,-2.24993 -4.09898,-3.16883 -6.37958,-1.93301 -2.28063,1.3309 -3.20515,4.1829 -1.88,6.55951 z m 6.472,41.8289 c 1.38688,-0.8239 2.00324,-2.6935 1.20194,-4.11959 -0.80129,-1.33082 -2.49634,-1.93293 -4.00644,-1.23578 -1.47933,0.72882 -1.97243,2.56678 -1.2019,4.11947 0.80125,1.52106 2.49634,2.0598 4.0064,1.2359 z m 10.0778,6.97145 c -0.92451,-1.74283 -2.98946,-2.37662 -4.80772,-1.45767 -1.69508,0.91898 -2.37311,3.20058 -1.47935,4.94332 0.89377,1.743 2.98944,2.44012 4.77697,1.42613 1.7875,-0.91902 2.40383,-3.07383 1.5101,-4.91178 z m -6.99587,-67.68669 c -2.5888,1.45769 -3.57505,4.72158 -2.09572,7.3834 1.38691,2.56684 4.49959,3.61254 7.08836,2.15484 2.5888,-1.42601 3.57503,-4.7216 2.18816,-7.38344 -1.47929,-2.5667 -4.68445,-3.58076 -7.1808,-2.1548 z m -5.97892,42.87458 c -0.98621,-1.74293 -2.98941,-2.47173 -4.77693,-1.55275 -1.69503,1.01401 -2.40388,3.16886 -1.41766,4.91171 1.01703,1.74289 3.11271,2.47169 4.80775,1.45776 1.57181,-0.82396 2.28063,-3.07387 1.38684,-4.81672 z m 57.81645,-51.36709 c -1.9724,1.1091 -2.68121,3.67584 -1.69497,5.7356 1.10941,2.05975 3.60577,2.75691 5.60905,1.6478 1.97236,-1.14084 2.68119,-3.70756 1.69502,-5.73561 -1.10945,-2.05975 -3.6983,-2.78865 -5.6091,-1.64779 z m -64.90485,40.78315 c 1.10955,2.05972 3.60587,2.78859 5.5783,1.74285 2.0032,-1.10911 2.71208,-3.6759 1.69507,-5.73565 -1.17118,-2.0281 -3.57507,-2.7569 -5.6707,-1.6161 -1.88,1.01407 -2.58884,3.67585 -1.60267,5.6089 z m 29.43227,-30.64283 c 2.89692,-1.64781 3.97562,-5.32368 2.37298,-8.3024 -1.57179,-2.97878 -5.17755,-4.08785 -8.07455,-2.47168 -2.89701,1.55274 -3.97571,5.3553 -2.37311,8.3024 1.47933,2.88367 5.1776,4.02445 8.07468,2.47168 z m 58.83342,28.29789 c 0.89378,1.74283 3.08191,2.34494 4.68447,1.55275 1.69506,-1.04581 2.37304,-3.20061 1.47934,-4.94344 -0.98626,-1.74287 -3.0819,-2.44 -4.77699,-1.42603 -1.60253,0.82396 -2.31131,3.07385 -1.38682,4.81672 z m -3.02029,-17.93579 c -1.2944,0.82393 -1.88,2.6619 -1.0786,4.08782 0.80121,1.5528 2.5888,2.05981 3.88318,1.23599 1.51009,-0.82399 2.00322,-2.56687 1.20186,-3.99279 -0.80128,-1.5528 -2.49624,-2.0598 -4.00644,-1.33102 z m 9.9854,28.39294 c -1.10952,-2.05973 -3.48257,-2.75692 -5.57829,-1.74285 -2.00316,1.14082 -2.71205,3.7076 -1.69501,5.73565 1.07862,2.05976 3.57505,2.78858 5.57822,1.64777 2.0957,-1.01401 2.80455,-3.58077 1.69508,-5.64057 z m -3.39015,13.436 c -1.20181,-2.24991 -4.09887,-3.16892 -6.37945,-1.96471 -2.2806,1.2358 -3.08201,4.30964 -1.91084,6.55958 1.20194,2.28152 4.09899,3.20049 6.28704,1.96461 2.40396,-1.23579 3.20517,-4.21455 2.00325,-6.55948 z m -15.16293,-53.61707 c -1.78752,0.91898 -2.37306,3.07383 -1.47935,4.91176 0.89385,1.74285 2.98943,2.47171 4.777,1.55276 1.69502,-1.04585 2.40382,-3.20057 1.5101,-4.94346 -1.01695,-1.93297 -3.11269,-2.56671 -4.80775,-1.52106 z m -10.75579,70.95056 c -2.89701,1.61627 -4.00646,5.3238 -2.40392,8.30252 1.60258,2.94699 5.17759,4.08783 8.07459,2.44 2.89697,-1.61612 4.00645,-5.41872 2.4039,-8.3024 -1.51015,-2.97872 -5.17757,-4.08782 -8.07457,-2.44012 z m 16.33404,1.42613 c 2.61964,-1.33098 3.51335,-4.72164 2.09573,-7.2884 -1.38691,-2.66182 -4.56123,-3.58082 -7.18082,-2.15479 -2.58884,1.45766 -3.48256,4.72155 -2.09573,7.38337 1.41765,2.56679 4.592,3.58084 7.18082,2.05982 z m 21.45003,-52.60304 c 2.4963,0.7289 5.08516,-0.69709 5.79396,-3.26389 0.67804,-2.56676 -0.7088,-5.22867 -3.20516,-5.95749 -2.49636,-0.7288 -5.1775,0.72882 -5.79401,3.29568 -0.77045,2.44 0.7089,5.22861 3.20521,5.9257 z m -46.25932,-45.91664 c -1.20199,4.18294 1.07871,8.61927 5.17762,9.82342 4.09886,1.23585 8.3827,-1.10912 9.58478,-5.32368 1.29429,-4.3096 -1.10958,-8.6192 -5.20849,-9.9502 -4.16063,-1.23586 -8.4752,1.23586 -9.55391,5.45046 z m -51.56019,11.37621 c -0.67803,2.56673 0.70883,5.22853 3.20518,5.9574 2.49632,0.69717 5.08509,-0.72887 5.76312,-3.29557 0.70888,-2.56679 -0.67803,-5.13357 -3.17431,-5.9575 -2.40389,-0.69711 -4.99269,0.7288 -5.79399,3.29567 z m 83.45789,102.00534 c 0.70882,-2.56672 -0.70886,-5.32369 -3.08199,-5.95742 -2.49621,-0.69718 -5.08509,0.72876 -5.8864,3.29562 -0.70884,2.47167 0.70882,5.13353 3.17437,5.95743 2.40384,0.60208 5.08516,-0.8239 5.79402,-3.29563 z m -0.80138,-100.76961 c 1.10951,-3.61241 -0.98614,-7.47844 -4.46872,-8.6192 -3.60576,-1.14079 -7.39656,1.014 -8.38274,4.72156 -1.1095,3.58081 0.98618,7.47848 4.46876,8.61931 3.60588,1.01407 7.30412,-1.04577 8.3827,-4.72167 z M 785.84946,257.7276 c 3.60585,1.014 7.27329,-1.04575 8.38272,-4.62662 0.98622,-3.58072 -0.98616,-7.4785 -4.592,-8.6192 -3.575,-1.10912 -7.27327,1.04569 -8.2595,4.72154 -1.10945,3.5808 0.89382,7.38348 4.46878,8.52428 z m -13.6528,-14.25983 c 3.17434,1.01401 6.472,-0.82397 7.48899,-4.08786 0.89373,-3.20054 -0.92462,-6.68631 -4.09891,-7.70028 -3.20516,-0.91903 -6.472,0.91888 -7.39662,4.21457 -0.98614,3.26393 0.80133,6.65456 4.00654,7.57357 z m -1.38688,-75.76733 c 1.97246,0.63375 4.06808,-0.60212 4.6845,-2.66178 0.58558,-2.0598 -0.61642,-4.21467 -2.58882,-4.81671 -2.00321,-0.60214 -4.19135,0.60204 -4.71534,2.66184 -0.58554,2.05981 0.61646,4.21453 2.61966,4.81665 z m 29.21649,-21.42145 c 3.08179,1.01408 6.47188,-0.82395 7.3657,-4.08784 0.89375,-3.20049 -0.89382,-6.68636 -3.97568,-7.60525 -3.20519,-0.91891 -6.50281,0.91889 -7.48904,4.11953 -0.89374,3.1688 0.89373,6.65456 4.09902,7.57356 z m 18.52212,-2.88362 c 3.60588,1.14075 7.27332,-1.01406 8.38281,-4.59487 0.9862,-3.70758 -0.98622,-7.60531 -4.49962,-8.61927 -3.57491,-1.14074 -7.27318,1.01396 -8.3519,4.62646 -1.20197,3.6759 0.89379,7.4785 4.46871,8.58768 z m 57.53912,19.39336 c 0.98627,-3.16892 -0.80136,-6.65459 -3.97563,-7.60523 -3.11269,-0.79224 -6.50287,1.0457 -7.39659,4.21459 -0.98626,3.2956 0.89372,6.65453 4.0065,7.57354 3.1743,1.04571 6.37952,-0.91901 7.36572,-4.1829 z m -112.67433,62.23632 c 2.4964,0.82384 5.08525,-0.72889 5.794,-3.29565 0.678,-2.56676 -0.70875,-5.22863 -3.20515,-5.95748 -2.49636,-0.79219 -5.17765,0.72885 -5.76316,3.20057 -0.6164,2.66185 0.678,5.32367 3.17431,6.05256 z m 123.24525,-26.36489 c 0.58559,-2.05975 -0.58551,-4.18285 -2.5888,-4.81669 -2.00324,-0.60207 -4.19137,0.63384 -4.68448,2.66193 -0.61636,2.05972 0.58557,4.3096 2.58874,4.81658 2.00326,0.63382 4.09903,-0.60211 4.68454,-2.66182 z m -123.83079,-14.038 c 1.47927,0.41195 3.08194,-0.41196 3.48252,-2.05982 0.40068,-1.52095 -0.40058,-3.16895 -1.91078,-3.58083 -1.47931,-0.41193 -3.08182,0.41188 -3.48251,1.93303 -0.40069,1.55275 0.40069,3.20055 1.91077,3.70762 z m 1.97243,17.61875 c 0.61641,-2.02808 -0.58554,-4.18282 -2.58879,-4.81664 -1.97241,-0.60207 -4.06809,0.63382 -4.77692,2.66192 -0.58558,2.05968 0.58552,4.2145 2.58875,4.84829 2.09571,0.60212 4.19142,-0.63379 4.77696,-2.69357 z m 114.98572,17.65056 c 1.47927,0.41199 3.08192,-0.41197 3.48256,-1.96467 0.40064,-1.52109 -0.40064,-3.16882 -1.91079,-3.5808 -1.4793,-0.41197 -3.08193,0.41198 -3.48254,1.96467 -0.40063,1.52106 0.40061,3.07376 1.91077,3.5808 z m -67.40114,41.82884 c 1.17106,-4.21459 -1.10946,-8.61933 -5.20847,-9.85511 -4.06812,-1.2358 -8.35196,1.1408 -9.55382,5.3554 -1.20201,4.27792 1.07862,8.58752 5.17754,9.82336 4.0989,1.23584 8.38282,-1.10905 9.58475,-5.32365 z M 844.2823,252.499 c -3.08195,-1.04575 -6.47201,0.91892 -7.48899,4.0878 -0.80133,3.16883 1.01698,6.6546 4.09887,7.60521 3.1744,1.01408 6.47203,-0.82389 7.36576,-4.11951 0.89374,-3.16881 -0.80127,-6.55952 -3.97564,-7.5735 z m 29.21639,-21.54825 c -2.0033,-0.60214 -4.19131,0.63385 -4.68442,2.66185 -0.61648,2.15487 0.58556,4.3096 2.49629,4.9434 2.0957,0.60213 4.19139,-0.6338 4.77695,-2.6618 0.49315,-2.0598 -0.58556,-4.3096 -2.58882,-4.94345 z m -47.76943,24.52692 c -3.57499,-1.14076 -7.27322,1.01402 -8.38279,4.59483 -1.07868,3.58082 1.01705,7.38342 4.49959,8.52426 3.57492,1.10911 7.27332,-1.04576 8.38277,-4.62656 1.0786,-3.67585 -0.89374,-7.47851 -4.49957,-8.49253 z m 37.29093,-125.4866 c 3.29765,-3.61244 3.08194,-9.12628 -0.3081,-12.51687 -3.4826,-3.39071 -8.84502,-3.16892 -12.14268,0.3168 -3.2977,3.5808 -3.11274,9.0946 0.27729,12.48529 3.51345,3.3907 8.99915,3.2005 12.17349,-0.28522 z m 7.9822,15.97105 c 3.97559,3.89767 10.26267,3.58078 13.961,-0.41193 3.7907,-4.08788 3.575,-10.55232 -0.4007,-14.45004 -3.97563,-3.89767 -10.2627,-3.58082 -13.96094,0.41197 -3.79082,4.21467 -3.57506,10.67903 0.40064,14.45 z m -97.72705,106.822 c -3.97566,-3.8977 -10.26283,-3.5808 -13.96106,0.41198 -3.7599,4.11953 -3.57501,10.45722 0.40062,14.3549 4.00654,3.8977 10.29358,3.70752 13.96106,-0.41199 3.69827,-4.08781 3.51335,-10.55221 -0.40062,-14.35489 z M 745.96966,193.0196 c 2.28062,-2.44 2.09565,-6.4645 -0.21577,-8.71433 -2.4655,-2.345 -6.25622,-2.24996 -8.4752,0.31689 -2.1881,2.56675 -2.1881,6.36939 0.21573,8.71429 2.40393,2.34495 6.19464,2.15484 8.47524,-0.31685 z m 11.15644,52.60288 c 3.29764,-3.58076 3.11277,-9.12621 -0.27732,-12.51688 -3.51339,-3.39063 -8.87591,-3.16889 -12.17355,0.41191 -3.29763,3.48579 -3.08192,9.12629 0.30817,12.51699 3.48258,3.16882 8.87598,3.07377 12.1427,-0.41202 z m -9.27645,-25.31902 c 2.897,-3.16895 2.71207,-8.11234 -0.27744,-11.18606 -3.11266,-2.97873 -7.88962,-2.75691 -10.78659,0.31687 -2.89696,3.1688 -2.68133,8.20731 0.30817,11.05926 3.08191,3.07376 7.88961,2.97874 10.75586,-0.19007 z m 90.14555,-98.32957 c 2.89698,-3.16883 2.68128,-8.0805 -0.30813,-11.0593 -3.08199,-2.97873 -7.85889,-2.78857 -10.75587,0.2852 -2.897,3.20054 -2.6813,8.11223 0.30818,11.091 2.98945,2.9787 7.85889,2.852 10.75582,-0.3169 z m -26.62762,-0.4119 c 2.31143,-2.4401 2.18813,-6.33773 -0.27731,-8.7144 -2.49642,-2.34492 -6.19469,-2.1548 -8.47533,0.3168 -2.31136,2.47173 -2.21893,6.36947 0.27742,8.71444 2.40383,2.24986 6.19459,2.15476 8.47522,-0.31684 z m 21.54253,155.62235 c -2.28064,2.47169 -2.18823,6.36938 0.21567,8.71433 2.37305,2.37665 6.16381,2.15484 8.4752,-0.28521 2.28071,-2.47173 2.1882,-6.36936 -0.21567,-8.7143 -2.49633,-2.37671 -6.28704,-2.24993 -8.4752,0.28518 z m -26.62767,-0.41194 c -2.89697,3.20052 -2.68126,8.20737 0.30814,11.09095 3.08193,2.97877 7.88977,2.85197 10.75589,-0.31685 2.89691,-3.16886 2.80451,-8.20736 -0.27739,-11.05931 -2.9894,-2.9787 -7.8897,-2.88361 -10.78664,0.28521 z m 85.76927,-45.1878 c -1.91072,2.028 -1.69498,5.10177 0.18496,7.06646 2.00324,1.93304 5.08519,1.74294 6.99586,-0.22183 1.88,-1.93296 1.69508,-5.10189 -0.2157,-7.06653 -2.09572,-1.93299 -5.17754,-1.74284 -6.96512,0.2219 z m -110.79428,37.29737 c -3.29766,3.48572 -3.08194,9.1263 0.30816,12.42182 3.39012,3.264 8.8759,3.16892 12.17358,-0.3168 3.26678,-3.5808 3.08181,-9.12637 -0.30821,-12.51699 -3.48258,-3.359 -8.96838,-3.16883 -12.17353,0.41197 z m 102.50403,-14.95705 c -1.47935,-1.5527 -3.79074,-1.42592 -5.17763,0.0951 -1.29437,1.55271 -1.29437,3.8977 0.18496,5.35532 1.51009,1.33099 3.79062,1.33099 5.20836,-0.22177 1.29437,-1.42595 1.29437,-3.80255 -0.21569,-5.22863 z m -19.13868,22.05522 c 1.88,-2.05974 1.69506,-5.13353 -0.21569,-7.09817 -1.9724,-1.93305 -4.96189,-1.83801 -6.87266,0.22183 -1.78752,2.05971 -1.69504,5.22856 0.21581,7.0665 1.97235,1.96469 5.0851,1.83797 6.87254,-0.19016 z m 35.01041,-110.75149 c 3.26684,-3.5807 3.08197,-9.09451 -0.40066,-12.48518 -3.39004,-3.39071 -8.8758,-3.07388 -12.17344,0.41191 -3.29763,3.58079 -3.08194,9.12632 0.40062,12.48531 3.48258,3.39066 8.96831,3.20061 12.17348,-0.41204 z m -1.41762,40.49802 c -2.18818,2.47168 -2.09571,6.36935 0.30815,8.71439 2.49641,2.37665 6.19467,2.28159 8.4752,-0.28522 2.28067,-2.47175 2.18819,-6.36944 -0.30813,-8.71433 -2.28061,-2.37665 -6.16387,-2.15481 -8.47522,0.28516 z m 8.87581,-27.66407 c -3.08189,-2.97878 -7.85885,-2.75691 -10.75583,0.31687 -2.89696,3.16892 -2.71207,8.08052 0.27744,11.05933 3.0202,2.9787 7.88967,2.7569 10.7866,-0.31689 2.98939,-3.07382 2.77373,-7.98551 -0.30821,-11.05931 z m -146.5752,-33.11452 c 1.5102,1.42604 3.79073,1.33091 5.20848,-0.22187 1.38679,-1.52096 1.2944,-3.89762 -0.12325,-5.32362 -1.47934,-1.33094 -3.79083,-1.33094 -5.17767,0.22184 -1.38687,1.52102 -1.38687,3.8977 0.0925,5.32365 z m -8.25942,22.24531 c 1.78753,-2.05973 1.69505,-5.13348 -0.21577,-7.06651 -1.97233,-1.96469 -4.96181,-1.74289 -6.87264,0.1901 -1.87996,2.05977 -1.69503,5.13364 0.21576,7.06662 1.87996,1.8696 4.96184,1.74279 6.87265,-0.19021 z m 27.30562,-44.49069 c -1.87999,2.0598 -1.69501,5.1336 0.21573,7.06659 1.97245,1.9647 4.96186,1.74283 6.87267,-0.19014 1.78748,-1.96476 1.695,-5.13355 -0.21575,-7.09825 -1.97245,-1.93301 -5.08523,-1.8379 -6.87265,0.2218 z m -48.75572,14.95706 c 2.09576,2.97865 6.28713,3.70747 9.27658,1.55274 2.98942,-2.15485 3.69832,-6.46451 1.60255,-9.44321 -2.09557,-3.07382 -6.19457,-3.80263 -9.27649,-1.6478 -2.98942,2.24984 -3.69824,6.46441 -1.60264,9.53827 z m 153.57113,151.31273 c 1.78752,2.28158 4.96188,2.69352 7.2733,0.82387 2.1882,-1.83796 2.58882,-5.10186 0.80126,-7.47849 -1.69504,-2.24987 -4.99264,-2.66184 -7.30408,-0.82387 -2.18808,1.86961 -2.46548,5.22854 -0.77048,7.47849 z m 4.68448,-168.0126 c 5.17764,-1.64787 8.07466,-7.4785 6.47202,-12.83387 -1.695,-5.41873 -7.18083,-8.397434 -12.48178,-6.74969 -5.26992,1.64778 -8.16692,7.38346 -6.56432,12.80218 1.695,5.45041 7.27327,8.42917 12.57408,6.78138 z M 859.63011,89.176307 c -4.28378,1.109083 -6.87257,5.545495 -5.76304,10.045256 1.07864,4.404627 5.45491,7.066527 9.76959,5.957427 4.28377,-1.1408 6.87262,-5.64059 5.76317,-10.045298 -1.20204,-4.436401 -5.48585,-7.098166 -9.76972,-5.957385 z m -31.58944,2.249883 c 0.67792,3.707502 4.16051,6.052454 7.7664,5.323635 3.57497,-0.697189 5.88642,-4.404685 5.17762,-7.985501 -0.67807,-3.707536 -4.19138,-6.052535 -7.7664,-5.323735 -3.60578,0.697189 -5.88642,4.182935 -5.17762,7.985601 z m 97.11071,75.67213 c 6.0713,-2.66177 8.87585,-9.95021 6.28705,-16.19283 -2.61964,-6.2743 -9.67722,-9.1263 -15.77924,-6.46441 -6.07147,2.66185 -8.87596,9.95018 -6.25635,16.19281 2.58885,6.2427 9.64635,9.22136 15.74854,6.46443 z m 0.67794,79.76008 c 3.79078,-2.4717 4.90027,-7.47849 2.49646,-11.3762 -2.28065,-3.80257 -7.27337,-4.9434 -10.97166,-2.56673 -3.79074,2.44 -4.86933,7.57359 -2.46546,11.37616 2.28059,3.89766 7.27327,5.13356 10.94066,2.56677 z m -88.91281,56.18379 c -2.80449,0.41194 -4.80772,3.07377 -4.40704,6.05252 0.40064,2.94699 2.98936,4.91168 5.8864,4.49975 2.80448,-0.41196 4.77692,-3.07382 4.37631,-6.05254 -0.4007,-2.97872 -3.08191,-4.91169 -5.85567,-4.49973 z M 937.91043,178.47451 c -2.68128,-5.64048 -9.36897,-7.8904 -14.76225,-5.13345 -5.39339,2.75681 -7.67393,9.53813 -4.9928,15.17874 2.71211,5.6406 9.27661,7.89046 14.76238,5.13354 5.39332,-2.88365 7.67385,-9.53825 4.99267,-15.17883 z m -42.19124,-43.38159 c 2.09573,5.8624 8.47522,8.84115 14.1768,6.68627 5.67065,-2.15476 8.5676,-8.7143 6.472,-14.57671 -2.09581,-5.83068 -8.47524,-8.80941 -14.146,-6.65459 -5.70149,2.15481 -8.59851,8.6193 -6.5028,14.54503 z m -33.09961,160.85104 c -2.49629,1.14075 -3.57499,4.02444 -2.49629,6.46447 1.1095,2.56673 3.91397,3.70753 6.28709,2.56673 2.49631,-1.10906 3.60581,-3.99276 2.49631,-6.46445 -1.10951,-2.56675 -3.8832,-3.67587 -6.28711,-2.56675 z m 74.48959,-88.75956 c -2.68129,-4.94349 -8.78339,-6.7814 -13.56038,-3.8977 -4.77693,2.75693 -6.5953,9.0312 -3.79074,13.9429 2.80453,4.9118 8.78341,6.65464 13.56038,3.8977 4.77695,-2.75692 6.59525,-9.03128 3.79074,-13.9429 z m -181.95549,70.63369 c -5.20837,1.64784 -8.19782,7.38342 -6.50279,12.80219 1.60259,5.4504 7.18081,8.42911 12.48177,6.78132 5.26992,-1.64775 8.16702,-7.38341 6.56437,-12.83381 -1.60255,-5.41877 -7.27329,-8.39749 -12.54335,-6.7497 z m 29.40138,31.78361 c 4.28382,-1.14091 6.87262,-5.54555 5.79395,-10.04529 -1.10948,-4.40462 -5.48578,-7.09822 -9.76963,-5.95748 -4.3146,1.14086 -6.78015,5.54558 -5.79394,10.04534 1.20194,4.40464 5.48579,7.06657 9.76962,5.95743 z M 759.83825,109.77378 c -1.81837,-2.24989 -4.99267,-2.66179 -7.30418,-0.82391 -2.18812,1.86968 -2.58876,5.13362 -0.77049,7.51024 1.78757,2.24988 4.9619,2.66178 7.27329,0.79215 2.09579,-1.83788 2.49641,-5.22851 0.80138,-7.47848 z m 153.54027,151.43961 c -2.09576,-3.07384 -6.28714,-3.80269 -9.27657,-1.64791 -2.98942,2.15483 -3.69826,6.46452 -1.60257,9.53832 2.09571,3.07376 6.28712,3.8026 9.27661,1.64777 2.98933,-2.28157 3.69826,-6.46447 1.60253,-9.53818 z M 781.65808,102.80235 c 2.40383,-1.014 3.6058,-3.99275 2.49631,-6.464439 -1.10944,-2.535131 -3.88316,-3.675931 -6.28702,-2.535131 -2.49637,1.109056 -3.57506,3.992753 -2.49637,6.43279 1.01703,2.47172 3.91398,3.70755 6.28708,2.56678 z m -33.1921,160.85097 c -2.09568,-5.83065 -8.47521,-8.80941 -14.17672,-6.65459 -5.67067,2.15482 -8.56764,8.71435 -6.47203,14.57675 2.09576,5.92575 8.47529,8.80942 14.17674,6.65455 5.67077,-2.1548 8.56775,-8.61923 6.47201,-14.57671 z m -41.3899,-72.05973 c 2.71208,4.91181 8.7834,6.78141 13.56032,3.8977 4.77698,-2.75694 6.5953,-9.0313 3.79078,-13.9429 -2.68125,-4.9118 -8.78339,-6.65468 -13.5604,-3.89772 -4.77693,2.75693 -6.47199,9.03121 -3.7907,13.94292 z m 109.0993,115.85329 c -0.70881,-3.70757 -4.19139,-6.05252 -7.79723,-5.32368 -3.57497,0.69721 -5.88647,4.27801 -5.17764,7.98555 0.70895,3.67585 4.19146,6.05249 7.76639,5.32365 3.60589,-0.8239 5.88641,-4.3096 5.20848,-7.98552 z M 807.39197,95.73579 c 2.77369,-0.411954 4.77694,-3.16881 4.37622,-6.052536 -0.40061,-2.978699 -2.98941,-4.911666 -5.88641,-4.499716 -2.77372,0.411941 -4.77689,3.073793 -4.37623,6.05249 0.40056,2.946982 2.98938,4.911728 5.88642,4.499762 z m -80.4685,70.03168 c 3.79079,-2.47168 4.90024,-7.60528 2.49641,-11.37621 -2.4039,-3.89768 -7.39661,-4.94347 -11.06401,-2.56674 -3.79074,2.44 -4.90029,7.47847 -2.49639,11.37612 2.40391,3.80264 7.2733,4.91176 11.06399,2.56683 z m 1.69512,88.47438 c 6.07127,-2.6619 8.87583,-9.95022 6.19458,-16.19287 -2.61959,-6.27431 -9.6771,-9.12626 -15.77935,-6.46438 -6.07134,2.66175 -8.87584,9.9501 -6.25623,16.1928 2.68128,6.3694 9.76963,9.22133 15.841,6.46445 z m -22.22055,-33.93839 c 2.68124,5.6405 9.24575,7.89041 14.73152,5.13345 5.39331,-2.78851 7.67389,-9.53824 4.99271,-15.17871 -2.68128,-5.64065 -9.2766,-7.89047 -14.76232,-5.1336 -5.48584,2.88367 -7.76641,9.63338 -4.96191,15.17886 z m 233.11494,-78.23907 c 7.0576,0.72884 13.34467,-4.4998 14.05348,-11.6614 0.67802,-7.28833 -4.40708,-13.7528 -11.37217,-14.4816 -6.96514,-0.69713 -13.3755,4.4047 -14.0535,11.693 -0.8013,7.1933 4.28387,13.6262 11.37219,14.45 z m 19.63176,41.5437 c -8.47527,0 -15.34786,6.97151 -15.34786,15.78089 0,8.71431 6.87259,15.78089 15.34786,15.78089 8.47524,0 15.34785,-7.06658 15.34785,-15.78089 0,-8.71431 -6.87261,-15.78089 -15.34785,-15.78089 z m -18.64548,-21.54818 c -0.40068,8.01719 5.57822,14.86196 13.37535,15.27382 7.76648,0.41198 14.45419,-5.73561 14.85486,-13.72114 0.40064,-8.11219 -5.60908,-14.76687 -13.37548,-15.27381 -7.88972,-0.31691 -14.45409,5.73561 -14.85473,13.72113 z m -84.65987,166.90353 c -3.48252,1.04567 -5.57825,4.72148 -4.68448,8.30228 1.01708,3.61254 4.592,5.76739 8.07458,4.8167 3.4826,-0.91895 5.70158,-4.59482 4.68449,-8.30242 -0.89379,-3.6759 -4.46878,-5.8306 -8.07459,-4.81656 z m 61.638,-40.37128 c -5.60904,0.919 -9.3689,6.33775 -8.59846,12.07335 0.92455,5.7673 6.1947,9.63334 11.77283,8.7144 5.57826,-0.91912 9.36903,-6.24267 8.47522,-12.07339 -0.89371,-5.64051 -6.07129,-9.53818 -11.64959,-8.71436 z m 22.03559,-31.78356 c -6.99595,0.69712 -12.17349,7.25667 -11.37219,14.44992 0.678,7.28847 7.08836,12.39026 14.0535,11.69311 7.08829,-0.72882 12.17351,-7.19329 11.37217,-14.48163 -0.80127,-7.25661 -7.08835,-12.3902 -14.05348,-11.6614 z m -50.66639,56.1838 c -4.59201,1.01399 -7.48903,5.64047 -6.56448,10.2354 0.98624,4.7216 5.48578,7.70024 10.04698,6.78131 4.59202,-0.91893 7.48903,-5.54547 6.50286,-10.36211 -0.89376,-4.7216 -5.39336,-7.70033 -9.98536,-6.6546 z m 64.90479,-91.57982 c -7.6739,0.41187 -13.6528,7.28831 -13.34459,15.30547 0.40059,8.0806 7.05748,14.1331 14.85481,13.72115 7.76636,-0.41194 13.74519,-7.1616 13.34451,-15.2738 -0.40061,-8.11233 -7.05744,-14.25989 -14.85473,-13.75282 z M 888.93906,85.785588 c 4.49953,1.045605 8.99913,-2.059792 9.98533,-6.749681 0.9862,-4.721571 -2.00328,-9.348097 -6.47204,-10.267064 -4.592,-1.014036 -9.09153,1.964685 -10.07777,6.654612 -0.89376,4.72154 2.00321,9.348133 6.56448,10.362133 z M 690.43378,177.33373 c 7.7664,-0.41186 13.74531,-7.25663 13.34464,-15.27382 -0.40064,-8.0806 -7.05753,-14.13308 -14.85475,-13.72113 -7.67389,0.41189 -13.74529,7.16162 -13.34458,15.27381 0.40062,8.08061 7.08829,14.22816 14.85469,13.72114 z m 14.26927,-35.36434 c 6.9651,-0.7288 12.14262,-7.28846 11.34133,-14.45006 -0.67799,-7.28833 -7.05758,-12.51694 -14.05347,-11.69304 -7.08833,0.72874 -12.17346,7.1933 -11.37217,14.45 0.80125,7.1933 7.08838,12.42191 14.08431,11.6931 z m -4.40716,57.41959 c 0,-8.71431 -6.87262,-15.78089 -15.34788,-15.78089 -8.38275,0 -15.2554,7.06658 -15.2554,15.78089 0,8.71431 6.87265,15.78089 15.34787,15.78089 8.38279,0 15.25541,-7.06658 15.25541,-15.78089 z M 755.24613,85.785588 c 4.59212,-1.014 7.45825,-5.640593 6.56445,-10.362133 -0.9862,-4.689927 -5.48576,-7.668648 -9.95451,-6.654612 -4.592,1.014033 -7.48899,5.545493 -6.59528,10.267064 1.01701,4.816682 5.48586,7.795286 9.98534,6.749681 z m 33.09965,-16.002712 c 3.48252,-1.014033 5.67072,-4.689899 4.6845,-8.302399 -0.98621,-3.5808 -4.59202,-5.73562 -8.07457,-4.816649 -3.48256,0.91896 -5.67073,4.626512 -4.68448,8.302399 0.89375,3.707552 4.592,5.862371 8.07455,4.816649 z m -84.6598,166.903494 c 0.4007,-7.98548 -5.57827,-14.73517 -13.34466,-15.27379 -7.67394,-0.50707 -14.36161,5.64049 -14.76223,13.65772 -0.40071,8.08059 5.57819,14.7668 13.34458,15.27382 7.70477,0.41199 14.36165,-5.64053 14.76231,-13.65775 z m 23.14509,-126.50058 c 5.57823,-0.919 9.36898,-6.33774 8.56763,-12.105099 -0.89371,-5.735551 -6.19457,-9.63321 -11.77291,-8.714304 -5.57819,0.950659 -9.36888,6.274336 -8.47518,12.104993 0.80138,5.64061 6.10221,9.53825 11.68046,8.71441 z m 190.64632,-0.0951 c 5.5783,1.01397 10.84839,-2.97875 11.74199,-8.71441 0.92469,-5.862347 -2.98936,-11.186067 -8.4752,-12.105027 -5.57821,-0.918919 -10.84819,2.978784 -11.74198,8.714339 -1.01706,5.735678 2.77379,11.186048 8.47519,12.105098 z M 822.15427,64.776087 c 3.39008,0 6.16374,-2.7569 6.16374,-6.369396 0,-3.485742 -2.68116,-6.337704 -6.16374,-6.337704 -3.39009,0 -6.19464,2.7569 -6.19464,6.337704 0,3.612496 2.80455,6.369396 6.19464,6.369396 z M 704.70305,256.8086 c -6.99593,-0.82392 -13.28306,4.4998 -14.08431,11.6614 -0.678,7.28834 4.40706,13.75281 11.37217,14.48163 6.99589,0.69715 13.37548,-4.43643 14.05347,-11.69311 0.70883,-7.28832 -4.37623,-13.7528 -11.34133,-14.44992 z M 855.83939,69.782876 c 3.51341,1.045722 7.1808,-1.109097 8.07459,-4.816649 1.01709,-3.580809 -1.1711,-7.383439 -4.68449,-8.302399 -3.48258,-1.014033 -7.1808,1.140784 -8.07458,4.816649 -0.89377,3.6125 1.20196,7.288366 4.68448,8.302399 z M 822.06178,334.00187 c -3.39007,0 -6.19459,2.75693 -6.19459,6.33773 0,3.4858 2.6812,6.36937 6.19459,6.36937 3.39011,0 6.16381,-2.75694 6.16381,-6.36937 0.0923,-3.5808 -2.68124,-6.33773 -6.16381,-6.33773 z M 726.73859,288.6872 c -5.60903,-0.91886 -10.7866,2.97881 -11.68034,8.7144 -0.89383,5.83072 2.89694,11.15436 8.47516,12.10507 5.57826,0.91892 10.8791,-2.97876 11.77287,-8.71439 0.89377,-5.76734 -2.89698,-11.18609 -8.56769,-12.10508 z m 61.60719,40.27624 c -3.48255,-1.01404 -7.1808,1.14066 -8.07455,4.81656 -0.98625,3.6126 1.20192,7.38347 4.68448,8.30242 3.48255,0.91898 7.1808,-1.10909 8.07457,-4.8167 0.98622,-3.5808 -1.20198,-7.38338 -4.6845,-8.30228 z M 755.24613,312.9924 c -4.49948,-1.04573 -9.09154,1.933 -9.98534,6.6546 -0.9862,4.7216 2.00328,9.31644 6.50279,10.36211 4.56124,1.01405 9.0608,-2.05971 10.047,-6.78131 1.01706,-4.62656 -1.97233,-9.22141 -6.56445,-10.2354 z"
       id="path8"
       style="fill:#43658f;fill-opacity:1;stroke-width:0.31250739"
       inkscape:connector-curvature="0" />
  </g>
</svg>
