<?xml version="1.0" encoding="UTF-8" standalone="no"?>
<svg
   xmlns:dc="http://purl.org/dc/elements/1.1/"
   xmlns:cc="http://creativecommons.org/ns#"
   xmlns:rdf="http://www.w3.org/1999/02/22-rdf-syntax-ns#"
   xmlns:svg="http://www.w3.org/2000/svg"
   xmlns="http://www.w3.org/2000/svg"
   xmlns:sodipodi="http://sodipodi.sourceforge.net/DTD/sodipodi-0.dtd"
   xmlns:inkscape="http://www.inkscape.org/namespaces/inkscape"
   width="24"
   height="24"
   viewBox="0 0 24 24"
   version="1.1"
   id="SVGRoot"
   inkscape:version="0.92.4 (5da689c313, 2019-01-14)"
   sodipodi:docname="touchpad.svg">
  <defs
     id="defs823" />
  <sodipodi:namedview
     id="base"
     pagecolor="#ffffff"
     bordercolor="#666666"
     borderopacity="1.0"
     inkscape:pageopacity="0.0"
     inkscape:pageshadow="2"
     inkscape:zoom="12.8"
     inkscape:cx="14.429546"
     inkscape:cy="11.53125"
     inkscape:document-units="px"
     inkscape:current-layer="layer1"
     showgrid="false"
     inkscape:window-width="1920"
     inkscape:window-height="1009"
     inkscape:window-x="0"
     inkscape:window-y="0"
     inkscape:window-maximized="1"
     inkscape:grid-bbox="true" />
  <metadata
     id="metadata826">
    <rdf:RDF>
      <cc:Work
         rdf:about="">
        <dc:format>image/svg+xml</dc:format>
        <dc:type
           rdf:resource="http://purl.org/dc/dcmitype/StillImage" />
        <dc:title />
      </cc:Work>
    </rdf:RDF>
  </metadata>
  <g
     inkscape:label="Layer 1"
     inkscape:groupmode="layer"
     id="layer1"
     transform="translate(26.21875,2.46875)">
    <g
       id="touchpad_enabled"
       transform="matrix(0.019892,0,0,0.019892,-24.195737,-0.31786971)">
      <g
         transform="matrix(0.1,0,0,-0.1,0,512)"
         id="g8">
        <path
           d="M 4631.2,5015.7 C 3997,4958.2 3418.4,4803 2876.1,4540.5 2330,4276.1 1981.3,4027 1536.8,3580.6 1090.4,3134.2 860.4,2814.2 588.4,2258.5 356.6,1789.1 220.5,1344.5 134.3,792.7 88.3,484.2 88.3,-240 136.2,-548.5 c 90.1,-586.3 239.5,-1057.6 488.6,-1548.1 254.8,-496.3 494.3,-822 912,-1239.7 438.8,-440.7 764.5,-674.4 1302.9,-938.9 343,-168.6 567.1,-252.9 915.9,-344.9 1452.4,-383.2 2981.4,-76.6 4209.5,839.2 233.8,176.3 756.8,699.3 933.1,933.1 1011.6,1354.8 1272.2,3050.5 712.7,4627.4 -168.6,475.2 -484.8,1032.7 -812.4,1437 -187.8,231.8 -609.3,640 -837.3,810.5 C 7286.8,4532.9 6530,4849 5685,4979.3 c -193.5,28.8 -868,53.7 -1053.8,36.4 z m 996.3,-400.4 c 494.3,-74.7 919.7,-206.9 1370,-431.1 906.3,-448.3 1605.6,-1149.6 2050.1,-2059.7 220.3,-448.3 348.7,-858.4 425.4,-1350.8 47.9,-308.5 47.9,-1015.5 0,-1312.5 -82.4,-498.2 -212.7,-910.1 -425.4,-1341.2 -582.5,-1182.2 -1640.1,-2044.4 -2921.9,-2377.8 -645.7,-168.6 -1393,-183.9 -2073.2,-44.1 -503.9,103.5 -1126.6,364 -1557.7,653.4 -1023.2,684 -1712.9,1724.4 -1942.9,2927.6 -159,820.1 -74.7,1732.1 229.9,2494.7 239.5,601.6 569.1,1105.5 1023.2,1557.7 377.5,377.5 726.2,628.5 1207.1,864.1 509.7,249.1 1015.5,392.8 1586.5,448.3 237.6,23.1 781.7,7.8 1028.9,-28.6 z"
           id="touchpad_disabled"
           style="fill:#2a4c76;fill-opacity:1"
           inkscape:connector-curvature="0" />
        <path
           d="m 2048.4,712.3 5.7,-1960.1 1170.7,-5.7 1170.7,-3.8 11.5,-235.7 c 26.8,-509.7 201.2,-898.6 555.6,-1232 536.5,-505.8 1295.3,-626.5 1960.1,-314.2 479,224.2 837.3,657.2 967.6,1172.6 36.4,139.9 42.2,229.9 49.8,777.9 l 9.6,617 H 7746.6 7543.5 V 1099.5 2670.6 H 4794 2044.5 Z m 5102.4,195.5 v -1370 l -387,-5.8 -389,-3.8 v 697.5 c 0,421.5 -7.7,737.7 -21.1,793.2 -47.9,228 -216.5,400.5 -450.3,457.9 -120.7,30.7 -137.9,30.7 -251,0 -197.3,-51.7 -335.3,-166.7 -419.6,-350.6 -32.5,-67.1 -36.4,-147.5 -42.1,-835.4 l -5.8,-762.6 h -157.1 c -241.4,0 -406.2,-90.1 -521.2,-285.5 L 4449.1,-855 H 3449 2446.9 V 716.2 2287.3 l 2352.9,-3.8 2351,-5.7 z m -1234,136 55.6,-55.6 V 66.6 -855 h 785.6 785.6 v -388.9 c 0,-327.6 -5.7,-415.8 -38.3,-542.2 -115,-452.2 -442.6,-806.7 -883.3,-956.1 -666.8,-228 -1392.9,76.6 -1693.8,707 -103.5,218.4 -128.4,379.4 -120.7,749.2 l 5.7,320 63.2,55.6 c 55.6,49.8 76.6,55.5 185.9,55.5 h 124.6 v -392.8 -392.8 H 5388 5589.2 V -326.1 988.2 l 55.6,55.6 c 44.1,44.1 72.8,55.6 136,55.6 63.2,0 92,-11.5 136,-55.6 z"
           id="path6"
           style="fill:#d3dae3;fill-opacity:1"
           inkscape:connector-curvature="0" />
      </g>
    </g>
    <path
       d="m 1.929376,12.024573 0.01047,3.599116 2.149628,0.01047 2.149628,0.007 0.02112,0.43279 c 0.04921,0.935903 0.369441,1.649998 1.020187,2.262184 0.985116,0.928745 2.378417,1.150373 3.599116,0.576931 0.879535,-0.411674 1.537442,-1.206745 1.776698,-2.153117 0.06684,-0.256883 0.07749,-0.42214 0.09144,-1.428372 l 0.01763,-1.132929 h -0.37293 -0.37293 V 11.3136 8.428762 H 6.970827 1.922223 Z m 9.368976,-0.358976 v 2.515581 l -0.710605,0.01065 -0.714278,0.007 v -1.280745 c 0,-0.773954 -0.01414,-1.354558 -0.03874,-1.456466 -0.08795,-0.418652 -0.397535,-0.735394 -0.826836,-0.840792 -0.221628,-0.05637 -0.253211,-0.05637 -0.460884,0 -0.36228,0.09493 -0.615675,0.306093 -0.770465,0.643769 -0.05968,0.123208 -0.06684,0.270838 -0.0773,1.533953 l -0.01065,1.400278 H 7.400129 c -0.443257,0 -0.745861,0.165441 -0.957023,0.524232 l -0.10558,0.179396 H 4.501152 2.661106 V 12.017431 9.132593 l 4.320371,0.007 4.316883,0.01047 z m -2.265858,-0.249721 0.102092,0.102092 v 1.692233 1.692232 h 1.442511 1.44251 v 0.714095 c 0,0.601535 -0.01047,0.763487 -0.07033,0.995582 -0.211157,0.830325 -0.812693,1.481254 -1.621902,1.755581 C 9.103003,18.786343 7.769746,18.227039 7.217236,17.069505 7.02719,16.668481 6.981469,16.372854 6.995608,15.693831 L 7.006078,15.10625 7.122126,15.004158 C 7.224218,14.912718 7.262778,14.90225 7.463473,14.90225 h 0.22879 v 0.721255 0.721255 H 8.06152 8.430962 v -2.413488 -2.413304 l 0.102092,-0.102092 c 0.08098,-0.08098 0.133675,-0.102093 0.249722,-0.102093 0.116047,0 0.168929,0.02112 0.249722,0.102093 z"
       id="path6-6"
       style="fill:#d3dae3;fill-opacity:1;stroke-width:0.00183619"
       inkscape:connector-curvature="0" />
    <g
       id="system-shutdown"
       transform="matrix(0.75,0,0,0.75,35.748535,-2.46875)">
      <rect
         ry="0"
         rx="0"
         y="0"
         x="-82.623047"
         height="32"
         width="32"
         id="rect1131"
         style="opacity:0;fill:#000000;fill-opacity:1;fill-rule:evenodd;stroke:none;stroke-width:2;stroke-linecap:round;stroke-linejoin:round;stroke-miterlimit:4;stroke-dasharray:none;stroke-opacity:1;paint-order:fill markers stroke" />
      <g
         transform="translate(2.3769531,44)"
         id="g1134" />
    </g>
  </g>
</svg>
