<?xml version="1.0" encoding="UTF-8" standalone="no"?>
<svg
   xmlns:dc="http://purl.org/dc/elements/1.1/"
   xmlns:cc="http://creativecommons.org/ns#"
   xmlns:rdf="http://www.w3.org/1999/02/22-rdf-syntax-ns#"
   xmlns:svg="http://www.w3.org/2000/svg"
   xmlns="http://www.w3.org/2000/svg"
   xmlns:sodipodi="http://sodipodi.sourceforge.net/DTD/sodipodi-0.dtd"
   xmlns:inkscape="http://www.inkscape.org/namespaces/inkscape"
   inkscape:version="1.0 (4035a4fb49, 2020-05-01)"
   sodipodi:docname="view.svg"
   id="svg873"
   version="1.1"
   height="32"
   width="32">
  <metadata
     id="metadata879">
    <rdf:RDF>
      <cc:Work
         rdf:about="">
        <dc:format>image/svg+xml</dc:format>
        <dc:type
           rdf:resource="http://purl.org/dc/dcmitype/StillImage" />
      </cc:Work>
    </rdf:RDF>
  </metadata>
  <defs
     id="defs877">
    <linearGradient
       id="_lgradient_0"
       x1="0"
       y1="0.5"
       x2="1"
       y2="0.5"
       gradientTransform="matrix(27.999994,0,0,27.999998,1.9766191,1.9139856)"
       gradientUnits="userSpaceOnUse">
      <stop
         offset="0%"
         stop-opacity="1"
         style="stop-color:rgb(105,227,255)"
         id="stop33" />
      <stop
         offset="100%"
         stop-opacity="1"
         style="stop-color:rgb(0,255,194)"
         id="stop35" />
    </linearGradient>
  </defs>
  <sodipodi:namedview
     showguides="false"
     inkscape:current-layer="svg873"
     inkscape:window-maximized="1"
     inkscape:window-y="0"
     inkscape:window-x="0"
     inkscape:cy="16"
     inkscape:cx="-5.6752635"
     inkscape:zoom="11.033537"
     showgrid="false"
     id="namedview875"
     inkscape:window-height="1013"
     inkscape:window-width="1920"
     inkscape:pageshadow="2"
     inkscape:pageopacity="0"
     guidetolerance="10"
     gridtolerance="10"
     objecttolerance="10"
     borderopacity="1"
     inkscape:document-rotation="0"
     bordercolor="#666666"
     pagecolor="#ffffff">
    <inkscape:grid
       id="grid842"
       type="xygrid" />
  </sodipodi:namedview>
  <g
     transform="translate(-250.00021,54.000004)"
     id="view-refresh">
    <path
       id="path836"
       style="opacity:0.00100002"
       d="m 282.00021,-38.000004 h 16 v 16 h -16 z" />
    <g
       id="g841"
       transform="translate(281.97246,-37.000109)">
      <g
         transform="translate(-485.03396,-41.017475)"
         id="layer12-0">
        <path
           id="path838"
           style="fill:#d3dae3;fill-opacity:1"
           d="m 499.06185,49.01758 c 0,3.31371 -2.68629,6 -6,6 -3.28006,0 -5.94034,-2.63316 -5.99414,-5.90039 a 1,1 0 0 1 -0.006,-0.09961 1,1 0 0 1 1,-1 1,1 0 0 1 1,1 c 0,2.20914 1.79086,4 4,4 2.20914,0 4,-1.79086 4,-4 0,-2.20914 -1.79086,-4 -4,-4 v 2 l -4,-3 4,-3 v 2 c 3.31371,0 6,2.68629 6,6 z" />
      </g>
    </g>
  </g>
  <g
     style="clip-rule:evenodd;fill-rule:evenodd;stroke-linejoin:round;stroke-miterlimit:1.41421"
     id="view-history">
    <rect
       ry="0.91472864"
       y="0"
       x="0"
       height="32"
       width="32"
       id="rect817-5"
       style="fill:#ffff96;fill-opacity:0;stroke-width:1.04154;stroke-miterlimit:1.41421;stroke-dasharray:none" />
    <path
       sodipodi:nodetypes="cccccccccccccscscsccc"
       inkscape:connector-curvature="0"
       style="fill:#2a4c76;fill-opacity:1;stroke-width:0.00265247"
       id="path4"
       d="M 14.862835,3.0941844 C 9.364638,3.5134639 4.6597069,7.4307116 3.2703011,12.756158 c -0.5438771,2.096127 -0.5571414,4.428025 -0.026263,6.504535 1.3695079,5.42384 6.1402309,9.399961 11.7169549,9.766983 3.165099,0.209513 6.238658,-0.707538 8.774721,-2.62679 0.688194,-0.517403 1.939643,-1.768598 2.45752,-2.456527 C 30.066163,18.821792 29.672984,11.714466 25.262809,7.1029261 22.543161,4.2668929 18.748757,2.7995493 14.862835,3.0941844 Z m 1.743059,1.2793093 c 1.368621,0.076522 3.459886,0.7573184 5.187389,1.7431591 1.857338,1.080558 3.397592,2.7660202 4.452442,4.8557862 1.435041,2.862558 1.811598,6.827532 0.376551,9.690092 -1.055112,2.089492 -2.837922,4.476015 -4.928256,5.530717 -1.471909,0.737287 -4.078596,1.536924 -5.988364,1.512887 -1.805832,-0.02272 -4.057882,-0.828985 -5.44969,-1.526147 C 7.6183511,24.853527 5.7115492,22.445489 4.7423385,19.656972 3.8116002,16.979136 3.9903286,13.94526 5.2455479,11.42622 6.0384575,9.834675 7.376031,8.0968591 8.9608592,6.8923321 10.611265,5.6379639 12.871201,4.5919214 14.686395,4.4514937 c 0.360295,-0.032614 0.98244,-0.1063612 1.03497,-0.1063612 0.05223,-0.00668 0.452074,-0.00427 0.884529,0.028361 z" />
    <path
       inkscape:connector-curvature="0"
       style="fill:#d3dae3;fill-opacity:1;stroke-width:0.00224404"
       id="path6"
       d="m 14.800259,11.700272 c -1.60181,0.266137 -3.03756,1.025503 -4.290194,2.272489 -0.6153224,0.609692 -1.047528,1.158347 -1.435526,1.812471 L 8.825,16.212038 9.063319,16.62224 c 0.349176,0.598697 0.7926016,1.158572 1.341499,1.718223 1.369102,1.385664 2.849059,2.167246 4.561726,2.394562 0.731564,0.09986 1.042142,0.09986 1.773706,0 1.624026,-0.216096 3.048556,-0.936642 4.351233,-2.200457 0.698352,-0.670728 1.09757,-1.163957 1.507784,-1.845681 l 0.282752,-0.482234 -0.24954,-0.415811 c -1.213812,-2.061779 -3.270269,-3.591731 -5.420977,-4.035143 -0.609935,-0.127459 -1.818138,-0.15506 -2.411243,-0.05543 z m 1.646243,2.100823 c 0.981103,0.260528 1.685065,1.0365 1.862346,2.045173 0.221713,1.302637 -0.731564,2.594053 -2.084059,2.821369 -1.030921,0.171889 -2.150708,-0.421197 -2.594134,-1.369058 -0.354786,-0.753756 -0.343566,-1.463306 0.03321,-2.222673 0.493245,-1.008898 1.707281,-1.563163 2.782635,-1.274811 z" />
    <path
       inkscape:connector-curvature="0"
       style="fill:#3daee9;fill-opacity:1;stroke-width:0.00224399"
       id="path8"
       d="m 15.285828,14.886008 c -0.288128,0.08864 -0.69833,0.493229 -0.842394,0.825789 -0.288128,0.670728 0.01661,1.474301 0.692944,1.834686 0.17189,0.09425 0.321564,0.121848 0.637518,0.121848 0.471013,0 0.73715,-0.110853 1.030889,-0.426806 0.260527,-0.271523 0.36577,-0.521055 0.398981,-0.931256 l 0.02783,-0.360385 -0.16067,0.144064 c -0.321564,0.293738 -0.554266,0.338169 -0.892435,0.177275 -0.271523,-0.127458 -0.432192,-0.482233 -0.354775,-0.781581 0.06104,-0.210711 0.205101,-0.382376 0.421197,-0.498839 0.105243,-0.05543 0.105243,-0.06104 -0.04443,-0.116463 -0.194105,-0.07697 -0.670728,-0.07136 -0.91465,0.01167 z" />
  </g>
</svg>
