<?xml version="1.0" encoding="UTF-8" standalone="no"?>
<!-- Svg Vector Icons : http://www.onlinewebfonts.com/icon -->

<svg
   xmlns:dc="http://purl.org/dc/elements/1.1/"
   xmlns:cc="http://creativecommons.org/ns#"
   xmlns:rdf="http://www.w3.org/1999/02/22-rdf-syntax-ns#"
   xmlns:svg="http://www.w3.org/2000/svg"
   xmlns="http://www.w3.org/2000/svg"
   xmlns:sodipodi="http://sodipodi.sourceforge.net/DTD/sodipodi-0.dtd"
   xmlns:inkscape="http://www.inkscape.org/namespaces/inkscape"
   version="1.1"
   x="0px"
   y="0px"
   viewBox="0 0 29 28.000004"
   enable-background="new 0 0 1000 1000"
   xml:space="preserve"
   id="svg14"
   sodipodi:docname="view.svg"
   inkscape:version="0.92.4 (5da689c313, 2019-01-14)"
   width="29"
   height="28.000004"><metadata
   id="metadata11"><rdf:RDF><cc:Work
       rdf:about=""><dc:format>image/svg+xml</dc:format><dc:type
         rdf:resource="http://purl.org/dc/dcmitype/StillImage" /></cc:Work></rdf:RDF></metadata><defs
   id="defs18" /><sodipodi:namedview
   pagecolor="#ffffff"
   bordercolor="#666666"
   borderopacity="1"
   objecttolerance="10"
   gridtolerance="10"
   guidetolerance="10"
   inkscape:pageopacity="0"
   inkscape:pageshadow="2"
   inkscape:window-width="1920"
   inkscape:window-height="1017"
   id="namedview16"
   showgrid="false"
   inkscape:zoom="7.5520001"
   inkscape:cx="9.2941702"
   inkscape:cy="-0.63422359"
   inkscape:window-x="0"
   inkscape:window-y="0"
   inkscape:window-maximized="1"
   inkscape:current-layer="svg14"
   inkscape:lockguides="true"><inkscape:grid
     type="xygrid"
     id="grid819" /></sodipodi:namedview>
<g
   id="view-history"
   transform="matrix(0.02243987,0,0,0.02243987,2.7526324,2.9711854)"><g
     transform="matrix(0.1,0,0,-0.1,0,511)"
     id="g10"><path
       d="M 4851.7591,4998 C 2676.1796,4839.9 814.48613,3362.8 264.71235,1354.7 49.505909,564.3 44.256971,-315 254.31946,-1098 796.21981,-3143.2 2683.9477,-4642.5 4890.6014,-4780.9 c 1252.3963,-79 2468.5753,266.8 3472.0673,990.5 272.3149,195.1 767.4997,666.9 972.418,926.3 C 10867.567,-932.5 10711.987,1747.5 8966.9262,3486.4 7890.7892,4555.8 6389.383,5109.1 4851.7591,4998 Z m 689.7107,-482.3967 c 541.55,-28.8544 1369.0456,-285.5665 2052.6026,-657.3033 734.9283,-407.4523 1344.3906,-1043 1761.7857,-1831 567.8302,-1079.4 716.8279,-2574.5 148.9978,-3653.9 -417.5,-787.9 -1122.9372,-1687.8 -1950.0647,-2085.5 -582.4176,-278.0147 -1613.8574,-579.5362 -2369.532,-570.476 -714.5513,8.5672 -1605.6647,312.5907 -2156.388,575.476 -1043.6792,500.1768 -1798.1813,1408.1858 -2181.68849,2459.67 -368.28433,1009.74738 -297.56275,2153.75144 199.11519,3103.6205 313.7462,600.1337 843.0104,1255.4211 1470.1113,1709.6195 653.049,472.9923 1547.2819,867.4294 2265.539,920.3814 142.5614,12.3 388.7363,40.1072 409.5222,40.1072 20.681,2.5 178.884,1.6047 349.9994,-10.6953 z"
       id="path4"
       style="fill:#2a4c76;fill-opacity:1;stroke-width:1.02459157"
       inkscape:connector-curvature="0"
       sodipodi:nodetypes="cccccccccccccscscsccc" /><path
       d="m 4785.0631,2086.7272 c -713.8225,-118.6 -1353.6425,-457 -1911.86,-1012.7 C 2598.9945,802.32712 2406.3884,557.82712 2233.483,266.32712 L 2122.2795,76.127117 2228.4828,-106.67289 c 155.6049,-266.79999 353.2111,-516.29999 597.8188,-765.69999 610.1192,-617.49992 1269.6398,-965.79992 2032.8638,-1067.09992 326.0102,-44.5 464.4145,-44.5 790.4248,0 723.7227,96.3 1358.5426,417.4 1939.0608,980.59992 311.2098,298.9 489.1154,518.7 671.9211,822.49999 L 8386.576,78.527117 8275.3726,263.82712 C 7734.4556,1182.6272 6818.0268,1864.4272 5859.5968,2062.0272 c -271.8085,56.8 -810.2255,69.1 -1074.5337,24.7 z m 733.623,-936.2 c 437.2137,-116.1 750.9236,-461.90008 829.926,-911.40008 98.8031,-580.5 -326.0102,-1156 -928.7291,-1257.30002 -459.4144,-76.5999 -958.4301,187.70002 -1156.0363,610.10002 -158.105,335.899991 -153.1048,652.1 14.8005,990.5 219.8069,449.60008 760.8238,696.60008 1240.0389,568.10008 z"
       id="path6"
       style="fill:#d3dae3;fill-opacity:1;stroke-width:1.00001574"
       inkscape:connector-curvature="0" /><path
       d="m 4992.2207,772.89777 c -128.4,-39.5 -311.2,-219.8 -375.4,-368 -128.4,-298.9 7.4,-657 308.8,-817.6 76.6,-42 143.3,-54.3 284.1,-54.3 209.9,0 328.5,49.4 459.4,190.2 116.1,121 163,232.200001 177.8,415 l 12.4,160.6 -71.6,-64.2 c -143.3,-130.9 -247,-150.700001 -397.7,-79 -121,56.8 -192.6,214.9 -158.1,348.3 27.2,93.9 91.4,170.4 187.7,222.3 46.9,24.7 46.9,27.2 -19.8,51.9 -86.5,34.3 -298.9,31.8 -407.6,-5.2 z"
       id="path8"
       style="fill:#477dbd;fill-opacity:1"
       inkscape:connector-curvature="0" /></g></g>
</svg>