<?xml version="1.0" encoding="UTF-8" standalone="no"?>
<svg
   xmlns:dc="http://purl.org/dc/elements/1.1/"
   xmlns:cc="http://creativecommons.org/ns#"
   xmlns:rdf="http://www.w3.org/1999/02/22-rdf-syntax-ns#"
   xmlns:svg="http://www.w3.org/2000/svg"
   xmlns="http://www.w3.org/2000/svg"
   xmlns:xlink="http://www.w3.org/1999/xlink"
   xmlns:sodipodi="http://sodipodi.sourceforge.net/DTD/sodipodi-0.dtd"
   xmlns:inkscape="http://www.inkscape.org/namespaces/inkscape"
   height="32"
   width="32"
   version="1.1"
   id="svg25"
   sodipodi:docname="folder-games.svg"
   inkscape:version="0.92.4 (5da689c313, 2019-01-14)">
  <metadata
     id="metadata31">
    <rdf:RDF>
      <cc:Work
         rdf:about="">
        <dc:format>image/svg+xml</dc:format>
        <dc:type
           rdf:resource="http://purl.org/dc/dcmitype/StillImage" />
      </cc:Work>
    </rdf:RDF>
  </metadata>
  <defs
     id="defs29">
    <linearGradient
       inkscape:collect="always"
       id="linearGradient842">
      <stop
         style="stop-color:#147eb8;stop-opacity:1;"
         offset="0"
         id="stop838" />
      <stop
         style="stop-color:#d3dae3;stop-opacity:1"
         offset="1"
         id="stop840" />
    </linearGradient>
    <linearGradient
       inkscape:collect="always"
       xlink:href="#linearGradient842"
       id="linearGradient846"
       gradientUnits="userSpaceOnUse"
       x1="43.5"
       y1="7"
       x2="71.5"
       y2="7"
       gradientTransform="translate(-41.5)" />
  </defs>
  <sodipodi:namedview
     pagecolor="#ffffff"
     bordercolor="#666666"
     borderopacity="1"
     objecttolerance="10"
     gridtolerance="10"
     guidetolerance="10"
     inkscape:pageopacity="0"
     inkscape:pageshadow="2"
     inkscape:window-width="1920"
     inkscape:window-height="1017"
     id="namedview27"
     showgrid="false"
     inkscape:zoom="7.375"
     inkscape:cx="16"
     inkscape:cy="5.1525424"
     inkscape:window-x="0"
     inkscape:window-y="0"
     inkscape:window-maximized="1"
     inkscape:current-layer="svg25" />
  <linearGradient
     id="a"
     gradientUnits="userSpaceOnUse"
     x2="0"
     y1="29"
     y2="8"
     gradientTransform="translate(-43.4)">
    <stop
       offset="0"
       stop-color="#3daee9"
       id="stop2" />
    <stop
       offset="1"
       stop-color="#6cc1ef"
       id="stop4" />
  </linearGradient>
  <path
     d="m 2,3 v 8 H 30 V 5 H 16 L 14,3 Z"
     id="path7"
     inkscape:connector-curvature="0"
     style="fill:url(#linearGradient846);fill-opacity:1;fill-rule:evenodd" />
  <path
     d="m13 8-2 1h-9v1h10z"
     fill-opacity=".235"
     fill-rule="evenodd"
     id="path9" />
  <path
     d="m 13,8 -2,2 H 1 V 29 H 31 V 8 Z"
     id="path11"
     style="fill:#2a4c76;fill-opacity:1"
     inkscape:connector-curvature="0" />
  <g
     fill-opacity=".235"
     id="g17">
    <path
       d="m13 8-2 2h-10v1h11zm1-5 1 3h15v-1h-14z"
       fill="#fff"
       fill-rule="evenodd"
       id="path13" />
    <path
       d="m1 28h30v1h-30z"
       id="path15" />
  </g>
  <g
     fill="#1272a5"
     id="g23">
    <path
       d="m 13.136,17.207 v 1 h -1 v 1 h 1 v 1 h 1 v -1 h 1 v -1 h -1 v -1 z m 5.5,-0.1 a 0.6,0.6 0 0 0 -0.6,0.6 0.6,0.6 0 0 0 0.6,0.6 0.6,0.6 0 0 0 0.6,-0.6 0.6,0.6 0 0 0 -0.6,-0.6 z m -1,1 a 0.6,0.6 0 0 0 -0.6,0.6 0.6,0.6 0 0 0 0.6,0.6 0.6,0.6 0 0 0 0.6,-0.6 0.6,0.6 0 0 0 -0.6,-0.6 z m 2,0 a 0.6,0.6 0 0 0 -0.6,0.6 0.6,0.6 0 0 0 0.6,0.6 0.6,0.6 0 0 0 0.6,-0.6 0.6,0.6 0 0 0 -0.6,-0.6 z m -1,1 a 0.6,0.6 0 0 0 -0.6,0.6 0.6,0.6 0 0 0 0.6,0.6 0.6,0.6 0 0 0 0.6,-0.6 0.6,0.6 0 0 0 -0.6,-0.6 z"
       id="path19"
       inkscape:connector-curvature="0"
       style="fill:#d3dae3;fill-opacity:1" />
    <path
       d="m 12.135593,15.406779 a 2,4 0 0 0 -2,4 v 2.5 a 1.5,1.5 0 0 0 2.56,1.06 l 0.944,-0.943 a 1.5,1.5 0 0 0 0.996,0.383 1.5,1.5 0 0 0 1.5,-1.5 1.5,1.5 0 0 0 2.498,1.12 l 0.941,0.94 a 1.5,1.5 0 0 0 2.561,-1.06 v -2.5 a 2,4 0 0 0 -2,-4 z m 0,1 h 8 a 1,3 0 0 1 1,3 v 2.5 a 0.5,0.5 0 0 1 -0.854,0.354 l -1.853,-1.854 h -0.293 v 0.5 a 0.5,0.5 0 0 1 -1,0 v -0.5 h -2 v 0.5 a 0.5,0.5 0 0 1 -1,0 v -0.5 h -0.293 l -1.853,1.854 a 0.5,0.5 0 0 1 -0.854,-0.354 v -2.5 a 1,3 0 0 1 1,-3 z"
       id="path21"
       style="fill:#d3dae3;fill-opacity:1"
       inkscape:connector-curvature="0" />
  </g>
</svg>
